<svg xmlns="http://www.w3.org/2000/svg" xmlns:xlink="http://www.w3.org/1999/xlink" width="1080" zoomAndPan="magnify" viewBox="0 0 810 809.999993" height="1080" preserveAspectRatio="xMidYMid meet" version="1.0"><defs><filter x="0%" y="0%" width="100%" height="100%" id="b135cae30a"><feColorMatrix values="0 0 0 0 1 0 0 0 0 1 0 0 0 0 1 0 0 0 1 0" color-interpolation-filters="sRGB"/></filter><mask id="ad8b1434a6"><g filter="url(#b135cae30a)"><rect x="-81" width="972" fill="#000000" y="-80.999999" height="971.999992" fill-opacity="0.8"/></g></mask><clipPath id="887f79889e"><path d="M 0.746094 0.746094 L 445.359375 0.746094 L 445.359375 445.359375 L 0.746094 445.359375 Z M 0.746094 0.746094 " clip-rule="nonzero"/></clipPath><clipPath id="e09ee3640a"><rect x="0" width="446" y="0" height="446"/></clipPath><clipPath id="4cf54bda77"><path d="M 268 316.710938 L 291 316.710938 L 291 492.960938 L 268 492.960938 Z M 268 316.710938 " clip-rule="nonzero"/></clipPath><clipPath id="d77aec417e"><path d="M 268 433 L 585 433 L 585 492.960938 L 268 492.960938 Z M 268 433 " clip-rule="nonzero"/></clipPath></defs><g mask="url(#ad8b1434a6)"><g transform="matrix(1, 0, 0, 1, 182, 182)"><g clip-path="url(#e09ee3640a)"><g clip-path="url(#887f79889e)"><path fill="#0b656a" d="M 222.996094 445.25 C 100.757812 445.25 0.746094 345.234375 0.746094 222.996094 C 0.746094 100.757812 100.757812 0.746094 222.996094 0.746094 C 345.234375 0.746094 445.25 100.757812 445.25 222.996094 C 445.25 345.234375 345.234375 445.25 222.996094 445.25 Z M 222.996094 445.25 " fill-opacity="1" fill-rule="nonzero"/></g></g></g></g><g clip-path="url(#4cf54bda77)"><path fill="#f5c022" d="M 268.242188 327.011719 L 268.242188 481.515625 C 268.242188 487.609375 273.1875 492.550781 279.28125 492.550781 C 285.371094 492.550781 290.316406 487.609375 290.316406 481.515625 L 290.316406 327.011719 C 290.316406 320.917969 285.371094 315.972656 279.28125 315.972656 C 273.1875 315.972656 268.242188 320.917969 268.242188 327.011719 Z M 268.242188 327.011719 " fill-opacity="1" fill-rule="evenodd"/></g><g clip-path="url(#d77aec417e)"><path fill="#f5c022" d="M 279.28125 455.765625 L 562.539062 455.765625 C 562.539062 455.765625 562.539062 481.515625 562.539062 481.515625 C 562.539062 487.609375 567.484375 492.550781 573.578125 492.550781 C 579.667969 492.550781 584.613281 487.609375 584.613281 481.515625 L 584.613281 444.730469 C 584.613281 438.636719 579.667969 433.691406 573.578125 433.691406 L 279.28125 433.691406 C 273.1875 433.691406 268.242188 438.636719 268.242188 444.730469 C 268.242188 450.820312 273.1875 455.765625 279.28125 455.765625 Z M 279.28125 455.765625 " fill-opacity="1" fill-rule="evenodd"/></g><path fill="#f5c022" d="M 584.613281 400.585938 C 584.613281 370.109375 559.90625 345.402344 529.433594 345.402344 C 477.136719 345.402344 397 345.402344 397 345.402344 C 390.90625 345.402344 385.960938 350.347656 385.960938 356.441406 L 385.960938 444.730469 C 385.960938 450.820312 390.90625 455.765625 397 455.765625 L 573.578125 455.765625 C 579.667969 455.765625 584.613281 450.820312 584.613281 444.730469 Z M 584.613281 400.585938 " fill-opacity="1" fill-rule="evenodd"/><path fill="#f5c022" d="M 378.605469 385.871094 C 378.605469 387.195312 378.539062 388.515625 378.410156 389.835938 C 378.28125 391.15625 378.085938 392.464844 377.828125 393.765625 C 377.570312 395.0625 377.246094 396.347656 376.863281 397.617188 C 376.476562 398.882812 376.03125 400.132812 375.523438 401.355469 C 375.019531 402.578125 374.453125 403.777344 373.828125 404.945312 C 373.203125 406.113281 372.523438 407.25 371.785156 408.351562 C 371.050781 409.453125 370.261719 410.515625 369.417969 411.539062 C 368.578125 412.566406 367.691406 413.546875 366.753906 414.484375 C 365.816406 415.421875 364.835938 416.308594 363.8125 417.148438 C 362.785156 417.992188 361.722656 418.78125 360.621094 419.515625 C 359.519531 420.253906 358.382812 420.933594 357.214844 421.558594 C 356.046875 422.183594 354.847656 422.75 353.625 423.253906 C 352.402344 423.761719 351.152344 424.207031 349.886719 424.59375 C 348.617188 424.976562 347.332031 425.300781 346.035156 425.558594 C 344.734375 425.816406 343.425781 426.011719 342.105469 426.140625 C 340.785156 426.269531 339.464844 426.335938 338.140625 426.335938 C 336.8125 426.335938 335.492188 426.269531 334.171875 426.140625 C 332.855469 426.011719 331.542969 425.816406 330.246094 425.558594 C 328.945312 425.300781 327.660156 424.976562 326.394531 424.59375 C 325.125 424.207031 323.878906 423.761719 322.652344 423.253906 C 321.429688 422.75 320.234375 422.183594 319.0625 421.558594 C 317.894531 420.933594 316.757812 420.253906 315.65625 419.515625 C 314.554688 418.78125 313.492188 417.992188 312.46875 417.148438 C 311.445312 416.308594 310.460938 415.421875 309.527344 414.484375 C 308.589844 413.546875 307.699219 412.566406 306.859375 411.539062 C 306.019531 410.515625 305.230469 409.453125 304.492188 408.351562 C 303.757812 407.25 303.078125 406.113281 302.453125 404.945312 C 301.828125 403.777344 301.261719 402.578125 300.753906 401.355469 C 300.246094 400.132812 299.800781 398.882812 299.414062 397.617188 C 299.03125 396.347656 298.710938 395.0625 298.449219 393.765625 C 298.191406 392.464844 298 391.15625 297.867188 389.835938 C 297.738281 388.515625 297.671875 387.195312 297.671875 385.871094 C 297.671875 384.542969 297.738281 383.222656 297.867188 381.902344 C 298 380.585938 298.191406 379.273438 298.449219 377.976562 C 298.710938 376.675781 299.03125 375.390625 299.414062 374.125 C 299.800781 372.855469 300.246094 371.609375 300.753906 370.382812 C 301.261719 369.160156 301.828125 367.964844 302.453125 366.792969 C 303.078125 365.625 303.757812 364.488281 304.492188 363.386719 C 305.230469 362.285156 306.019531 361.222656 306.859375 360.199219 C 307.699219 359.175781 308.589844 358.191406 309.527344 357.257812 C 310.460938 356.320312 311.445312 355.429688 312.46875 354.589844 C 313.492188 353.75 314.554688 352.960938 315.65625 352.222656 C 316.757812 351.488281 317.894531 350.808594 319.0625 350.183594 C 320.234375 349.558594 321.429688 348.992188 322.652344 348.484375 C 323.878906 347.976562 325.125 347.53125 326.394531 347.144531 C 327.660156 346.761719 328.945312 346.441406 330.246094 346.179688 C 331.542969 345.921875 332.855469 345.730469 334.171875 345.597656 C 335.492188 345.46875 336.8125 345.402344 338.140625 345.402344 C 339.464844 345.402344 340.785156 345.46875 342.105469 345.597656 C 343.425781 345.730469 344.734375 345.921875 346.035156 346.179688 C 347.332031 346.441406 348.617188 346.761719 349.886719 347.144531 C 351.152344 347.53125 352.402344 347.976562 353.625 348.484375 C 354.847656 348.992188 356.046875 349.558594 357.214844 350.183594 C 358.382812 350.808594 359.519531 351.488281 360.621094 352.222656 C 361.722656 352.960938 362.785156 353.75 363.8125 354.589844 C 364.835938 355.429688 365.816406 356.320312 366.753906 357.257812 C 367.691406 358.191406 368.578125 359.175781 369.417969 360.199219 C 370.261719 361.222656 371.050781 362.285156 371.785156 363.386719 C 372.523438 364.488281 373.203125 365.625 373.828125 366.792969 C 374.453125 367.964844 375.019531 369.160156 375.523438 370.382812 C 376.03125 371.609375 376.476562 372.855469 376.863281 374.125 C 377.246094 375.390625 377.570312 376.675781 377.828125 377.976562 C 378.085938 379.273438 378.28125 380.585938 378.410156 381.902344 C 378.539062 383.222656 378.605469 384.542969 378.605469 385.871094 Z M 378.605469 385.871094 " fill-opacity="1" fill-rule="nonzero"/></svg>