<svg xmlns="http://www.w3.org/2000/svg" xmlns:xlink="http://www.w3.org/1999/xlink" width="1080" zoomAndPan="magnify" viewBox="0 0 810 809.999993" height="1080" preserveAspectRatio="xMidYMid meet" version="1.0"><defs><filter x="0%" y="0%" width="100%" height="100%" id="3eab2c59a9"><feColorMatrix values="0 0 0 0 1 0 0 0 0 1 0 0 0 0 1 0 0 0 1 0" color-interpolation-filters="sRGB"/></filter><mask id="37e56f5236"><g filter="url(#3eab2c59a9)"><rect x="-81" width="972" fill="#000000" y="-80.999999" height="971.999992" fill-opacity="0.8"/></g></mask><clipPath id="bb262cad48"><path d="M 0.746094 0.746094 L 445.359375 0.746094 L 445.359375 445.359375 L 0.746094 445.359375 Z M 0.746094 0.746094 " clip-rule="nonzero"/></clipPath><clipPath id="01fb500378"><rect x="0" width="446" y="0" height="446"/></clipPath><clipPath id="a940df14c9"><path d="M 224.023438 297 L 586 297 L 586 512.867188 L 224.023438 512.867188 Z M 224.023438 297 " clip-rule="nonzero"/></clipPath></defs><g mask="url(#37e56f5236)"><g transform="matrix(1, 0, 0, 1, 182, 182)"><g clip-path="url(#01fb500378)"><g clip-path="url(#bb262cad48)"><path fill="#0b656a" d="M 222.996094 445.25 C 100.757812 445.25 0.746094 345.234375 0.746094 222.996094 C 0.746094 100.757812 100.757812 0.746094 222.996094 0.746094 C 345.234375 0.746094 445.25 100.757812 445.25 222.996094 C 445.25 345.234375 345.234375 445.25 222.996094 445.25 Z M 222.996094 445.25 " fill-opacity="1" fill-rule="nonzero"/></g></g></g></g><g clip-path="url(#a940df14c9)"><path fill="#f5c022" d="M 585.898438 440.023438 C 585.9375 439.785156 585.914062 439.550781 585.898438 439.3125 C 585.886719 439.078125 585.886719 438.84375 585.828125 438.613281 C 585.769531 438.375 585.660156 438.171875 585.5625 437.953125 C 585.460938 437.734375 585.371094 437.527344 585.230469 437.328125 C 585.085938 437.125 584.894531 436.96875 584.707031 436.796875 C 584.570312 436.675781 584.476562 436.515625 584.320312 436.40625 C 583.285156 435.703125 559.679688 420.042969 527.605469 414.195312 C 539.132812 383.988281 537.945312 355.664062 537.863281 353.9375 C 537.851562 353.726562 537.757812 353.550781 537.71875 353.347656 C 537.671875 353.132812 537.640625 352.917969 537.5625 352.71875 C 537.445312 352.433594 537.277344 352.195312 537.101562 351.953125 C 537.003906 351.820312 536.925781 351.679688 536.816406 351.5625 C 536.589844 351.332031 536.335938 351.160156 536.058594 350.992188 C 535.921875 350.910156 535.800781 350.8125 535.652344 350.746094 C 535.394531 350.632812 535.109375 350.585938 534.824219 350.53125 C 534.65625 350.5 534.511719 350.417969 534.335938 350.40625 C 532.414062 350.308594 488.257812 348.242188 450.945312 372.167969 C 441.417969 329.300781 409.109375 299.578125 407.503906 298.128906 C 407.355469 297.992188 407.171875 297.941406 407.007812 297.832031 C 406.800781 297.699219 406.613281 297.554688 406.386719 297.464844 C 406.160156 297.371094 405.933594 297.335938 405.699219 297.292969 C 405.464844 297.246094 405.238281 297.191406 405 297.191406 C 404.761719 297.191406 404.539062 297.246094 404.300781 297.292969 C 404.066406 297.335938 403.835938 297.371094 403.613281 297.464844 C 403.386719 297.554688 403.195312 297.699219 402.988281 297.832031 C 402.828125 297.9375 402.644531 297.992188 402.496094 298.125 C 400.890625 299.578125 368.539062 329.335938 359.039062 372.242188 C 321.757812 348.417969 277.609375 350.285156 275.679688 350.398438 C 275.542969 350.40625 275.429688 350.476562 275.296875 350.496094 C 274.949219 350.542969 274.621094 350.601562 274.3125 350.746094 C 274.222656 350.785156 274.152344 350.84375 274.070312 350.894531 C 273.742188 351.078125 273.4375 351.28125 273.179688 351.558594 C 273.078125 351.667969 273.007812 351.792969 272.921875 351.917969 C 272.738281 352.167969 272.566406 352.410156 272.445312 352.699219 C 272.355469 352.914062 272.328125 353.144531 272.277344 353.371094 C 272.238281 353.566406 272.148438 353.738281 272.136719 353.9375 C 272.050781 355.667969 270.863281 384.046875 282.425781 414.289062 C 250.332031 420.132812 226.699219 435.8125 225.664062 436.511719 C 225.503906 436.621094 225.410156 436.78125 225.273438 436.90625 C 225.089844 437.074219 224.902344 437.230469 224.753906 437.433594 C 224.609375 437.628906 224.519531 437.847656 224.417969 438.066406 C 224.324219 438.285156 224.214844 438.480469 224.160156 438.710938 C 224.097656 438.949219 224.097656 439.1875 224.085938 439.429688 C 224.074219 439.664062 224.054688 439.886719 224.085938 440.121094 C 224.125 440.371094 224.222656 440.609375 224.308594 440.851562 C 224.371094 441.023438 224.375 441.203125 224.464844 441.371094 C 225.660156 443.609375 254.46875 496.269531 307.980469 509.523438 C 315.9375 511.488281 324.003906 512.476562 332.171875 512.476562 C 355.765625 512.476562 380.191406 504.199219 405.070312 487.871094 C 429.902344 504.136719 454.269531 512.378906 477.820312 512.378906 C 485.984375 512.378906 494.058594 511.390625 502.007812 509.425781 C 555.515625 496.171875 584.324219 443.507812 585.519531 441.269531 C 585.609375 441.101562 585.617188 440.917969 585.683594 440.742188 C 585.769531 440.496094 585.867188 440.269531 585.898438 440.023438 Z M 530.445312 357.792969 C 530.347656 370.953125 527.726562 418.710938 496.222656 450.183594 C 476.496094 469.878906 448.957031 479.765625 414.355469 479.722656 C 440.378906 453.816406 453.585938 425.542969 453.585938 395.570312 C 453.585938 390.277344 453.171875 385.125 452.433594 380.121094 C 482.433594 359.679688 519.128906 357.839844 530.445312 357.792969 Z M 405.003906 306.109375 C 413.082031 314.3125 438.386719 342.507812 444.675781 379.15625 C 444.683594 379.199219 444.6875 379.242188 444.699219 379.289062 C 445.597656 384.578125 446.128906 390.023438 446.125 395.625 C 446.105469 425.023438 432.25 452.839844 405.003906 478.378906 C 377.761719 452.839844 363.902344 425.023438 363.882812 395.625 C 363.863281 351.121094 395.75 315.5 405.003906 306.109375 Z M 357.5625 380.203125 C 356.832031 385.183594 356.425781 390.308594 356.425781 395.574219 C 356.425781 425.546875 369.636719 453.820312 395.65625 479.730469 C 361.035156 479.78125 333.515625 469.890625 313.789062 450.191406 C 282.296875 418.734375 279.664062 370.992188 279.566406 357.808594 C 290.890625 357.882812 327.535156 359.8125 357.5625 380.203125 Z M 309.832031 502.28125 C 266.617188 491.609375 239.707031 452.078125 232.820312 440.847656 C 240.136719 436.492188 260.351562 425.605469 285.375 421.351562 C 290.695312 433.207031 298.105469 445.058594 308.46875 455.425781 C 328.957031 475.910156 357.046875 486.542969 392.058594 487.164062 C 363.554688 503.628906 335.941406 508.734375 309.832031 502.28125 Z M 500.222656 502.175781 C 474.144531 508.632812 446.566406 503.566406 418.089844 487.164062 C 453.035156 486.507812 481.078125 475.882812 501.539062 455.425781 C 511.925781 445.035156 519.34375 433.152344 524.667969 421.265625 C 549.621094 425.523438 569.847656 436.40625 577.175781 440.757812 C 570.304688 451.980469 543.46875 491.464844 500.222656 502.175781 Z M 500.222656 502.175781 " fill-opacity="1" fill-rule="nonzero"/></g></svg>