<svg xmlns="http://www.w3.org/2000/svg" xmlns:xlink="http://www.w3.org/1999/xlink" width="1080" zoomAndPan="magnify" viewBox="0 0 810 809.999993" height="1080" preserveAspectRatio="xMidYMid meet" version="1.0"><defs><filter x="0%" y="0%" width="100%" height="100%" id="26244a3e5c"><feColorMatrix values="0 0 0 0 1 0 0 0 0 1 0 0 0 0 1 0 0 0 1 0" color-interpolation-filters="sRGB"/></filter><mask id="dac5e7afed"><g filter="url(#26244a3e5c)"><rect x="-81" width="972" fill="#000000" y="-80.999999" height="971.999992" fill-opacity="0.8"/></g></mask><clipPath id="a86cb36807"><path d="M 0.746094 0.746094 L 445.359375 0.746094 L 445.359375 445.359375 L 0.746094 445.359375 Z M 0.746094 0.746094 " clip-rule="nonzero"/></clipPath><clipPath id="d3f4ec5af9"><rect x="0" width="446" y="0" height="446"/></clipPath></defs><g mask="url(#dac5e7afed)"><g transform="matrix(1, 0, 0, 1, 182, 182)"><g clip-path="url(#d3f4ec5af9)"><g clip-path="url(#a86cb36807)"><path fill="#0b656a" d="M 222.996094 445.25 C 100.757812 445.25 0.746094 345.234375 0.746094 222.996094 C 0.746094 100.757812 100.757812 0.746094 222.996094 0.746094 C 345.234375 0.746094 445.25 100.757812 445.25 222.996094 C 445.25 345.234375 345.234375 445.25 222.996094 445.25 Z M 222.996094 445.25 " fill-opacity="1" fill-rule="nonzero"/></g></g></g></g><path fill="#f5c022" d="M 334.589844 428.46875 C 334.589844 441.121094 324.34375 451.367188 311.691406 451.367188 C 299.042969 451.367188 288.796875 441.121094 288.796875 428.46875 C 288.796875 415.820312 299.042969 405.574219 311.691406 405.574219 C 324.34375 405.574219 334.589844 415.820312 334.589844 428.46875 Z M 334.589844 428.46875 " fill-opacity="1" fill-rule="nonzero"/><path fill="#f5c022" d="M 426.179688 428.46875 C 426.179688 434.800781 421.050781 439.917969 414.730469 439.917969 L 368.9375 439.917969 C 362.617188 439.917969 357.488281 434.800781 357.488281 428.46875 C 357.488281 422.140625 362.617188 417.019531 368.9375 417.019531 L 414.730469 417.019531 C 421.050781 417.019531 426.179688 422.140625 426.179688 428.46875 Z M 426.179688 428.46875 " fill-opacity="1" fill-rule="nonzero"/><path fill="#f5c022" d="M 522.683594 246.378906 C 519.132812 244.707031 515 244.96875 511.679688 247.074219 C 508.371094 249.171875 506.367188 252.824219 506.367188 256.738281 L 506.367188 306.90625 L 494.917969 312.632812 L 483.46875 306.90625 L 483.46875 256.738281 C 483.46875 252.824219 481.464844 249.171875 478.15625 247.074219 C 474.847656 244.96875 470.679688 244.707031 467.15625 246.378906 C 447.453125 255.640625 433.714844 271.746094 428.539062 291.085938 L 334.339844 291.085938 C 315.996094 291.085938 299.476562 301.984375 292.253906 318.835938 L 267.433594 376.765625 C 252.972656 384.472656 243 399.527344 243 417.019531 L 243 439.917969 C 243 456.792969 252.273438 471.402344 265.898438 479.347656 L 265.898438 520.058594 C 265.898438 532.6875 276.167969 542.957031 288.796875 542.957031 L 334.589844 542.957031 C 347.21875 542.957031 357.488281 532.6875 357.488281 520.058594 L 357.488281 485.714844 L 449.125 485.714844 L 449.125 520.058594 C 449.125 545.316406 469.664062 565.855469 494.917969 565.855469 C 520.175781 565.855469 540.714844 545.316406 540.714844 520.058594 L 540.714844 359.445312 C 556.582031 346.269531 567.046875 321.5625 562.671875 296.546875 C 558.824219 274.507812 544.628906 256.691406 522.683594 246.378906 Z M 313.296875 327.859375 C 316.914062 319.433594 325.167969 313.980469 334.339844 313.980469 L 426.445312 313.980469 C 427.964844 332.378906 437.664062 349.863281 449.113281 359.445312 L 449.113281 371.226562 L 294.714844 371.226562 Z M 334.601562 520.058594 L 288.796875 520.058594 L 288.796875 485.714844 L 334.589844 485.714844 Z M 288.796875 462.816406 C 276.167969 462.816406 265.898438 452.546875 265.898438 439.917969 L 265.898438 417.019531 C 265.898438 404.394531 276.167969 394.125 288.796875 394.125 L 449.125 394.125 L 449.125 462.816406 C 389.554688 462.816406 349.027344 462.816406 288.796875 462.816406 Z M 522.371094 344.6875 C 519.511719 346.851562 517.816406 350.230469 517.816406 353.824219 L 517.816406 520.058594 C 517.816406 532.6875 507.546875 542.957031 494.917969 542.957031 C 482.289062 542.957031 472.019531 532.6875 472.019531 520.058594 C 472.019531 467.328125 472.019531 476.933594 472.019531 353.824219 C 472.019531 349.359375 469.238281 345.339844 466.546875 344 C 453.945312 334.53125 447.863281 318.585938 449.398438 303.703125 C 450.441406 293.730469 454.308594 285.625 460.574219 278.824219 L 460.574219 313.980469 C 460.574219 318.320312 463.023438 322.28125 466.902344 324.230469 L 489.800781 335.679688 C 493.019531 337.292969 496.820312 337.292969 500.046875 335.679688 L 522.945312 324.230469 C 526.816406 322.28125 529.265625 318.320312 529.265625 313.980469 L 529.265625 278.777344 C 534.953125 284.902344 538.675781 292.277344 540.117188 300.484375 C 542.785156 315.769531 537.382812 333.445312 522.371094 344.6875 Z M 522.371094 344.6875 " fill-opacity="1" fill-rule="nonzero"/><path fill="#f5c022" d="M 506.425781 520.058594 C 506.425781 526.378906 501.296875 531.507812 494.976562 531.507812 C 488.65625 531.507812 483.527344 526.378906 483.527344 520.058594 C 483.527344 513.742188 488.65625 508.609375 494.976562 508.609375 C 501.296875 508.609375 506.425781 513.742188 506.425781 520.058594 Z M 506.425781 520.058594 " fill-opacity="1" fill-rule="nonzero"/></svg>