<svg xmlns="http://www.w3.org/2000/svg" xmlns:xlink="http://www.w3.org/1999/xlink" width="1080" zoomAndPan="magnify" viewBox="0 0 810 809.999993" height="1080" preserveAspectRatio="xMidYMid meet" version="1.0"><defs><filter x="0%" y="0%" width="100%" height="100%" id="2371c3347e"><feColorMatrix values="0 0 0 0 1 0 0 0 0 1 0 0 0 0 1 0 0 0 1 0" color-interpolation-filters="sRGB"/></filter><mask id="b7019515ac"><g filter="url(#2371c3347e)"><rect x="-81" width="972" fill="#000000" y="-80.999999" height="971.999992" fill-opacity="0.8"/></g></mask><clipPath id="20fddd9894"><path d="M 0.746094 0.746094 L 445.359375 0.746094 L 445.359375 445.359375 L 0.746094 445.359375 Z M 0.746094 0.746094 " clip-rule="nonzero"/></clipPath><clipPath id="65f7e54b9c"><rect x="0" width="446" y="0" height="446"/></clipPath><clipPath id="36f318e533"><path d="M 233 239.070312 L 561 239.070312 L 561 572.820312 L 233 572.820312 Z M 233 239.070312 " clip-rule="nonzero"/></clipPath></defs><g mask="url(#b7019515ac)"><g transform="matrix(1, 0, 0, 1, 182, 182)"><g clip-path="url(#65f7e54b9c)"><g clip-path="url(#20fddd9894)"><path fill="#0b656a" d="M 222.996094 445.25 C 100.757812 445.25 0.746094 345.234375 0.746094 222.996094 C 0.746094 100.757812 100.757812 0.746094 222.996094 0.746094 C 345.234375 0.746094 445.25 100.757812 445.25 222.996094 C 445.25 345.234375 345.234375 445.25 222.996094 445.25 Z M 222.996094 445.25 " fill-opacity="1" fill-rule="nonzero"/></g></g></g></g><path fill="#f5c022" d="M 307.871094 445.554688 C 305.886719 443.222656 302.375 442.941406 300.035156 444.9375 L 273.808594 467.3125 C 268.070312 472.203125 267.382812 480.84375 272.277344 486.578125 L 316.539062 538.460938 C 318.953125 541.28125 322.460938 542.902344 326.175781 542.902344 C 329.179688 542.902344 332.097656 541.824219 334.390625 539.871094 L 341.65625 533.671875 C 354.867188 522.398438 356.445312 502.484375 345.171875 489.273438 Z M 334.4375 525.21875 L 327.179688 531.414062 C 326.816406 531.722656 326.433594 531.785156 326.175781 531.785156 C 325.90625 531.785156 325.398438 531.714844 324.996094 531.246094 L 280.734375 479.367188 C 279.820312 478.296875 279.945312 476.6875 281.019531 475.773438 L 303.023438 457 L 336.71875 496.488281 C 344.011719 505.035156 342.984375 517.925781 334.4375 525.21875 Z M 334.4375 525.21875 " fill-opacity="1" fill-rule="nonzero"/><g clip-path="url(#36f318e533)"><path fill="#f5c022" d="M 454.371094 408.269531 C 454.125 408.050781 453.839844 407.890625 453.585938 407.6875 L 452.324219 398.707031 L 469.761719 400.957031 C 471.492188 401.1875 473.210938 400.589844 474.425781 399.355469 C 475.648438 398.121094 476.222656 396.390625 475.980469 394.675781 L 473.535156 377.25 L 490.984375 379.480469 C 492.691406 379.683594 494.425781 379.101562 495.644531 377.867188 C 496.859375 376.636719 497.433594 374.90625 497.191406 373.191406 L 494.75 355.777344 L 512.1875 358.027344 C 513.929688 358.265625 515.636719 357.65625 516.851562 356.421875 C 518.070312 355.1875 518.648438 353.460938 518.40625 351.746094 L 515.960938 334.328125 L 533.402344 336.578125 C 535.148438 336.8125 536.847656 336.207031 538.066406 334.980469 C 539.285156 333.75 539.859375 332.019531 539.621094 330.304688 L 537.203125 312.84375 L 554.652344 315.09375 C 556.394531 315.332031 558.097656 314.722656 559.3125 313.496094 C 560.53125 312.261719 561.109375 310.535156 560.867188 308.820312 L 557.453125 284.148438 C 557.4375 284.035156 557.398438 283.933594 557.375 283.824219 C 557.332031 283.609375 557.289062 283.394531 557.222656 283.183594 C 557.164062 283.011719 557.089844 282.851562 557.015625 282.6875 C 556.945312 282.523438 556.882812 282.363281 556.792969 282.207031 C 556.683594 282.007812 556.550781 281.824219 556.417969 281.644531 C 556.355469 281.558594 556.3125 281.464844 556.246094 281.382812 L 523.222656 241.210938 C 522.273438 240.058594 520.902344 239.332031 519.414062 239.203125 C 517.933594 239.074219 516.453125 239.542969 515.316406 240.507812 L 381.886719 354.316406 L 358.019531 330.449219 L 365.976562 322.496094 C 371.019531 317.445312 372.285156 310.03125 369.777344 303.792969 C 373.355469 297.925781 380.28125 287.464844 385.28125 283.589844 C 389.910156 280.007812 409.371094 269.574219 416.480469 265.855469 C 418.050781 265.035156 419.132812 263.515625 419.398438 261.769531 C 419.667969 260.019531 419.085938 258.25 417.835938 257 L 410.957031 250.121094 C 409.71875 248.882812 407.988281 248.304688 406.242188 248.546875 C 405.140625 248.703125 379.128906 252.441406 366.3125 256.851562 C 355.101562 260.707031 342.820312 268.292969 337.566406 271.714844 C 335.585938 270.941406 333.46875 270.507812 331.28125 270.507812 C 326.660156 270.507812 322.316406 272.304688 319.050781 275.574219 L 277.035156 317.585938 C 271.140625 323.488281 270.402344 332.625 274.824219 339.332031 L 265.542969 348.613281 C 262.75 347.042969 259.625 346.128906 256.332031 346.128906 C 251.277344 346.128906 246.527344 348.097656 242.953125 351.671875 L 234.757812 359.867188 C 233.71875 360.910156 233.128906 362.324219 233.128906 363.796875 C 233.128906 365.269531 233.71875 366.6875 234.757812 367.726562 L 273.820312 406.789062 C 274.902344 407.871094 276.324219 408.414062 277.75 408.414062 C 279.171875 408.414062 280.59375 407.871094 281.679688 406.789062 L 289.871094 398.59375 C 295.984375 392.476562 296.949219 383.210938 292.925781 376.007812 L 302.214844 366.71875 C 305.015625 368.570312 308.292969 369.574219 311.730469 369.574219 C 316.347656 369.574219 320.691406 367.773438 323.957031 364.507812 L 331.914062 356.554688 L 353.734375 378.375 L 311.773438 414.164062 C 309.753906 413.253906 307.546875 412.753906 305.277344 412.753906 C 301.535156 412.753906 297.910156 414.089844 295.058594 416.523438 L 240.363281 463.1875 C 233.761719 468.828125 232.972656 478.785156 238.605469 485.390625 L 306.050781 564.4375 C 310.722656 569.914062 317.53125 573.054688 324.738281 573.054688 C 330.5625 573.054688 336.21875 570.96875 340.660156 567.183594 L 356.945312 553.28125 C 377.09375 536.097656 382.339844 507.90625 371.523438 485.039062 L 384.921875 486.746094 C 385.15625 486.777344 385.390625 486.789062 385.621094 486.789062 C 387.097656 486.789062 388.527344 486.199219 389.578125 485.136719 C 390.792969 483.90625 391.371094 482.175781 391.125 480.460938 L 388.683594 463.042969 L 406.125 465.296875 C 407.863281 465.53125 409.574219 464.925781 410.789062 463.695312 C 412.007812 462.460938 412.585938 460.730469 412.34375 459.015625 L 411.804688 455.199219 L 498.617188 551.589844 C 503.714844 556.6875 510.492188 559.496094 517.699219 559.496094 C 524.90625 559.496094 531.683594 556.691406 536.78125 551.589844 L 553.054688 535.316406 C 558.152344 530.21875 560.960938 523.445312 560.960938 516.238281 C 560.960938 509.027344 558.152344 502.25 552.84375 496.957031 Z M 518.226562 252.640625 L 546.660156 287.230469 L 548.863281 303.136719 L 531.410156 300.886719 C 529.679688 300.65625 527.964844 301.257812 526.75 302.488281 C 525.53125 303.71875 524.953125 305.445312 525.195312 307.160156 L 527.609375 324.621094 L 510.160156 322.371094 C 508.414062 322.136719 506.710938 322.742188 505.492188 323.972656 C 504.273438 325.207031 503.699219 326.9375 503.941406 328.652344 L 506.382812 346.070312 L 488.945312 343.820312 C 487.203125 343.585938 485.496094 344.1875 484.28125 345.421875 C 483.0625 346.65625 482.488281 348.386719 482.730469 350.101562 L 485.171875 367.527344 L 467.722656 365.300781 C 466.003906 365.082031 464.285156 365.675781 463.066406 366.910156 C 461.847656 368.140625 461.273438 369.871094 461.515625 371.585938 L 463.960938 389 L 446.519531 386.75 C 444.78125 386.503906 443.070312 387.121094 441.851562 388.355469 C 440.632812 389.589844 440.058594 391.316406 440.300781 393.035156 L 441.816406 403.808594 C 438.929688 403.929688 436.1875 404.75 433.742188 406.171875 L 389.773438 362.203125 Z M 369.925781 267.363281 C 378.761719 264.324219 395.429688 261.484375 403.375 260.226562 C 395.019531 264.726562 382.699219 271.53125 378.472656 274.804688 C 372.792969 279.203125 366.417969 288.332031 362.453125 294.523438 L 346.894531 278.960938 C 352.617188 275.417969 361.765625 270.171875 369.925781 267.363281 Z M 282.011719 390.734375 L 277.75 395 L 246.546875 363.796875 L 250.8125 359.535156 C 253.765625 356.589844 258.90625 356.589844 261.851562 359.535156 L 282.011719 379.695312 C 285.054688 382.738281 285.054688 387.691406 282.011719 390.734375 Z M 285.625 367.589844 L 273.957031 355.921875 L 282.4375 347.441406 L 294.105469 359.109375 Z M 316.097656 356.644531 C 313.769531 358.980469 309.695312 358.976562 307.363281 356.648438 L 305.894531 355.179688 L 286.367188 335.648438 C 286.363281 335.640625 286.355469 335.636719 286.347656 335.632812 L 284.898438 334.183594 C 282.492188 331.777344 282.492188 327.855469 284.898438 325.445312 L 326.910156 283.433594 C 328.078125 282.269531 329.628906 281.625 331.28125 281.625 C 332.929688 281.625 334.484375 282.269531 335.648438 283.433594 L 358.113281 305.898438 C 360.519531 308.304688 360.519531 312.226562 358.113281 314.636719 Z M 350.160156 338.308594 L 425.414062 413.5625 L 421.863281 417.113281 C 421.765625 417.203125 421.675781 417.292969 421.582031 417.390625 L 415.023438 423.949219 L 339.773438 348.695312 Z M 349.730469 544.824219 L 333.445312 558.726562 C 331.015625 560.796875 327.921875 561.9375 324.738281 561.9375 C 320.792969 561.9375 317.066406 560.21875 314.507812 557.222656 L 247.0625 478.171875 C 245.40625 476.230469 245.636719 473.300781 247.582031 471.640625 L 302.277344 424.976562 C 303.347656 424.0625 304.496094 423.871094 305.277344 423.871094 C 306.636719 423.871094 307.925781 424.464844 308.808594 425.496094 L 354.90625 479.527344 C 371.484375 498.957031 369.160156 528.25 349.730469 544.824219 Z M 399.425781 431.246094 C 398.207031 432.480469 397.632812 434.210938 397.875 435.929688 L 400.320312 453.339844 L 382.878906 451.089844 C 381.136719 450.851562 379.429688 451.457031 378.214844 452.691406 C 376.996094 453.921875 376.417969 455.65625 376.664062 457.371094 L 379.109375 474.796875 L 363.765625 472.839844 C 363.625 472.667969 363.503906 472.480469 363.359375 472.3125 L 320.132812 421.648438 L 361.621094 386.265625 L 405.136719 429.777344 L 404.089844 429.644531 C 402.34375 429.402344 400.640625 430.011719 399.425781 431.246094 Z M 545.195312 527.457031 L 528.921875 543.730469 C 525.921875 546.726562 521.9375 548.378906 517.699219 548.378906 C 513.457031 548.378906 509.472656 546.726562 506.675781 543.9375 L 418 445.464844 C 415.671875 442.875 415.773438 438.921875 418.234375 436.464844 L 436.078125 418.617188 C 436.085938 418.609375 436.089844 418.605469 436.097656 418.597656 L 437.929688 416.765625 C 439.164062 415.53125 440.804688 414.851562 442.554688 414.851562 C 444.171875 414.851562 445.726562 415.449219 446.929688 416.53125 L 545.195312 505.011719 C 548.195312 508.007812 549.84375 511.992188 549.84375 516.234375 C 549.84375 520.472656 548.191406 524.457031 545.195312 527.457031 Z M 545.195312 527.457031 " fill-opacity="1" fill-rule="nonzero"/></g></svg>