<svg xmlns="http://www.w3.org/2000/svg" xmlns:xlink="http://www.w3.org/1999/xlink" width="1080" zoomAndPan="magnify" viewBox="0 0 810 809.999993" height="1080" preserveAspectRatio="xMidYMid meet" version="1.0"><defs><filter x="0%" y="0%" width="100%" height="100%" id="12e64ff656"><feColorMatrix values="0 0 0 0 1 0 0 0 0 1 0 0 0 0 1 0 0 0 1 0" color-interpolation-filters="sRGB"/></filter><mask id="58ec9510bb"><g filter="url(#12e64ff656)"><rect x="-81" width="972" fill="#000000" y="-80.999999" height="971.999992" fill-opacity="0.8"/></g></mask><clipPath id="f9b3276d2c"><path d="M 0.746094 0.746094 L 445.359375 0.746094 L 445.359375 445.359375 L 0.746094 445.359375 Z M 0.746094 0.746094 " clip-rule="nonzero"/></clipPath><clipPath id="940bd5a720"><rect x="0" width="446" y="0" height="446"/></clipPath><clipPath id="2d11eb8a6f"><path d="M 387 363 L 568.664062 363 L 568.664062 567.496094 L 387 567.496094 Z M 387 363 " clip-rule="nonzero"/></clipPath><clipPath id="cece754848"><path d="M 269.414062 242.746094 L 413 242.746094 L 413 567.496094 L 269.414062 567.496094 Z M 269.414062 242.746094 " clip-rule="nonzero"/></clipPath></defs><g mask="url(#58ec9510bb)"><g transform="matrix(1, 0, 0, 1, 182, 182)"><g clip-path="url(#940bd5a720)"><g clip-path="url(#f9b3276d2c)"><path fill="#0b656a" d="M 222.996094 445.25 C 100.757812 445.25 0.746094 345.234375 0.746094 222.996094 C 0.746094 100.757812 100.757812 0.746094 222.996094 0.746094 C 345.234375 0.746094 445.25 100.757812 445.25 222.996094 C 445.25 345.234375 345.234375 445.25 222.996094 445.25 Z M 222.996094 445.25 " fill-opacity="1" fill-rule="nonzero"/></g></g></g></g><path fill="#f5c022" d="M 441.128906 360.789062 C 441.128906 353.0625 434.871094 346.804688 427.140625 346.804688 C 419.414062 346.804688 413.15625 353.0625 413.15625 360.789062 C 413.15625 368.519531 419.414062 374.773438 427.140625 374.773438 C 434.871094 374.773438 441.128906 368.519531 441.128906 360.789062 Z M 424.015625 360.789062 C 424.015625 359.132812 425.488281 357.664062 427.140625 357.664062 C 428.796875 357.664062 430.269531 359.132812 430.269531 360.789062 C 430.269531 362.445312 428.796875 363.917969 427.140625 363.917969 C 425.488281 363.917969 424.015625 362.445312 424.015625 360.789062 Z M 424.015625 360.789062 " fill-opacity="1" fill-rule="nonzero"/><path fill="#f5c022" d="M 528.347656 341.101562 C 528.347656 332.269531 521.082031 325 512.246094 325 C 503.414062 325 496.148438 332.269531 496.148438 341.101562 C 496.148438 349.933594 503.414062 357.203125 512.246094 357.203125 C 521.171875 357.203125 528.347656 350.210938 528.347656 341.101562 Z M 507.09375 341.101562 C 507.09375 338.25 509.488281 335.765625 512.433594 335.765625 C 515.285156 335.765625 517.769531 338.15625 517.769531 341.101562 C 517.769531 343.953125 515.375 346.4375 512.433594 346.4375 C 509.394531 346.4375 507.09375 344.136719 507.09375 341.101562 Z M 507.09375 341.101562 " fill-opacity="1" fill-rule="nonzero"/><g clip-path="url(#2d11eb8a6f)"><path fill="#f5c022" d="M 550.890625 407.34375 C 549.050781 394.464844 540.585938 383.148438 528.808594 377.71875 C 516.847656 372.199219 503.046875 372.933594 491.824219 379.835938 C 486.855469 368.886719 475.445312 362.171875 463.484375 363.089844 C 451.433594 364.011719 441.3125 372.382812 438.089844 383.976562 C 438 383.976562 437.90625 384.160156 437.722656 384.160156 C 424.015625 384.25 412.238281 394.003906 409.570312 407.4375 L 405.0625 407.4375 C 395.308594 407.4375 387.394531 414.980469 387.394531 424.734375 L 387.394531 433.933594 C 387.394531 434.027344 387.394531 434.304688 387.394531 434.394531 C 387.855469 454.726562 395.03125 474.140625 407.820312 489.78125 L 414.539062 549.585938 C 415.550781 559.613281 424.015625 567.25 434.042969 567.25 L 522 567.25 C 532.027344 567.25 540.585938 559.707031 541.503906 549.679688 L 548.222656 489.875 C 561.011719 474.234375 568.1875 454.636719 568.648438 434.578125 C 568.648438 434.394531 568.648438 434.117188 568.648438 433.933594 L 568.648438 424.734375 C 568.648438 420.132812 566.808594 415.71875 563.496094 412.40625 C 560.183594 409.09375 555.765625 407.34375 551.167969 407.4375 Z M 512.339844 384.988281 C 525.679688 384.894531 537.273438 394.371094 539.847656 407.4375 L 526.140625 407.4375 C 521.539062 407.34375 517.125 409.09375 513.8125 412.40625 C 510.5 415.71875 508.660156 420.042969 508.660156 424.734375 L 508.660156 454.085938 C 508.660156 454.453125 508.476562 454.636719 508.199219 454.726562 C 507.832031 454.910156 507.648438 455.097656 507.1875 454.910156 C 506.636719 454.820312 506.265625 454.359375 506.175781 453.714844 L 506.175781 424.550781 C 506.175781 420.042969 504.425781 415.535156 501.113281 412.222656 C 497.804688 408.910156 493.480469 407.160156 488.785156 407.253906 L 484.828125 407.253906 C 486.027344 401.179688 489.246094 395.753906 493.847656 391.796875 L 494.398438 391.796875 C 494.398438 391.796875 494.398438 391.429688 494.398438 391.335938 C 499.457031 387.195312 505.808594 384.988281 512.339844 384.988281 Z M 538.191406 485.273438 C 527.703125 497.050781 513.902344 505.605469 498.632812 509.5625 C 496.238281 506.710938 492.742188 505.148438 489.0625 505.148438 L 467.71875 505.148438 C 464.035156 505.148438 460.449219 506.804688 458.148438 509.5625 C 442.785156 505.515625 428.984375 497.050781 418.585938 485.183594 L 413.433594 439.179688 L 495.320312 439.179688 L 495.320312 453.625 C 495.320312 459.605469 499.734375 464.664062 505.714844 465.585938 C 506.265625 465.675781 506.910156 465.675781 507.464844 465.675781 C 510.316406 465.675781 513.074219 464.664062 515.285156 462.824219 C 517.859375 460.523438 519.332031 457.394531 519.515625 453.898438 L 519.515625 439.085938 L 543.4375 439.085938 Z M 490.71875 517.566406 C 490.71875 518.027344 490.535156 518.304688 490.167969 518.671875 C 489.796875 519.039062 489.523438 519.132812 488.96875 519.132812 L 467.625 519.132812 C 467.074219 519.132812 466.429688 518.949219 466.0625 518.488281 C 465.691406 518.027344 465.691406 517.382812 466.0625 516.925781 C 466.429688 516.464844 466.980469 516.1875 467.625 516.28125 L 488.96875 516.28125 C 489.429688 516.28125 489.890625 516.371094 490.167969 516.738281 C 490.535156 516.648438 490.71875 517.015625 490.71875 517.566406 Z M 437.816406 394.925781 C 441.496094 394.925781 445.082031 396.027344 448.121094 398.144531 C 450.511719 399.800781 454.007812 399.25 455.664062 396.671875 C 457.320312 394.097656 456.859375 390.96875 454.375 389.128906 C 452.71875 387.933594 450.878906 386.828125 448.855469 386 C 451.246094 378.457031 458.425781 373.394531 466.429688 373.761719 C 474.339844 374.132812 481.148438 379.652344 482.988281 387.378906 C 478.023438 392.992188 474.800781 399.894531 473.699219 407.34375 L 420.703125 407.34375 C 423.003906 399.894531 429.996094 394.742188 437.816406 394.925781 Z M 398.527344 424.550781 C 398.527344 420.777344 401.65625 418.109375 405.246094 418.109375 L 413.433594 418.109375 C 413.894531 418.109375 414.167969 418.203125 414.628906 418.203125 C 415.089844 418.203125 415.367188 418.109375 415.824219 418.109375 L 489.0625 418.109375 C 490.71875 418.019531 492.464844 418.660156 493.570312 419.859375 C 494.675781 421.054688 495.410156 422.710938 495.410156 424.367188 L 495.410156 428.046875 L 398.527344 428.046875 Z M 398.898438 439.179688 L 402.578125 439.179688 L 405.335938 464.390625 C 401.839844 456.382812 399.632812 447.734375 398.898438 439.179688 Z M 531.109375 548.390625 C 530.648438 552.804688 526.785156 556.300781 522.367188 556.300781 L 434.410156 556.300781 C 429.902344 556.300781 426.039062 552.898438 425.671875 548.390625 L 420.519531 502.109375 C 430.824219 510.484375 442.691406 516.648438 455.480469 519.960938 C 456.675781 525.664062 461.921875 529.898438 467.808594 529.898438 L 489.246094 529.898438 C 495.226562 529.988281 500.378906 525.847656 501.574219 519.960938 C 514.363281 516.554688 526.417969 510.484375 536.539062 501.925781 Z M 554.292969 439.179688 L 557.972656 439.179688 C 557.238281 447.917969 555.03125 456.476562 551.535156 464.574219 Z M 558.25 424.550781 L 558.25 428.230469 L 519.515625 428.230469 L 519.515625 424.550781 C 519.515625 420.777344 522.460938 418.109375 526.140625 418.109375 L 551.535156 418.109375 C 555.304688 418.203125 558.25 420.871094 558.25 424.550781 Z M 558.25 424.550781 " fill-opacity="1" fill-rule="nonzero"/></g><path fill="#f5c022" d="M 482.988281 452.335938 C 480.046875 452.335938 477.46875 454.726562 477.46875 457.855469 L 477.46875 475.707031 C 477.46875 478.648438 479.863281 481.132812 482.988281 481.132812 C 485.933594 481.132812 488.417969 478.742188 488.417969 475.707031 L 488.417969 457.855469 C 488.417969 454.726562 486.117188 452.335938 482.988281 452.335938 Z M 482.988281 452.335938 " fill-opacity="1" fill-rule="nonzero"/><path fill="#f5c022" d="M 511.695312 475.613281 C 508.75 475.613281 506.265625 478.003906 506.265625 481.042969 L 506.265625 494.289062 C 506.265625 497.234375 508.660156 499.71875 511.695312 499.71875 C 514.640625 499.71875 517.214844 497.328125 517.214844 494.289062 L 517.214844 481.042969 C 517.214844 478.003906 514.824219 475.613281 511.695312 475.613281 Z M 511.695312 475.613281 " fill-opacity="1" fill-rule="nonzero"/><g clip-path="url(#cece754848)"><path fill="#f5c022" d="M 275.058594 567.160156 L 406.992188 566.238281 C 408.558594 566.238281 410.214844 565.59375 411.226562 564.214844 C 412.238281 562.925781 412.699219 561.363281 412.328125 559.796875 L 404.785156 521.617188 C 405.429688 517.9375 404.601562 514.253906 402.207031 511.3125 C 399.816406 508.460938 396.320312 506.804688 392.730469 506.804688 L 376.078125 506.804688 C 375.527344 500.179688 369.914062 495.027344 363.199219 494.84375 L 363.105469 494.84375 L 346.636719 495.300781 L 346.636719 248.265625 C 346.636719 245.324219 344.246094 242.746094 341.117188 242.746094 C 338.171875 242.746094 335.6875 245.140625 335.6875 248.265625 L 335.6875 495.394531 L 318.023438 495.488281 C 311.308594 495.578125 305.695312 500.824219 305.234375 507.539062 L 288.582031 507.632812 C 285.085938 507.632812 281.496094 509.195312 279.199219 512.046875 C 276.898438 514.898438 275.886719 518.488281 276.527344 521.984375 L 269.90625 560.8125 C 269.535156 562.375 270.089844 564.03125 271.101562 565.226562 C 271.929688 566.421875 273.585938 567.160156 275.058594 567.160156 Z M 392.273438 555.566406 L 392.273438 546.089844 C 392.273438 543.144531 389.878906 540.570312 386.84375 540.570312 C 383.808594 540.570312 381.414062 542.960938 381.414062 546.089844 L 381.414062 555.660156 L 369.824219 555.75 L 369.824219 545.996094 C 369.824219 543.054688 367.429688 540.476562 364.394531 540.476562 C 361.359375 540.476562 358.964844 542.871094 358.964844 545.996094 L 358.964844 555.84375 L 346.636719 555.933594 L 346.636719 546.089844 C 346.636719 543.144531 344.246094 540.660156 341.210938 540.660156 C 338.171875 540.660156 335.6875 543.054688 335.6875 546.089844 L 335.6875 556.027344 L 323.359375 556.117188 L 323.359375 546.089844 C 323.359375 543.144531 320.96875 540.660156 317.933594 540.660156 C 314.988281 540.660156 312.503906 543.054688 312.503906 546.089844 L 312.503906 556.210938 L 300.910156 556.300781 L 300.910156 545.996094 C 300.910156 543.054688 298.519531 540.570312 295.480469 540.570312 C 292.445312 540.570312 290.054688 542.960938 290.054688 545.996094 L 290.054688 556.300781 L 281.867188 556.394531 L 285.914062 532.011719 C 286.832031 532.195312 287.660156 532.382812 288.582031 532.382812 L 288.675781 532.382812 L 392.917969 531.644531 C 393.835938 531.644531 394.757812 531.554688 395.675781 531.277344 L 400.277344 555.660156 Z M 288.582031 518.578125 L 310.664062 518.394531 C 313.609375 518.394531 316.089844 516.003906 316.089844 512.96875 L 316.089844 508.550781 C 316.089844 508 316.277344 507.449219 316.644531 506.988281 C 317.105469 506.527344 317.5625 506.34375 318.117188 506.34375 L 363.199219 505.882812 C 364.394531 505.976562 365.316406 506.894531 365.316406 508.089844 L 365.316406 512.507812 C 365.316406 514.070312 365.867188 515.359375 366.878906 516.371094 C 367.890625 517.382812 369.269531 517.9375 370.742188 517.9375 L 392.824219 517.566406 C 393.285156 517.566406 393.375 517.9375 393.558594 518.027344 C 393.746094 518.394531 393.929688 518.671875 393.929688 519.132812 C 393.929688 519.59375 393.929688 519.777344 393.746094 520.144531 C 393.558594 520.511719 393.191406 520.605469 392.824219 520.605469 L 288.675781 521.339844 C 287.9375 521.339844 287.203125 520.789062 287.203125 519.867188 C 287.109375 519.222656 287.660156 518.578125 288.582031 518.578125 Z M 288.582031 518.578125 " fill-opacity="1" fill-rule="nonzero"/></g></svg>