<svg xmlns="http://www.w3.org/2000/svg" xmlns:xlink="http://www.w3.org/1999/xlink" width="1080" zoomAndPan="magnify" viewBox="0 0 810 809.999993" height="1080" preserveAspectRatio="xMidYMid meet" version="1.0"><defs><filter x="0%" y="0%" width="100%" height="100%" id="d33d8c7fc0"><feColorMatrix values="0 0 0 0 1 0 0 0 0 1 0 0 0 0 1 0 0 0 1 0" color-interpolation-filters="sRGB"/></filter><mask id="1cd4b408ff"><g filter="url(#d33d8c7fc0)"><rect x="-81" width="972" fill="#000000" y="-80.999999" height="971.999992" fill-opacity="0.8"/></g></mask><clipPath id="1b9fe72c92"><path d="M 0.746094 0.863281 L 445.359375 0.863281 L 445.359375 445.441406 L 0.746094 445.441406 Z M 0.746094 0.863281 " clip-rule="nonzero"/></clipPath><clipPath id="6b86afd20b"><rect x="0" width="446" y="0" height="446"/></clipPath><clipPath id="e788d86c74"><path d="M 243 295.246094 L 567 295.246094 L 567 514 L 243 514 Z M 243 295.246094 " clip-rule="nonzero"/></clipPath></defs><g mask="url(#1cd4b408ff)"><g transform="matrix(1, 0, 0, 1, 182, 198)"><g clip-path="url(#6b86afd20b)"><g clip-path="url(#1b9fe72c92)"><path fill="#0b656a" d="M 222.996094 445.367188 C 100.757812 445.367188 0.746094 345.355469 0.746094 223.117188 C 0.746094 100.878906 100.757812 0.863281 222.996094 0.863281 C 345.234375 0.863281 445.25 100.878906 445.25 223.117188 C 445.25 345.355469 345.234375 445.367188 222.996094 445.367188 Z M 222.996094 445.367188 " fill-opacity="1" fill-rule="nonzero"/></g></g></g></g><g clip-path="url(#e788d86c74)"><path fill="#f5c022" d="M 545.242188 447.863281 C 545.242188 410.742188 530.851562 377.007812 507.371094 351.867188 L 483.71875 433.269531 C 483.289062 434.746094 481.9375 435.703125 480.476562 435.703125 C 480.164062 435.703125 479.847656 435.660156 479.535156 435.574219 C 477.742188 435.050781 476.714844 433.179688 477.230469 431.390625 L 501.929688 346.367188 C 484.652344 329.78125 463.175781 317.546875 439.226562 311.46875 L 430.976562 394.238281 C 430.738281 403.15625 422.378906 410.355469 412.140625 410.355469 L 399.273438 410.355469 C 389.035156 410.355469 380.675781 403.15625 380.441406 394.238281 L 372.140625 310.9375 C 348.125 316.59375 326.484375 328.390625 308.972656 344.601562 L 334.183594 431.390625 C 334.707031 433.179688 333.671875 435.054688 331.878906 435.574219 C 331.570312 435.660156 331.253906 435.703125 330.941406 435.703125 C 329.476562 435.703125 328.128906 434.746094 327.695312 433.269531 L 303.496094 349.964844 C 278.949219 375.292969 263.816406 409.804688 263.816406 447.863281 L 263.816406 465.625 L 545.246094 465.625 L 545.246094 447.863281 Z M 399.273438 403.601562 L 412.140625 403.601562 C 418.816406 403.601562 424.230469 399.238281 424.230469 393.851562 L 433.050781 305.382812 C 433.050781 300 427.636719 295.640625 420.960938 295.640625 L 390.453125 295.640625 C 383.777344 295.640625 378.363281 300 378.363281 305.382812 L 387.183594 393.851562 C 387.183594 399.238281 392.597656 403.601562 399.273438 403.601562 Z M 546.1875 472.375 L 263.8125 472.375 C 252.316406 472.375 243 481.691406 243 493.183594 C 243 504.671875 252.316406 513.996094 263.8125 513.996094 L 546.1875 513.996094 C 557.683594 513.996094 567 504.671875 567 493.183594 C 567 481.691406 557.683594 472.375 546.1875 472.375 Z M 546.1875 472.375 " fill-opacity="1" fill-rule="nonzero"/></g></svg>