<svg xmlns="http://www.w3.org/2000/svg" xmlns:xlink="http://www.w3.org/1999/xlink" width="1080" zoomAndPan="magnify" viewBox="0 0 810 809.999993" height="1080" preserveAspectRatio="xMidYMid meet" version="1.0"><defs><filter x="0%" y="0%" width="100%" height="100%" id="7b4d7f315b"><feColorMatrix values="0 0 0 0 1 0 0 0 0 1 0 0 0 0 1 0 0 0 1 0" color-interpolation-filters="sRGB"/></filter><mask id="02de08e061"><g filter="url(#7b4d7f315b)"><rect x="-81" width="972" fill="#000000" y="-80.999999" height="971.999992" fill-opacity="0.8"/></g></mask><clipPath id="3b4f7f831d"><path d="M 0.746094 0.746094 L 445.359375 0.746094 L 445.359375 445.359375 L 0.746094 445.359375 Z M 0.746094 0.746094 " clip-rule="nonzero"/></clipPath><clipPath id="26b418bba7"><rect x="0" width="446" y="0" height="446"/></clipPath><clipPath id="370ca64bfc"><path d="M 307 499 L 318 499 L 318 556.824219 L 307 556.824219 Z M 307 499 " clip-rule="nonzero"/></clipPath><clipPath id="391f926ebb"><path d="M 253.074219 253.074219 L 478 253.074219 L 478 556.824219 L 253.074219 556.824219 Z M 253.074219 253.074219 " clip-rule="nonzero"/></clipPath><clipPath id="efbb296aa6"><path d="M 492 499 L 503 499 L 503 556.824219 L 492 556.824219 Z M 492 499 " clip-rule="nonzero"/></clipPath><clipPath id="f84c67acb2"><path d="M 253.074219 319 L 292 319 L 292 358 L 253.074219 358 Z M 253.074219 319 " clip-rule="nonzero"/></clipPath><clipPath id="b04c8dbd45"><path d="M 539 392 L 556.824219 392 L 556.824219 556.824219 L 539 556.824219 Z M 539 392 " clip-rule="nonzero"/></clipPath></defs><g mask="url(#02de08e061)"><g transform="matrix(1, 0, 0, 1, 182, 182)"><g clip-path="url(#26b418bba7)"><g clip-path="url(#3b4f7f831d)"><path fill="#0b656a" d="M 222.996094 445.25 C 100.757812 445.25 0.746094 345.234375 0.746094 222.996094 C 0.746094 100.757812 100.757812 0.746094 222.996094 0.746094 C 345.234375 0.746094 445.25 100.757812 445.25 222.996094 C 445.25 345.234375 345.234375 445.25 222.996094 445.25 Z M 222.996094 445.25 " fill-opacity="1" fill-rule="nonzero"/></g></g></g></g><path fill="#f5c022" d="M 409.859375 416.738281 C 409.859375 417.046875 409.828125 417.355469 409.769531 417.664062 C 409.707031 417.96875 409.617188 418.265625 409.496094 418.550781 C 409.378906 418.839844 409.234375 419.113281 409.058594 419.371094 C 408.886719 419.632812 408.691406 419.871094 408.46875 420.089844 C 408.25 420.3125 408.007812 420.507812 407.75 420.679688 C 407.492188 420.855469 407.21875 421 406.929688 421.121094 C 406.644531 421.238281 406.347656 421.328125 406.039062 421.390625 C 405.734375 421.449219 405.425781 421.480469 405.113281 421.480469 C 404.804688 421.480469 404.496094 421.449219 404.191406 421.390625 C 403.882812 421.328125 403.585938 421.238281 403.300781 421.121094 C 403.011719 421 402.738281 420.855469 402.480469 420.679688 C 402.21875 420.507812 401.980469 420.3125 401.761719 420.089844 C 401.539062 419.871094 401.34375 419.632812 401.171875 419.371094 C 400.996094 419.113281 400.851562 418.839844 400.730469 418.550781 C 400.613281 418.265625 400.523438 417.96875 400.460938 417.664062 C 400.402344 417.355469 400.371094 417.046875 400.371094 416.738281 C 400.371094 416.425781 400.402344 416.117188 400.460938 415.8125 C 400.523438 415.507812 400.613281 415.210938 400.730469 414.921875 C 400.851562 414.632812 400.996094 414.359375 401.171875 414.101562 C 401.34375 413.84375 401.539062 413.601562 401.761719 413.382812 C 401.980469 413.164062 402.21875 412.964844 402.480469 412.792969 C 402.738281 412.621094 403.011719 412.472656 403.300781 412.355469 C 403.585938 412.234375 403.882812 412.144531 404.191406 412.085938 C 404.496094 412.023438 404.804688 411.992188 405.113281 411.992188 C 405.425781 411.992188 405.734375 412.023438 406.039062 412.085938 C 406.347656 412.144531 406.644531 412.234375 406.929688 412.355469 C 407.21875 412.472656 407.492188 412.621094 407.75 412.792969 C 408.007812 412.964844 408.25 413.164062 408.46875 413.382812 C 408.691406 413.601562 408.886719 413.84375 409.058594 414.101562 C 409.234375 414.359375 409.378906 414.632812 409.496094 414.921875 C 409.617188 415.210938 409.707031 415.507812 409.769531 415.8125 C 409.828125 416.117188 409.859375 416.425781 409.859375 416.738281 Z M 409.859375 416.738281 " fill-opacity="1" fill-rule="nonzero"/><path fill="#f5c022" d="M 409.859375 435.710938 C 409.859375 436.023438 409.828125 436.332031 409.769531 436.636719 C 409.707031 436.945312 409.617188 437.242188 409.496094 437.527344 C 409.378906 437.816406 409.234375 438.089844 409.058594 438.347656 C 408.886719 438.605469 408.691406 438.847656 408.46875 439.066406 C 408.25 439.289062 408.007812 439.484375 407.75 439.65625 C 407.492188 439.832031 407.21875 439.976562 406.929688 440.09375 C 406.644531 440.214844 406.347656 440.304688 406.039062 440.367188 C 405.734375 440.425781 405.425781 440.457031 405.113281 440.457031 C 404.804688 440.457031 404.496094 440.425781 404.191406 440.367188 C 403.882812 440.304688 403.585938 440.214844 403.300781 440.09375 C 403.011719 439.976562 402.738281 439.832031 402.480469 439.65625 C 402.21875 439.484375 401.980469 439.289062 401.761719 439.066406 C 401.539062 438.847656 401.34375 438.605469 401.171875 438.347656 C 400.996094 438.089844 400.851562 437.816406 400.730469 437.527344 C 400.613281 437.242188 400.523438 436.945312 400.460938 436.636719 C 400.402344 436.332031 400.371094 436.023438 400.371094 435.710938 C 400.371094 435.402344 400.402344 435.09375 400.460938 434.789062 C 400.523438 434.480469 400.613281 434.183594 400.730469 433.898438 C 400.851562 433.609375 400.996094 433.335938 401.171875 433.078125 C 401.34375 432.816406 401.539062 432.578125 401.761719 432.359375 C 401.980469 432.136719 402.21875 431.941406 402.480469 431.769531 C 402.738281 431.59375 403.011719 431.449219 403.300781 431.328125 C 403.585938 431.210938 403.882812 431.121094 404.191406 431.058594 C 404.496094 431 404.804688 430.96875 405.113281 430.96875 C 405.425781 430.96875 405.734375 431 406.039062 431.058594 C 406.347656 431.121094 406.644531 431.210938 406.929688 431.328125 C 407.21875 431.449219 407.492188 431.59375 407.75 431.769531 C 408.007812 431.941406 408.25 432.136719 408.46875 432.359375 C 408.691406 432.578125 408.886719 432.816406 409.058594 433.078125 C 409.234375 433.335938 409.378906 433.609375 409.496094 433.898438 C 409.617188 434.183594 409.707031 434.480469 409.769531 434.789062 C 409.828125 435.09375 409.859375 435.402344 409.859375 435.710938 Z M 409.859375 435.710938 " fill-opacity="1" fill-rule="nonzero"/><path fill="#f5c022" d="M 409.859375 454.6875 C 409.859375 455 409.828125 455.308594 409.769531 455.613281 C 409.707031 455.917969 409.617188 456.214844 409.496094 456.503906 C 409.378906 456.792969 409.234375 457.066406 409.058594 457.324219 C 408.886719 457.582031 408.691406 457.820312 408.46875 458.042969 C 408.25 458.261719 408.007812 458.460938 407.75 458.632812 C 407.492188 458.804688 407.21875 458.953125 406.929688 459.070312 C 406.644531 459.191406 406.347656 459.28125 406.039062 459.339844 C 405.734375 459.402344 405.425781 459.433594 405.113281 459.433594 C 404.804688 459.433594 404.496094 459.402344 404.191406 459.339844 C 403.882812 459.28125 403.585938 459.191406 403.300781 459.070312 C 403.011719 458.953125 402.738281 458.804688 402.480469 458.632812 C 402.21875 458.460938 401.980469 458.261719 401.761719 458.042969 C 401.539062 457.820312 401.34375 457.582031 401.171875 457.324219 C 400.996094 457.066406 400.851562 456.792969 400.730469 456.503906 C 400.613281 456.214844 400.523438 455.917969 400.460938 455.613281 C 400.402344 455.308594 400.371094 455 400.371094 454.6875 C 400.371094 454.375 400.402344 454.066406 400.460938 453.761719 C 400.523438 453.457031 400.613281 453.160156 400.730469 452.871094 C 400.851562 452.585938 400.996094 452.3125 401.171875 452.050781 C 401.34375 451.792969 401.539062 451.554688 401.761719 451.332031 C 401.980469 451.113281 402.21875 450.917969 402.480469 450.742188 C 402.738281 450.570312 403.011719 450.425781 403.300781 450.304688 C 403.585938 450.1875 403.882812 450.097656 404.191406 450.035156 C 404.496094 449.976562 404.804688 449.945312 405.113281 449.945312 C 405.425781 449.945312 405.734375 449.976562 406.039062 450.035156 C 406.347656 450.097656 406.644531 450.1875 406.929688 450.304688 C 407.21875 450.425781 407.492188 450.570312 407.75 450.742188 C 408.007812 450.917969 408.25 451.113281 408.46875 451.332031 C 408.691406 451.554688 408.886719 451.792969 409.058594 452.050781 C 409.234375 452.3125 409.378906 452.585938 409.496094 452.871094 C 409.617188 453.160156 409.707031 453.457031 409.769531 453.761719 C 409.828125 454.066406 409.859375 454.375 409.859375 454.6875 Z M 409.859375 454.6875 " fill-opacity="1" fill-rule="nonzero"/><path fill="#f5c022" d="M 317.355469 485.523438 C 317.355469 485.835938 317.324219 486.144531 317.261719 486.449219 C 317.203125 486.753906 317.113281 487.050781 316.992188 487.339844 C 316.875 487.625 316.726562 487.898438 316.554688 488.160156 C 316.382812 488.417969 316.183594 488.65625 315.964844 488.878906 C 315.742188 489.097656 315.503906 489.292969 315.246094 489.46875 C 314.988281 489.640625 314.714844 489.785156 314.425781 489.90625 C 314.136719 490.023438 313.839844 490.113281 313.535156 490.175781 C 313.230469 490.238281 312.921875 490.265625 312.609375 490.265625 C 312.296875 490.265625 311.988281 490.238281 311.683594 490.175781 C 311.378906 490.113281 311.082031 490.023438 310.792969 489.90625 C 310.507812 489.785156 310.234375 489.640625 309.972656 489.46875 C 309.714844 489.292969 309.476562 489.097656 309.253906 488.878906 C 309.035156 488.65625 308.839844 488.417969 308.664062 488.160156 C 308.492188 487.898438 308.347656 487.625 308.226562 487.339844 C 308.109375 487.050781 308.019531 486.753906 307.957031 486.449219 C 307.894531 486.144531 307.867188 485.835938 307.867188 485.523438 C 307.867188 485.210938 307.894531 484.902344 307.957031 484.597656 C 308.019531 484.292969 308.109375 483.996094 308.226562 483.707031 C 308.347656 483.417969 308.492188 483.148438 308.664062 482.886719 C 308.839844 482.628906 309.035156 482.390625 309.253906 482.167969 C 309.476562 481.949219 309.714844 481.75 309.972656 481.578125 C 310.234375 481.40625 310.507812 481.257812 310.792969 481.140625 C 311.082031 481.019531 311.378906 480.929688 311.683594 480.871094 C 311.988281 480.808594 312.296875 480.777344 312.609375 480.777344 C 312.921875 480.777344 313.230469 480.808594 313.535156 480.871094 C 313.839844 480.929688 314.136719 481.019531 314.425781 481.140625 C 314.714844 481.257812 314.988281 481.40625 315.246094 481.578125 C 315.503906 481.75 315.742188 481.949219 315.964844 482.167969 C 316.183594 482.390625 316.382812 482.628906 316.554688 482.886719 C 316.726562 483.148438 316.875 483.417969 316.992188 483.707031 C 317.113281 483.996094 317.203125 484.292969 317.261719 484.597656 C 317.324219 484.902344 317.355469 485.210938 317.355469 485.523438 Z M 317.355469 485.523438 " fill-opacity="1" fill-rule="nonzero"/><g clip-path="url(#370ca64bfc)"><path fill="#f5c022" d="M 312.609375 499.753906 C 310 499.753906 307.867188 501.890625 307.867188 504.5 L 307.867188 551.9375 C 307.867188 554.546875 310 556.679688 312.609375 556.679688 C 315.21875 556.679688 317.355469 554.546875 317.355469 551.9375 L 317.355469 504.5 C 317.355469 501.890625 315.21875 499.753906 312.609375 499.753906 Z M 312.609375 499.753906 " fill-opacity="1" fill-rule="nonzero"/></g><g clip-path="url(#391f926ebb)"><path fill="#f5c022" d="M 474.375 340.597656 L 463.464844 331.824219 C 461.804688 330.160156 459.433594 329.214844 457.058594 329.214844 C 454.449219 329.214844 452.078125 330.160156 450.417969 332.058594 L 447.808594 334.667969 L 414.367188 320.675781 C 412.941406 319.960938 411.519531 319.726562 409.859375 319.25 L 409.859375 300.277344 C 420.769531 298.140625 428.835938 288.417969 428.835938 277.03125 C 428.835938 263.984375 418.160156 253.3125 405.113281 253.3125 C 392.070312 253.3125 381.394531 263.75 381.394531 276.792969 C 381.394531 279.402344 383.53125 281.539062 386.140625 281.539062 C 388.75 281.539062 390.882812 279.402344 390.882812 276.792969 C 390.882812 268.964844 397.289062 262.5625 405.113281 262.5625 C 412.941406 262.5625 419.347656 268.964844 419.347656 276.792969 C 419.347656 284.621094 412.941406 291.023438 405.113281 291.023438 C 402.507812 291.023438 400.371094 293.160156 400.371094 295.769531 L 400.371094 319.015625 C 398.949219 319.25 397.289062 319.726562 395.863281 320.4375 L 362.421875 334.667969 L 359.8125 332.058594 C 357.914062 330.160156 355.542969 329.214844 353.167969 329.214844 C 350.796875 329.214844 348.425781 330.160156 346.765625 331.824219 L 335.855469 340.597656 C 335.617188 340.597656 335.617188 340.835938 335.378906 341.074219 C 333.71875 342.734375 332.769531 345.105469 332.769531 347.238281 L 298.378906 361.472656 C 271.101562 372.855469 253.3125 399.660156 253.3125 429.308594 L 253.3125 551.9375 C 253.3125 554.546875 255.445312 556.679688 258.054688 556.679688 C 260.664062 556.679688 262.800781 554.546875 262.800781 551.9375 L 262.800781 429.308594 C 262.800781 403.453125 278.21875 380.210938 302.171875 370.246094 L 336.804688 355.777344 L 381.632812 404.402344 C 383.53125 406.300781 385.902344 407.25 388.273438 407.25 C 390.644531 407.25 393.253906 406.300781 394.914062 404.402344 L 405.113281 393.964844 L 415.3125 404.402344 C 416.976562 406.300781 419.347656 407.25 421.957031 407.25 C 424.566406 407.25 426.9375 406.300781 428.835938 404.402344 L 474.851562 354.355469 C 478.40625 350.558594 478.40625 344.628906 474.851562 340.835938 C 474.613281 340.835938 474.613281 340.597656 474.375 340.597656 Z M 399.660156 329.214844 C 403.21875 327.789062 407.25 327.789062 410.570312 329.214844 L 440.695312 341.785156 L 405.113281 378.550781 L 369.535156 341.785156 Z M 399.183594 386.375 L 388.273438 397.761719 L 342.257812 347.714844 C 342.257812 347.714844 342.257812 347.476562 342.257812 347.476562 L 352.933594 338.699219 C 353.167969 338.699219 352.933594 338.464844 353.167969 338.226562 L 399.183594 385.902344 C 399.183594 386.140625 399.183594 386.375 399.183594 386.375 Z M 467.734375 347.714844 L 421.957031 397.761719 L 411.042969 386.375 C 411.042969 386.375 411.042969 386.140625 411.042969 386.140625 L 457.058594 338.464844 C 457.296875 338.699219 457.296875 338.699219 457.535156 338.9375 L 468.207031 347.714844 C 467.972656 347.714844 467.972656 347.714844 467.734375 347.714844 Z M 467.734375 347.714844 " fill-opacity="1" fill-rule="nonzero"/></g><path fill="#f5c022" d="M 405.113281 465.597656 C 402.507812 465.597656 400.371094 467.734375 400.371094 470.34375 L 400.371094 518.253906 C 400.371094 520.863281 402.507812 523 405.113281 523 C 407.722656 523 409.859375 520.863281 409.859375 518.253906 L 409.859375 470.34375 C 409.859375 467.734375 407.722656 465.597656 405.113281 465.597656 Z M 405.113281 465.597656 " fill-opacity="1" fill-rule="nonzero"/><path fill="#f5c022" d="M 502.363281 485.523438 C 502.363281 485.835938 502.332031 486.144531 502.273438 486.449219 C 502.210938 486.753906 502.121094 487.050781 502.003906 487.339844 C 501.882812 487.625 501.738281 487.898438 501.566406 488.160156 C 501.390625 488.417969 501.195312 488.65625 500.972656 488.878906 C 500.753906 489.097656 500.515625 489.292969 500.253906 489.46875 C 499.996094 489.640625 499.722656 489.785156 499.433594 489.90625 C 499.148438 490.023438 498.851562 490.113281 498.546875 490.175781 C 498.238281 490.238281 497.929688 490.265625 497.621094 490.265625 C 497.308594 490.265625 497 490.238281 496.695312 490.175781 C 496.390625 490.113281 496.09375 490.023438 495.804688 489.90625 C 495.515625 489.785156 495.242188 489.640625 494.984375 489.46875 C 494.726562 489.292969 494.484375 489.097656 494.265625 488.878906 C 494.046875 488.65625 493.847656 488.417969 493.675781 488.160156 C 493.503906 487.898438 493.355469 487.625 493.238281 487.339844 C 493.117188 487.050781 493.027344 486.753906 492.96875 486.449219 C 492.90625 486.144531 492.875 485.835938 492.875 485.523438 C 492.875 485.210938 492.90625 484.902344 492.96875 484.597656 C 493.027344 484.292969 493.117188 483.996094 493.238281 483.707031 C 493.355469 483.417969 493.503906 483.148438 493.675781 482.886719 C 493.847656 482.628906 494.046875 482.390625 494.265625 482.167969 C 494.484375 481.949219 494.726562 481.75 494.984375 481.578125 C 495.242188 481.40625 495.515625 481.257812 495.804688 481.140625 C 496.09375 481.019531 496.390625 480.929688 496.695312 480.871094 C 497 480.808594 497.308594 480.777344 497.621094 480.777344 C 497.929688 480.777344 498.238281 480.808594 498.546875 480.871094 C 498.851562 480.929688 499.148438 481.019531 499.433594 481.140625 C 499.722656 481.257812 499.996094 481.40625 500.253906 481.578125 C 500.515625 481.75 500.753906 481.949219 500.972656 482.167969 C 501.195312 482.390625 501.390625 482.628906 501.566406 482.886719 C 501.738281 483.148438 501.882812 483.417969 502.003906 483.707031 C 502.121094 483.996094 502.210938 484.292969 502.273438 484.597656 C 502.332031 484.902344 502.363281 485.210938 502.363281 485.523438 Z M 502.363281 485.523438 " fill-opacity="1" fill-rule="nonzero"/><g clip-path="url(#efbb296aa6)"><path fill="#f5c022" d="M 497.621094 499.753906 C 495.011719 499.753906 492.875 501.890625 492.875 504.5 L 492.875 551.9375 C 492.875 554.546875 495.011719 556.679688 497.621094 556.679688 C 500.230469 556.679688 502.363281 554.546875 502.363281 551.9375 L 502.363281 504.5 C 502.363281 501.890625 500.230469 499.753906 497.621094 499.753906 Z M 497.621094 499.753906 " fill-opacity="1" fill-rule="nonzero"/></g><path fill="#f5c022" d="M 511.851562 447.574219 L 483.386719 447.574219 C 480.78125 447.574219 478.644531 449.707031 478.644531 452.316406 C 478.644531 454.925781 480.78125 457.058594 483.386719 457.058594 L 511.851562 457.058594 C 514.460938 457.058594 516.59375 454.925781 516.59375 452.316406 C 516.59375 449.707031 514.460938 447.574219 511.851562 447.574219 Z M 511.851562 447.574219 " fill-opacity="1" fill-rule="nonzero"/><path fill="#f5c022" d="M 326.839844 447.574219 L 298.378906 447.574219 C 295.769531 447.574219 293.632812 449.707031 293.632812 452.316406 C 293.632812 454.925781 295.769531 457.058594 298.378906 457.058594 L 326.839844 457.058594 C 329.449219 457.058594 331.585938 454.925781 331.585938 452.316406 C 331.585938 449.707031 329.449219 447.574219 326.839844 447.574219 Z M 326.839844 447.574219 " fill-opacity="1" fill-rule="nonzero"/><g clip-path="url(#f84c67acb2)"><path fill="#f5c022" d="M 260.191406 343.917969 L 259.003906 351.746094 C 258.765625 353.644531 259.480469 355.304688 260.902344 356.492188 C 262.324219 357.4375 264.222656 357.675781 265.882812 356.726562 L 272.289062 353.167969 L 278.691406 356.726562 C 279.402344 357.203125 280.113281 357.203125 281.0625 357.203125 C 282.011719 357.203125 282.960938 356.964844 283.910156 356.253906 C 285.332031 355.304688 286.042969 353.40625 285.808594 351.507812 L 284.621094 343.683594 L 290.078125 337.988281 C 291.261719 336.804688 291.738281 334.90625 291.261719 333.246094 C 290.789062 331.585938 289.128906 330.398438 287.46875 330.160156 L 280.113281 328.976562 L 276.792969 321.859375 C 275.84375 320.4375 274.183594 319.488281 272.289062 319.488281 C 270.390625 319.488281 268.730469 320.4375 268.019531 322.335938 L 264.695312 329.449219 L 257.34375 330.636719 C 255.683594 330.875 254.023438 332.058594 253.550781 333.71875 C 253.074219 335.378906 253.3125 337.277344 254.734375 338.464844 Z M 268.492188 338.226562 C 270.152344 337.988281 271.339844 337.039062 272.050781 335.617188 L 272.050781 335.378906 L 272.050781 335.617188 C 272.761719 337.039062 273.949219 337.988281 275.609375 338.226562 L 276.320312 338.226562 L 275.609375 338.9375 C 274.894531 340.125 274.421875 341.785156 274.660156 343.207031 L 274.660156 343.917969 L 274.660156 343.683594 C 273.949219 343.207031 273 343.207031 272.289062 343.207031 C 271.574219 343.207031 270.625 343.207031 269.914062 343.683594 L 269.679688 343.917969 L 269.914062 343.207031 C 270.152344 341.785156 269.679688 340.125 268.730469 339.175781 L 267.78125 338.464844 Z M 268.492188 338.226562 " fill-opacity="1" fill-rule="nonzero"/></g><g clip-path="url(#b04c8dbd45)"><path fill="#f5c022" d="M 546.71875 392.070312 L 540.789062 394.441406 L 539.601562 398.949219 C 544.585938 408.199219 547.429688 418.636719 547.429688 429.546875 L 547.429688 551.9375 C 547.429688 554.546875 549.566406 556.679688 552.175781 556.679688 C 554.785156 556.679688 556.917969 554.546875 556.917969 551.9375 L 556.917969 429.308594 C 556.917969 415.789062 553.359375 402.980469 546.71875 392.070312 Z M 546.71875 392.070312 " fill-opacity="1" fill-rule="nonzero"/></g><path fill="#f5c022" d="M 549.800781 377.601562 C 549.800781 375.703125 549.089844 374.042969 547.429688 373.09375 L 535.808594 366.453125 L 535.570312 352.695312 C 535.570312 350.796875 534.386719 349.136719 532.726562 348.425781 C 531.0625 347.714844 529.167969 347.953125 527.742188 349.136719 L 516.359375 358.863281 L 502.601562 355.777344 C 500.941406 355.304688 499.042969 356.015625 497.855469 357.203125 C 496.671875 358.625 496.433594 360.285156 496.910156 361.945312 L 501.890625 374.753906 L 493.585938 387.089844 C 492.640625 388.511719 492.402344 390.644531 493.351562 392.304688 C 494.300781 393.964844 496.195312 394.679688 497.855469 394.441406 L 512.089844 392.78125 C 512.089844 392.78125 520.390625 403.21875 520.628906 403.21875 C 521.8125 404.640625 523.472656 405.113281 525.371094 404.878906 C 527.03125 404.402344 528.457031 403.21875 528.929688 401.558594 L 532.960938 387.5625 L 546.71875 381.871094 C 548.617188 380.921875 549.566406 379.261719 549.800781 377.601562 Z M 527.269531 379.496094 C 525.847656 379.972656 524.898438 381.160156 524.421875 382.582031 L 522.289062 389.933594 L 518.019531 384.714844 C 517.070312 383.53125 515.648438 383.054688 514.222656 383.054688 C 513.988281 383.054688 513.75 383.054688 513.75 383.054688 L 507.34375 383.765625 L 511.140625 378.074219 C 512.089844 376.890625 512.089844 375.230469 511.613281 373.804688 L 509.003906 367.164062 L 516.359375 368.824219 C 517.78125 369.0625 519.441406 368.824219 520.390625 367.875 L 525.847656 363.132812 L 525.847656 369.535156 C 525.847656 371.195312 526.792969 372.855469 528.21875 373.566406 L 533.910156 376.890625 Z M 527.269531 379.496094 " fill-opacity="1" fill-rule="nonzero"/><path fill="#f5c022" d="M 383.769531 498.804688 L 373.570312 492.875 L 373.332031 480.777344 C 373.332031 478.882812 372.144531 477.222656 370.484375 476.511719 C 368.824219 475.796875 366.925781 476.035156 365.503906 477.222656 L 355.304688 485.761719 L 343.207031 483.152344 C 341.546875 482.675781 339.648438 483.386719 338.464844 484.574219 C 337.277344 485.996094 337.039062 487.65625 337.515625 489.316406 L 341.785156 500.464844 L 334.433594 511.378906 C 333.484375 512.800781 333.246094 514.933594 334.195312 516.59375 C 335.144531 518.253906 337.039062 518.96875 338.699219 518.730469 L 351.273438 517.308594 L 358.625 526.558594 C 359.574219 527.742188 360.996094 528.21875 362.421875 528.21875 C 362.65625 528.21875 363.132812 528.21875 363.371094 528.21875 C 365.03125 527.742188 366.453125 526.558594 366.925781 524.898438 L 370.484375 512.5625 L 382.820312 507.582031 C 384.480469 506.871094 385.664062 505.210938 385.664062 503.550781 C 386.140625 501.414062 385.429688 499.753906 383.769531 498.804688 Z M 365.265625 504.5 C 363.84375 504.972656 362.894531 506.160156 362.421875 507.582031 L 360.761719 513.511719 L 357.4375 509.480469 C 356.492188 508.292969 355.066406 507.820312 353.644531 507.820312 C 353.40625 507.820312 353.167969 507.820312 353.167969 507.820312 L 348.425781 508.292969 L 351.273438 504.023438 C 352.222656 502.839844 352.222656 501.179688 351.746094 499.753906 L 349.613281 494.535156 L 355.542969 495.722656 C 356.964844 495.960938 358.625 495.722656 359.574219 494.773438 L 363.84375 491.214844 L 363.84375 495.960938 C 363.84375 497.621094 364.792969 499.28125 366.214844 499.992188 L 370.484375 502.363281 Z M 365.265625 504.5 " fill-opacity="1" fill-rule="nonzero"/><path fill="#f5c022" d="M 499.992188 307.628906 C 507.820312 307.628906 514.222656 301.222656 514.222656 293.398438 C 514.222656 289.601562 512.800781 286.042969 510.191406 283.433594 C 507.582031 280.824219 504.023438 279.164062 500.230469 279.164062 C 492.402344 279.164062 485.996094 285.570312 485.996094 293.398438 C 485.761719 301.222656 492.164062 307.628906 499.992188 307.628906 Z M 499.992188 288.652344 C 501.179688 288.652344 502.363281 289.128906 503.3125 290.078125 C 504.261719 291.023438 504.734375 292.210938 504.734375 293.398438 C 504.734375 296.007812 502.601562 298.140625 499.992188 298.140625 C 497.382812 298.140625 495.25 296.007812 495.25 293.398438 C 495.25 290.789062 497.382812 288.652344 499.992188 288.652344 Z M 499.992188 288.652344 " fill-opacity="1" fill-rule="nonzero"/><path fill="#f5c022" d="M 528.457031 269.679688 C 528.457031 269.988281 528.425781 270.296875 528.363281 270.601562 C 528.304688 270.910156 528.214844 271.207031 528.09375 271.492188 C 527.976562 271.78125 527.828125 272.054688 527.65625 272.3125 C 527.484375 272.574219 527.285156 272.8125 527.066406 273.03125 C 526.84375 273.253906 526.605469 273.449219 526.347656 273.621094 C 526.085938 273.796875 525.816406 273.941406 525.527344 274.0625 C 525.238281 274.179688 524.941406 274.269531 524.636719 274.332031 C 524.332031 274.390625 524.023438 274.421875 523.710938 274.421875 C 523.398438 274.421875 523.089844 274.390625 522.785156 274.332031 C 522.480469 274.269531 522.183594 274.179688 521.894531 274.0625 C 521.609375 273.941406 521.335938 273.796875 521.074219 273.621094 C 520.816406 273.449219 520.578125 273.253906 520.355469 273.03125 C 520.136719 272.8125 519.941406 272.574219 519.765625 272.3125 C 519.59375 272.054688 519.449219 271.78125 519.328125 271.492188 C 519.210938 271.207031 519.121094 270.910156 519.058594 270.601562 C 518.996094 270.296875 518.96875 269.988281 518.96875 269.679688 C 518.96875 269.367188 518.996094 269.058594 519.058594 268.753906 C 519.121094 268.445312 519.210938 268.148438 519.328125 267.863281 C 519.449219 267.574219 519.59375 267.300781 519.765625 267.042969 C 519.941406 266.785156 520.136719 266.542969 520.355469 266.324219 C 520.578125 266.101562 520.816406 265.90625 521.074219 265.734375 C 521.335938 265.558594 521.609375 265.414062 521.894531 265.296875 C 522.183594 265.175781 522.480469 265.085938 522.785156 265.023438 C 523.089844 264.964844 523.398438 264.933594 523.710938 264.933594 C 524.023438 264.933594 524.332031 264.964844 524.636719 265.023438 C 524.941406 265.085938 525.238281 265.175781 525.527344 265.296875 C 525.816406 265.414062 526.085938 265.558594 526.347656 265.734375 C 526.605469 265.90625 526.84375 266.101562 527.066406 266.324219 C 527.285156 266.542969 527.484375 266.785156 527.65625 267.042969 C 527.828125 267.300781 527.976562 267.574219 528.09375 267.863281 C 528.214844 268.148438 528.304688 268.445312 528.363281 268.753906 C 528.425781 269.058594 528.457031 269.367188 528.457031 269.679688 Z M 528.457031 269.679688 " fill-opacity="1" fill-rule="nonzero"/><path fill="#f5c022" d="M 310.238281 307.628906 C 318.066406 307.628906 324.46875 301.222656 324.46875 293.398438 C 324.46875 285.570312 318.066406 279.164062 310.238281 279.164062 C 306.441406 279.164062 302.886719 280.589844 300.277344 283.433594 C 297.429688 286.042969 296.007812 289.601562 296.007812 293.398438 C 296.007812 301.222656 302.410156 307.628906 310.238281 307.628906 Z M 306.917969 290.078125 C 307.867188 289.128906 309.050781 288.652344 310.238281 288.652344 C 312.847656 288.652344 314.980469 290.789062 314.980469 293.398438 C 314.980469 296.007812 312.847656 298.140625 310.238281 298.140625 C 307.628906 298.140625 305.496094 296.007812 305.496094 293.398438 C 305.496094 292.210938 305.96875 291.023438 306.917969 290.078125 Z M 306.917969 290.078125 " fill-opacity="1" fill-rule="nonzero"/><path fill="#f5c022" d="M 291.261719 269.679688 C 291.261719 269.988281 291.230469 270.296875 291.171875 270.601562 C 291.109375 270.910156 291.019531 271.207031 290.902344 271.492188 C 290.78125 271.78125 290.636719 272.054688 290.464844 272.3125 C 290.289062 272.574219 290.09375 272.8125 289.875 273.03125 C 289.652344 273.253906 289.414062 273.449219 289.152344 273.621094 C 288.894531 273.796875 288.621094 273.941406 288.335938 274.0625 C 288.046875 274.179688 287.75 274.269531 287.445312 274.332031 C 287.140625 274.390625 286.832031 274.421875 286.519531 274.421875 C 286.207031 274.421875 285.898438 274.390625 285.59375 274.332031 C 285.289062 274.269531 284.992188 274.179688 284.703125 274.0625 C 284.414062 273.941406 284.140625 273.796875 283.882812 273.621094 C 283.625 273.449219 283.382812 273.253906 283.164062 273.03125 C 282.945312 272.8125 282.746094 272.574219 282.574219 272.3125 C 282.402344 272.054688 282.253906 271.78125 282.136719 271.492188 C 282.015625 271.207031 281.925781 270.910156 281.867188 270.601562 C 281.804688 270.296875 281.773438 269.988281 281.773438 269.679688 C 281.773438 269.367188 281.804688 269.058594 281.867188 268.753906 C 281.925781 268.445312 282.015625 268.148438 282.136719 267.863281 C 282.253906 267.574219 282.402344 267.300781 282.574219 267.042969 C 282.746094 266.785156 282.945312 266.542969 283.164062 266.324219 C 283.382812 266.101562 283.625 265.90625 283.882812 265.734375 C 284.140625 265.558594 284.414062 265.414062 284.703125 265.296875 C 284.992188 265.175781 285.289062 265.085938 285.59375 265.023438 C 285.898438 264.964844 286.207031 264.933594 286.519531 264.933594 C 286.832031 264.933594 287.140625 264.964844 287.445312 265.023438 C 287.75 265.085938 288.046875 265.175781 288.335938 265.296875 C 288.621094 265.414062 288.894531 265.558594 289.152344 265.734375 C 289.414062 265.90625 289.652344 266.101562 289.875 266.324219 C 290.09375 266.542969 290.289062 266.785156 290.464844 267.042969 C 290.636719 267.300781 290.78125 267.574219 290.902344 267.863281 C 291.019531 268.148438 291.109375 268.445312 291.171875 268.753906 C 291.230469 269.058594 291.261719 269.367188 291.261719 269.679688 Z M 291.261719 269.679688 " fill-opacity="1" fill-rule="nonzero"/></svg>