<svg xmlns="http://www.w3.org/2000/svg" xmlns:xlink="http://www.w3.org/1999/xlink" width="1080" zoomAndPan="magnify" viewBox="0 0 810 809.999993" height="1080" preserveAspectRatio="xMidYMid meet" version="1.0"><defs><filter x="0%" y="0%" width="100%" height="100%" id="698e99df56"><feColorMatrix values="0 0 0 0 1 0 0 0 0 1 0 0 0 0 1 0 0 0 1 0" color-interpolation-filters="sRGB"/></filter><mask id="17ef724ece"><g filter="url(#698e99df56)"><rect x="-81" width="972" fill="#000000" y="-80.999999" height="971.999992" fill-opacity="0.8"/></g></mask><clipPath id="7a55cfb677"><path d="M 0.746094 0.746094 L 445.359375 0.746094 L 445.359375 445.359375 L 0.746094 445.359375 Z M 0.746094 0.746094 " clip-rule="nonzero"/></clipPath><clipPath id="b275fda8a2"><rect x="0" width="446" y="0" height="446"/></clipPath><clipPath id="69a1eedec3"><path d="M 226.992188 294.28125 L 582.988281 294.28125 L 582.988281 427.808594 L 226.992188 427.808594 Z M 226.992188 294.28125 " clip-rule="nonzero"/></clipPath><clipPath id="fe92404637"><path d="M 277 382 L 300 382 L 300 515.53125 L 277 515.53125 Z M 277 382 " clip-rule="nonzero"/></clipPath></defs><g mask="url(#17ef724ece)"><g transform="matrix(1, 0, 0, 1, 182, 182)"><g clip-path="url(#b275fda8a2)"><g clip-path="url(#7a55cfb677)"><path fill="#0b656a" d="M 222.996094 445.25 C 100.757812 445.25 0.746094 345.234375 0.746094 222.996094 C 0.746094 100.757812 100.757812 0.746094 222.996094 0.746094 C 345.234375 0.746094 445.25 100.757812 445.25 222.996094 C 445.25 345.234375 345.234375 445.25 222.996094 445.25 Z M 222.996094 445.25 " fill-opacity="1" fill-rule="nonzero"/></g></g></g></g><g clip-path="url(#69a1eedec3)"><path fill="#f5c022" d="M 291.597656 336.652344 L 291.59375 336.632812 M 582.933594 360.78125 L 582.988281 360.761719 L 582.882812 360.761719 L 502.351562 330.683594 L 502.304688 330.628906 L 502.238281 330.640625 L 446.621094 309.871094 L 446.597656 309.859375 L 446.578125 309.8125 L 446.503906 309.824219 L 404.972656 294.3125 L 404.988281 294.28125 L 338.308594 319.183594 L 291.582031 336.636719 L 226.992188 360.761719 L 311.085938 392.167969 L 314.5625 393.46875 L 363.242188 411.652344 L 404.988281 427.242188 L 452.578125 409.46875 L 452.582031 409.46875 L 495.417969 393.46875 L 506.5625 389.308594 L 582.910156 360.789062 L 582.960938 360.789062 L 582.933594 360.78125 " fill-opacity="1" fill-rule="nonzero"/></g><path fill="#f5c022" d="M 314.5625 401.035156 L 314.5625 436.609375 L 314.566406 436.609375 C 314.566406 436.636719 314.5625 436.667969 314.5625 436.695312 C 314.5625 451.496094 324.585938 464.898438 340.808594 474.632812 C 357.191406 484.464844 379.894531 490.558594 404.988281 490.558594 C 408.222656 490.558594 411.410156 490.457031 414.554688 490.257812 L 414.558594 490.253906 C 438.859375 488.734375 460.289062 481.480469 474.972656 470.804688 C 487.746094 461.515625 495.417969 449.640625 495.417969 436.695312 C 495.417969 436.667969 495.414062 436.636719 495.414062 436.609375 L 495.417969 436.609375 L 495.417969 401.035156 L 404.988281 434.8125 L 314.5625 401.035156 " fill-opacity="1" fill-rule="nonzero"/><g clip-path="url(#fe92404637)"><path fill="#f5c022" d="M 297.082031 481.355469 L 297.035156 480.875 L 294.097656 450.378906 L 293.96875 449.042969 L 292.554688 434.359375 L 293.746094 434.359375 L 293.746094 418.035156 C 295.378906 416.566406 296.410156 414.441406 296.410156 412.070312 C 296.410156 410.851562 296.136719 409.703125 295.65625 408.671875 C 294.867188 406.996094 293.519531 405.636719 291.851562 404.832031 L 291.851562 384.988281 L 284.765625 382.339844 L 284.765625 404.902344 C 282.144531 406.222656 280.347656 408.933594 280.347656 412.070312 C 280.347656 414.441406 281.378906 416.566406 283.011719 418.035156 L 283.011719 434.359375 L 284.3125 434.359375 L 283.449219 443.148438 L 282.382812 454.082031 L 279.75 481.027344 L 279.742188 481.117188 L 278.3125 495.726562 L 277.035156 508.792969 C 277.003906 509.074219 277 509.394531 277.035156 509.683594 C 277.464844 513.269531 282.890625 515.972656 289.152344 515.726562 C 295.417969 515.484375 300.148438 512.378906 299.71875 508.792969 L 297.082031 481.355469 " fill-opacity="1" fill-rule="nonzero"/></g></svg>