<svg xmlns="http://www.w3.org/2000/svg" xmlns:xlink="http://www.w3.org/1999/xlink" width="1080" zoomAndPan="magnify" viewBox="0 0 810 809.999993" height="1080" preserveAspectRatio="xMidYMid meet" version="1.0"><defs><filter x="0%" y="0%" width="100%" height="100%" id="059478aa14"><feColorMatrix values="0 0 0 0 1 0 0 0 0 1 0 0 0 0 1 0 0 0 1 0" color-interpolation-filters="sRGB"/></filter><mask id="2a398445dc"><g filter="url(#059478aa14)"><rect x="-81" width="972" fill="#000000" y="-80.999999" height="971.999992" fill-opacity="0.8"/></g></mask><clipPath id="e367198237"><path d="M 0.746094 0.746094 L 445.359375 0.746094 L 445.359375 445.359375 L 0.746094 445.359375 Z M 0.746094 0.746094 " clip-rule="nonzero"/></clipPath><clipPath id="a268cbefe1"><rect x="0" width="446" y="0" height="446"/></clipPath><clipPath id="58315d3ef8"><path d="M 278 268.3125 L 319 268.3125 L 319 330 L 278 330 Z M 278 268.3125 " clip-rule="nonzero"/></clipPath><clipPath id="cebfaaf483"><path d="M 349 268.3125 L 390 268.3125 L 390 330 L 349 330 Z M 349 268.3125 " clip-rule="nonzero"/></clipPath><clipPath id="54f41340d2"><path d="M 420 268.3125 L 461 268.3125 L 461 330 L 420 330 Z M 420 268.3125 " clip-rule="nonzero"/></clipPath><clipPath id="953290e062"><path d="M 491 268.3125 L 532 268.3125 L 532 330 L 491 330 Z M 491 268.3125 " clip-rule="nonzero"/></clipPath></defs><g mask="url(#2a398445dc)"><g transform="matrix(1, 0, 0, 1, 182, 182)"><g clip-path="url(#a268cbefe1)"><g clip-path="url(#e367198237)"><path fill="#0b656a" d="M 222.996094 445.25 C 100.757812 445.25 0.746094 345.234375 0.746094 222.996094 C 0.746094 100.757812 100.757812 0.746094 222.996094 0.746094 C 345.234375 0.746094 445.25 100.757812 445.25 222.996094 C 445.25 345.234375 345.234375 445.25 222.996094 445.25 Z M 222.996094 445.25 " fill-opacity="1" fill-rule="nonzero"/></g></g></g></g><path fill="#f5c022" d="M 496.125 303.75 L 455.625 303.75 C 452.828125 303.75 450.5625 301.484375 450.5625 298.6875 C 450.5625 295.890625 452.828125 293.625 455.625 293.625 L 496.125 293.625 C 498.921875 293.625 501.1875 295.890625 501.1875 298.6875 C 501.1875 301.484375 498.921875 303.75 496.125 303.75 Z M 496.125 303.75 " fill-opacity="1" fill-rule="nonzero"/><path fill="#f5c022" d="M 354.375 303.75 L 313.875 303.75 C 311.078125 303.75 308.8125 301.484375 308.8125 298.6875 C 308.8125 295.890625 311.078125 293.625 313.875 293.625 L 354.375 293.625 C 357.171875 293.625 359.4375 295.890625 359.4375 298.6875 C 359.4375 301.484375 357.171875 303.75 354.375 303.75 Z M 354.375 303.75 " fill-opacity="1" fill-rule="nonzero"/><path fill="#f5c022" d="M 542.953125 541.6875 L 267.046875 541.6875 C 253.789062 541.6875 243 530.898438 243 517.640625 L 243 317.671875 C 243 304.414062 253.789062 293.625 267.046875 293.625 L 283.5 293.625 C 286.296875 293.625 288.5625 295.890625 288.5625 298.6875 C 288.5625 301.484375 286.296875 303.75 283.5 303.75 L 267.046875 303.75 C 259.371094 303.75 253.125 309.996094 253.125 317.671875 L 253.125 517.640625 C 253.125 525.316406 259.371094 531.5625 267.046875 531.5625 L 542.953125 531.5625 C 550.628906 531.5625 556.875 525.316406 556.875 517.640625 L 556.875 317.671875 C 556.875 309.996094 550.628906 303.75 542.953125 303.75 L 526.5 303.75 C 523.703125 303.75 521.4375 301.484375 521.4375 298.6875 C 521.4375 295.890625 523.703125 293.625 526.5 293.625 L 542.953125 293.625 C 556.210938 293.625 567 304.414062 567 317.671875 L 567 517.640625 C 567 530.898438 556.210938 541.6875 542.953125 541.6875 Z M 542.953125 541.6875 " fill-opacity="1" fill-rule="nonzero"/><path fill="#f5c022" d="M 425.25 303.75 L 384.75 303.75 C 381.953125 303.75 379.6875 301.484375 379.6875 298.6875 C 379.6875 295.890625 381.953125 293.625 384.75 293.625 L 425.25 293.625 C 428.046875 293.625 430.3125 295.890625 430.3125 298.6875 C 430.3125 301.484375 428.046875 303.75 425.25 303.75 Z M 425.25 303.75 " fill-opacity="1" fill-rule="nonzero"/><path fill="#f5c022" d="M 561.9375 349.3125 L 248.0625 349.3125 C 245.265625 349.3125 243 347.046875 243 344.25 C 243 341.453125 245.265625 339.1875 248.0625 339.1875 L 561.9375 339.1875 C 564.734375 339.1875 567 341.453125 567 344.25 C 567 347.046875 564.734375 349.3125 561.9375 349.3125 Z M 561.9375 349.3125 " fill-opacity="1" fill-rule="nonzero"/><g clip-path="url(#58315d3ef8)"><path fill="#f5c022" d="M 307.546875 329.0625 L 289.828125 329.0625 C 283.546875 329.0625 278.4375 323.953125 278.4375 317.671875 L 278.4375 279.703125 C 278.4375 273.421875 283.546875 268.3125 289.828125 268.3125 L 307.546875 268.3125 C 313.828125 268.3125 318.9375 273.421875 318.9375 279.703125 L 318.9375 317.671875 C 318.9375 323.953125 313.828125 329.0625 307.546875 329.0625 Z M 289.828125 278.4375 C 289.128906 278.4375 288.5625 279.003906 288.5625 279.703125 L 288.5625 317.671875 C 288.5625 318.371094 289.128906 318.9375 289.828125 318.9375 L 307.546875 318.9375 C 308.246094 318.9375 308.8125 318.371094 308.8125 317.671875 L 308.8125 279.703125 C 308.8125 279.003906 308.246094 278.4375 307.546875 278.4375 Z M 289.828125 278.4375 " fill-opacity="1" fill-rule="nonzero"/></g><g clip-path="url(#cebfaaf483)"><path fill="#f5c022" d="M 378.421875 329.0625 L 360.703125 329.0625 C 354.421875 329.0625 349.3125 323.953125 349.3125 317.671875 L 349.3125 279.703125 C 349.3125 273.421875 354.421875 268.3125 360.703125 268.3125 L 378.421875 268.3125 C 384.703125 268.3125 389.8125 273.421875 389.8125 279.703125 L 389.8125 317.671875 C 389.8125 323.953125 384.703125 329.0625 378.421875 329.0625 Z M 360.703125 278.4375 C 360.003906 278.4375 359.4375 279.003906 359.4375 279.703125 L 359.4375 317.671875 C 359.4375 318.371094 360.003906 318.9375 360.703125 318.9375 L 378.421875 318.9375 C 379.121094 318.9375 379.6875 318.371094 379.6875 317.671875 L 379.6875 279.703125 C 379.6875 279.003906 379.121094 278.4375 378.421875 278.4375 Z M 360.703125 278.4375 " fill-opacity="1" fill-rule="nonzero"/></g><g clip-path="url(#54f41340d2)"><path fill="#f5c022" d="M 449.296875 329.0625 L 431.578125 329.0625 C 425.296875 329.0625 420.1875 323.953125 420.1875 317.671875 L 420.1875 279.703125 C 420.1875 273.421875 425.296875 268.3125 431.578125 268.3125 L 449.296875 268.3125 C 455.578125 268.3125 460.6875 273.421875 460.6875 279.703125 L 460.6875 317.671875 C 460.6875 323.953125 455.578125 329.0625 449.296875 329.0625 Z M 431.578125 278.4375 C 430.878906 278.4375 430.3125 279.003906 430.3125 279.703125 L 430.3125 317.671875 C 430.3125 318.371094 430.878906 318.9375 431.578125 318.9375 L 449.296875 318.9375 C 449.996094 318.9375 450.5625 318.371094 450.5625 317.671875 L 450.5625 279.703125 C 450.5625 279.003906 449.996094 278.4375 449.296875 278.4375 Z M 431.578125 278.4375 " fill-opacity="1" fill-rule="nonzero"/></g><g clip-path="url(#953290e062)"><path fill="#f5c022" d="M 520.171875 329.0625 L 502.453125 329.0625 C 496.171875 329.0625 491.0625 323.953125 491.0625 317.671875 L 491.0625 279.703125 C 491.0625 273.421875 496.171875 268.3125 502.453125 268.3125 L 520.171875 268.3125 C 526.453125 268.3125 531.5625 273.421875 531.5625 279.703125 L 531.5625 317.671875 C 531.5625 323.953125 526.453125 329.0625 520.171875 329.0625 Z M 502.453125 278.4375 C 501.753906 278.4375 501.1875 279.003906 501.1875 279.703125 L 501.1875 317.671875 C 501.1875 318.371094 501.753906 318.9375 502.453125 318.9375 L 520.171875 318.9375 C 520.871094 318.9375 521.4375 318.371094 521.4375 317.671875 L 521.4375 279.703125 C 521.4375 279.003906 520.871094 278.4375 520.171875 278.4375 Z M 502.453125 278.4375 " fill-opacity="1" fill-rule="nonzero"/></g><path fill="#f5c022" d="M 435.375 430.3125 C 434.601562 430.3125 433.824219 430.136719 433.109375 429.777344 L 392.609375 409.527344 C 390.894531 408.671875 389.8125 406.917969 389.8125 405 L 389.8125 384.574219 C 389.8125 382.648438 390.902344 380.890625 392.625 380.039062 L 433.125 359.964844 C 434.695312 359.1875 436.554688 359.273438 438.042969 360.199219 C 439.53125 361.121094 440.4375 362.75 440.4375 364.5 L 440.4375 425.25 C 440.4375 427.003906 439.527344 428.632812 438.035156 429.558594 C 437.222656 430.058594 436.300781 430.3125 435.375 430.3125 Z M 399.9375 401.871094 L 430.3125 417.058594 L 430.3125 372.660156 L 399.9375 387.714844 Z M 399.9375 401.871094 " fill-opacity="1" fill-rule="nonzero"/><path fill="#f5c022" d="M 374.015625 410.238281 C 372.683594 410.238281 371.402344 409.710938 370.453125 408.769531 C 369.492188 407.820312 368.953125 406.527344 368.953125 405.175781 L 368.953125 384.75 C 368.953125 381.96875 371.195312 379.710938 373.972656 379.6875 L 394.832031 379.511719 C 397.640625 379.472656 399.914062 381.734375 399.9375 384.53125 C 399.960938 387.328125 397.714844 389.613281 394.917969 389.636719 L 379.078125 389.769531 L 379.078125 400.070312 L 394.832031 399.9375 C 397.640625 399.898438 399.914062 402.160156 399.9375 404.957031 C 399.960938 407.753906 397.714844 410.039062 394.917969 410.0625 L 374.058594 410.238281 C 374.046875 410.238281 374.03125 410.238281 374.015625 410.238281 Z M 374.015625 410.238281 " fill-opacity="1" fill-rule="nonzero"/><path fill="#f5c022" d="M 298.6875 501.1875 L 273.375 501.1875 C 270.578125 501.1875 268.3125 498.921875 268.3125 496.125 L 268.3125 455.625 C 268.3125 452.828125 270.578125 450.5625 273.375 450.5625 L 298.6875 450.5625 C 301.484375 450.5625 303.75 452.828125 303.75 455.625 C 303.75 458.421875 301.484375 460.6875 298.6875 460.6875 L 278.4375 460.6875 L 278.4375 491.0625 L 298.6875 491.0625 C 301.484375 491.0625 303.75 493.328125 303.75 496.125 C 303.75 498.921875 301.484375 501.1875 298.6875 501.1875 Z M 298.6875 501.1875 " fill-opacity="1" fill-rule="nonzero"/><path fill="#f5c022" d="M 298.6875 480.9375 L 273.375 480.9375 C 270.578125 480.9375 268.3125 478.671875 268.3125 475.875 C 268.3125 473.078125 270.578125 470.8125 273.375 470.8125 L 298.6875 470.8125 C 301.484375 470.8125 303.75 473.078125 303.75 475.875 C 303.75 478.671875 301.484375 480.9375 298.6875 480.9375 Z M 298.6875 480.9375 " fill-opacity="1" fill-rule="nonzero"/><path fill="#f5c022" d="M 394.875 501.1875 L 369.5625 501.1875 C 366.765625 501.1875 364.5 498.921875 364.5 496.125 L 364.5 455.625 C 364.5 452.828125 366.765625 450.5625 369.5625 450.5625 L 394.875 450.5625 C 397.671875 450.5625 399.9375 452.828125 399.9375 455.625 C 399.9375 458.421875 397.671875 460.6875 394.875 460.6875 L 374.625 460.6875 L 374.625 491.0625 L 394.875 491.0625 C 397.671875 491.0625 399.9375 493.328125 399.9375 496.125 C 399.9375 498.921875 397.671875 501.1875 394.875 501.1875 Z M 394.875 501.1875 " fill-opacity="1" fill-rule="nonzero"/><path fill="#f5c022" d="M 394.875 480.9375 L 369.5625 480.9375 C 366.765625 480.9375 364.5 478.671875 364.5 475.875 C 364.5 473.078125 366.765625 470.8125 369.5625 470.8125 L 394.875 470.8125 C 397.671875 470.8125 399.9375 473.078125 399.9375 475.875 C 399.9375 478.671875 397.671875 480.9375 394.875 480.9375 Z M 394.875 480.9375 " fill-opacity="1" fill-rule="nonzero"/><path fill="#f5c022" d="M 334.125 501.1875 C 332.015625 501.1875 330.125 499.878906 329.382812 497.902344 L 314.195312 457.402344 C 313.214844 454.785156 314.542969 451.867188 317.160156 450.886719 C 319.78125 449.902344 322.695312 451.230469 323.679688 453.847656 L 334.125 481.707031 L 344.570312 453.847656 C 345.554688 451.230469 348.472656 449.902344 351.089844 450.886719 C 353.707031 451.867188 355.035156 454.785156 354.054688 457.402344 L 338.867188 497.902344 C 338.125 499.878906 336.234375 501.1875 334.125 501.1875 Z M 334.125 501.1875 " fill-opacity="1" fill-rule="nonzero"/><path fill="#f5c022" d="M 445.5 501.1875 C 443.9375 501.1875 442.425781 500.460938 441.449219 499.164062 L 420.1875 470.8125 L 420.1875 496.125 C 420.1875 498.921875 417.921875 501.1875 415.125 501.1875 C 412.328125 501.1875 410.0625 498.921875 410.0625 496.125 L 410.0625 455.625 C 410.0625 453.445312 411.457031 451.511719 413.523438 450.820312 C 415.59375 450.136719 417.867188 450.84375 419.175781 452.585938 L 440.4375 480.9375 L 440.4375 455.625 C 440.4375 452.828125 442.703125 450.5625 445.5 450.5625 C 448.296875 450.5625 450.5625 452.828125 450.5625 455.625 L 450.5625 496.125 C 450.5625 498.304688 449.167969 500.238281 447.101562 500.929688 C 446.574219 501.101562 446.035156 501.1875 445.5 501.1875 Z M 445.5 501.1875 " fill-opacity="1" fill-rule="nonzero"/><path fill="#f5c022" d="M 496.125 460.6875 L 465.75 460.6875 C 462.953125 460.6875 460.6875 458.421875 460.6875 455.625 C 460.6875 452.828125 462.953125 450.5625 465.75 450.5625 L 496.125 450.5625 C 498.921875 450.5625 501.1875 452.828125 501.1875 455.625 C 501.1875 458.421875 498.921875 460.6875 496.125 460.6875 Z M 496.125 460.6875 " fill-opacity="1" fill-rule="nonzero"/><path fill="#f5c022" d="M 480.9375 501.1875 C 478.140625 501.1875 475.875 498.921875 475.875 496.125 L 475.875 455.625 C 475.875 452.828125 478.140625 450.5625 480.9375 450.5625 C 483.734375 450.5625 486 452.828125 486 455.625 L 486 496.125 C 486 498.921875 483.734375 501.1875 480.9375 501.1875 Z M 480.9375 501.1875 " fill-opacity="1" fill-rule="nonzero"/><path fill="#f5c022" d="M 526.5 501.1875 L 516.375 501.1875 C 513.578125 501.1875 511.3125 498.921875 511.3125 496.125 C 511.3125 493.328125 513.578125 491.0625 516.375 491.0625 L 526.5 491.0625 C 529.292969 491.0625 531.5625 488.792969 531.5625 486 C 531.5625 483.207031 529.292969 480.9375 526.5 480.9375 C 518.125 480.9375 511.3125 474.125 511.3125 465.75 C 511.3125 457.375 518.125 450.5625 526.5 450.5625 L 536.625 450.5625 C 539.421875 450.5625 541.6875 452.828125 541.6875 455.625 C 541.6875 458.421875 539.421875 460.6875 536.625 460.6875 L 526.5 460.6875 C 523.707031 460.6875 521.4375 462.957031 521.4375 465.75 C 521.4375 468.542969 523.707031 470.8125 526.5 470.8125 C 534.875 470.8125 541.6875 477.625 541.6875 486 C 541.6875 494.375 534.875 501.1875 526.5 501.1875 Z M 526.5 501.1875 " fill-opacity="1" fill-rule="nonzero"/></svg>