<svg xmlns="http://www.w3.org/2000/svg" xmlns:xlink="http://www.w3.org/1999/xlink" width="1080" zoomAndPan="magnify" viewBox="0 0 810 809.999993" height="1080" preserveAspectRatio="xMidYMid meet" version="1.0"><defs><filter x="0%" y="0%" width="100%" height="100%" id="ab85564a3e"><feColorMatrix values="0 0 0 0 1 0 0 0 0 1 0 0 0 0 1 0 0 0 1 0" color-interpolation-filters="sRGB"/></filter><mask id="2f5602dca1"><g filter="url(#ab85564a3e)"><rect x="-81" width="972" fill="#000000" y="-80.999999" height="971.999992" fill-opacity="0.8"/></g></mask><clipPath id="5c978fb6b7"><path d="M 0.746094 0.746094 L 445.359375 0.746094 L 445.359375 445.359375 L 0.746094 445.359375 Z M 0.746094 0.746094 " clip-rule="nonzero"/></clipPath><clipPath id="4cad4bae69"><rect x="0" width="446" y="0" height="446"/></clipPath><clipPath id="e994af4452"><path d="M 243.160156 281.476562 L 566.824219 281.476562 L 566.824219 528.226562 L 243.160156 528.226562 Z M 243.160156 281.476562 " clip-rule="nonzero"/></clipPath></defs><g mask="url(#2f5602dca1)"><g transform="matrix(1, 0, 0, 1, 182, 182)"><g clip-path="url(#4cad4bae69)"><g clip-path="url(#5c978fb6b7)"><path fill="#0b656a" d="M 222.996094 445.25 C 100.757812 445.25 0.746094 345.234375 0.746094 222.996094 C 0.746094 100.757812 100.757812 0.746094 222.996094 0.746094 C 345.234375 0.746094 445.25 100.757812 445.25 222.996094 C 445.25 345.234375 345.234375 445.25 222.996094 445.25 Z M 222.996094 445.25 " fill-opacity="1" fill-rule="nonzero"/></g></g></g></g><g clip-path="url(#e994af4452)"><path fill="#f5c022" d="M 487.042969 478.238281 C 487.042969 494.527344 500.25 507.734375 516.539062 507.734375 C 532.832031 507.734375 546.03125 494.527344 546.03125 478.238281 C 546.03125 461.941406 532.832031 448.742188 516.539062 448.742188 C 500.25 448.742188 487.042969 461.941406 487.042969 478.238281 Z M 516.539062 513.496094 C 536.011719 513.496094 551.800781 497.710938 551.800781 478.238281 C 551.800781 458.765625 536.011719 442.980469 516.539062 442.980469 C 497.0625 442.980469 481.277344 458.765625 481.277344 478.238281 C 481.277344 497.710938 497.0625 513.496094 516.539062 513.496094 Z M 516.539062 427.953125 C 544.308594 427.953125 566.824219 450.464844 566.824219 478.238281 C 566.824219 506.007812 544.308594 528.523438 516.539062 528.523438 C 488.765625 528.523438 466.253906 506.007812 466.253906 478.238281 C 466.253906 450.464844 488.765625 427.953125 516.539062 427.953125 Z M 271.945312 458.90625 C 271.945312 481.453125 290.230469 499.738281 312.777344 499.738281 C 335.335938 499.738281 353.609375 481.453125 353.609375 458.90625 C 353.609375 436.34375 335.335938 418.070312 312.777344 418.070312 C 290.230469 418.070312 271.945312 436.34375 271.945312 458.90625 Z M 312.777344 507.71875 C 339.738281 507.71875 361.597656 485.863281 361.597656 458.90625 C 361.597656 431.945312 339.738281 410.089844 312.777344 410.089844 C 285.816406 410.089844 263.960938 431.945312 263.960938 458.90625 C 263.960938 485.863281 285.816406 507.71875 312.777344 507.71875 Z M 312.777344 389.285156 C 351.226562 389.285156 382.398438 420.449219 382.398438 458.902344 C 382.398438 497.351562 351.226562 528.523438 312.777344 528.523438 C 274.328125 528.523438 243.160156 497.351562 243.160156 458.902344 C 243.160156 420.449219 274.328125 389.285156 312.777344 389.285156 Z M 404.859375 362.253906 C 409.871094 362.351562 410.035156 360.261719 409.402344 356.550781 C 406.730469 341.171875 404.253906 325.75 401.441406 310.394531 C 399.339844 298.945312 399.144531 299.0625 387.496094 299.140625 C 376.246094 299.21875 364.992188 299.304688 353.75 298.964844 C 348.617188 298.8125 346.472656 300.015625 346.84375 305.699219 C 347.390625 314.007812 346.984375 322.367188 346.984375 330.710938 C 346.976562 339.421875 347.152344 348.144531 346.886719 356.859375 C 346.777344 360.777344 347.710938 362.242188 351.96875 362.1875 C 369.601562 361.960938 387.234375 361.894531 404.859375 362.253906 Z M 434.433594 439.859375 C 436.554688 441.777344 449.066406 440.464844 450.621094 437.988281 C 460.832031 421.777344 475.316406 411.152344 493.519531 405.675781 C 497.613281 404.441406 497.066406 401.824219 497.085938 399.011719 C 497.207031 389.125 497.195312 389.171875 487.410156 389.257812 C 479.96875 389.324219 472.535156 389.269531 465.089844 389.269531 L 465.089844 389.335938 C 455.832031 389.335938 446.5625 389.378906 437.300781 389.300781 C 434.828125 389.289062 433.613281 389.453125 433.667969 392.75 C 433.90625 407.4375 433.6875 422.128906 433.632812 436.828125 C 433.625 437.914062 433.492188 439.007812 434.433594 439.859375 Z M 337.144531 330.269531 L 337.101562 330.269531 C 337.101562 321.351562 336.90625 312.417969 337.191406 303.507812 C 337.3125 299.777344 336.195312 298.964844 332.570312 299.109375 C 324.976562 299.414062 317.355469 299.140625 309.75 299.042969 C 306.640625 299.007812 304.933594 299.777344 304.351562 303.464844 C 301.453125 321.953125 298.257812 340.386719 294.917969 358.796875 C 294.359375 361.90625 295.300781 362.070312 297.839844 362.058594 C 309.628906 362.027344 321.417969 362.210938 333.207031 362.222656 C 335.753906 362.222656 337.367188 361.488281 337.257812 358.105469 C 336.9375 348.835938 337.144531 339.554688 337.144531 330.269531 Z M 345.664062 387.703125 C 319.480469 375.46875 294.011719 378.136719 269.765625 393.308594 C 266.84375 395.136719 265.453125 395.082031 263.710938 392.410156 C 262.824219 391.042969 261.664062 389.851562 260.691406 388.527344 C 258.402344 385.429688 258.28125 382.832031 261.828125 380.25 C 268.429688 375.445312 274.777344 370.277344 281.257812 365.296875 C 283.457031 363.601562 285.230469 361.863281 285.710938 358.796875 C 288.570312 340.890625 291.402344 322.960938 294.707031 305.128906 C 295.640625 300.160156 295.160156 298.199219 289.621094 298.945312 C 284.859375 299.578125 282.539062 296.972656 282.714844 292.167969 C 282.777344 290.527344 282.832031 288.886719 282.757812 287.253906 C 282.550781 283.050781 284.476562 281.453125 288.667969 281.476562 C 309.726562 281.585938 330.785156 281.519531 351.847656 281.519531 L 351.847656 281.574219 C 373.289062 281.574219 394.742188 281.585938 416.1875 281.574219 C 418.035156 281.574219 420.238281 281.300781 420.992188 283.292969 C 422.644531 287.648438 422.546875 292.355469 421.167969 296.601562 C 420.070312 299.972656 415.957031 299.261719 413.429688 298.933594 C 408.765625 298.308594 409.226562 300.847656 409.683594 303.59375 C 412.769531 321.851562 415.980469 340.089844 419 358.359375 C 419.414062 360.863281 419.898438 362.125 422.929688 362.070312 C 431.808594 361.894531 440.695312 362.089844 449.570312 362.265625 C 453.28125 362.34375 454.976562 361.46875 454.757812 357.054688 C 454.496094 351.769531 452.757812 345.332031 457.300781 341.480469 C 462.222656 337.285156 461.730469 332.449219 461.742188 327.273438 C 461.742188 324 461.675781 320.707031 461.886719 317.441406 C 462.203125 312.222656 465.269531 308.597656 469.582031 306.253906 C 471.210938 305.359375 474.242188 303.410156 475.4375 305.675781 C 476.730469 308.148438 477.65625 312.234375 474.550781 314.105469 C 471.003906 316.25 470.851562 319.09375 470.871094 322.402344 C 470.90625 326.398438 471.136719 330.414062 470.917969 334.398438 C 470.804688 336.488281 471.386719 337.792969 473.027344 338.953125 C 476.992188 341.734375 477.765625 345.78125 477.945312 350.367188 C 478.523438 365.175781 474.636719 361.980469 489.558594 362.363281 C 502.167969 362.691406 514.796875 361.597656 527.386719 362.847656 C 537.09375 363.796875 543.976562 373.5625 542.316406 383.105469 C 540.269531 394.929688 538.167969 406.738281 536.570312 418.625 C 535.945312 423.210938 534.390625 424.085938 530.078125 423.027344 C 501.683594 416.03125 474.613281 428.9375 462.332031 455.359375 C 460.933594 458.371094 459.300781 459.191406 456.203125 459.167969 C 436.882812 459.039062 417.578125 458.941406 398.269531 459.191406 C 393.605469 459.246094 391.820312 458.269531 391.328125 453.195312 C 388.375 422.925781 373.367188 400.652344 345.664062 387.703125 " fill-opacity="1" fill-rule="nonzero"/></g></svg>