<svg xmlns="http://www.w3.org/2000/svg" xmlns:xlink="http://www.w3.org/1999/xlink" width="1080" zoomAndPan="magnify" viewBox="0 0 810 809.999993" height="1080" preserveAspectRatio="xMidYMid meet" version="1.0"><defs><filter x="0%" y="0%" width="100%" height="100%" id="366ffcba9f"><feColorMatrix values="0 0 0 0 1 0 0 0 0 1 0 0 0 0 1 0 0 0 1 0" color-interpolation-filters="sRGB"/></filter><mask id="841c770ad1"><g filter="url(#366ffcba9f)"><rect x="-81" width="972" fill="#000000" y="-80.999999" height="971.999992" fill-opacity="0.8"/></g></mask><clipPath id="b95850f525"><path d="M 0.746094 0.746094 L 445.359375 0.746094 L 445.359375 445.359375 L 0.746094 445.359375 Z M 0.746094 0.746094 " clip-rule="nonzero"/></clipPath><clipPath id="deb9f52b86"><rect x="0" width="446" y="0" height="446"/></clipPath><clipPath id="c1e13df1bb"><path d="M 243 243 L 567 243 L 567 567 L 243 567 Z M 243 243 " clip-rule="nonzero"/></clipPath></defs><g mask="url(#841c770ad1)"><g transform="matrix(1, 0, 0, 1, 182, 182)"><g clip-path="url(#deb9f52b86)"><g clip-path="url(#b95850f525)"><path fill="#0b656a" d="M 222.996094 445.25 C 100.757812 445.25 0.746094 345.234375 0.746094 222.996094 C 0.746094 100.757812 100.757812 0.746094 222.996094 0.746094 C 345.234375 0.746094 445.25 100.757812 445.25 222.996094 C 445.25 345.234375 345.234375 445.25 222.996094 445.25 Z M 222.996094 445.25 " fill-opacity="1" fill-rule="nonzero"/></g></g></g></g><g clip-path="url(#c1e13df1bb)"><path fill="#f5c022" d="M 405.035156 550.359375 C 324.898438 550.359375 259.703125 485.171875 259.703125 405.042969 C 259.703125 324.90625 324.898438 259.710938 405.035156 259.710938 C 485.171875 259.710938 550.367188 324.90625 550.367188 405.042969 C 550.367188 485.171875 485.171875 550.359375 405.035156 550.359375 Z M 405.035156 243.023438 C 315.699219 243.023438 243.019531 315.703125 243.019531 405.042969 C 243.019531 494.371094 315.699219 567.050781 405.035156 567.050781 C 494.371094 567.050781 567.050781 494.371094 567.050781 405.042969 C 567.050781 315.703125 494.371094 243.023438 405.035156 243.023438 " fill-opacity="1" fill-rule="nonzero"/></g><path fill="#f5c022" d="M 479.511719 306.75 C 479.511719 306.75 436.144531 292.386719 429.230469 366.070312 C 422.308594 439.769531 452.910156 431.253906 452.910156 431.253906 L 452.910156 494.304688 C 452.910156 494.304688 455.308594 506.015625 468.074219 506.015625 C 480.847656 506.015625 479.511719 492.980469 479.511719 492.980469 L 479.511719 306.75 " fill-opacity="1" fill-rule="nonzero"/><path fill="#f5c022" d="M 400.320312 304.078125 C 390.496094 304.078125 391.226562 317.644531 391.226562 317.644531 L 391.226562 374.480469 C 391.226562 374.480469 391.386719 380.535156 382.152344 380.535156 C 374.710938 380.535156 374.902344 374.046875 374.902344 374.046875 L 374.902344 317.9375 C 374.902344 317.9375 374.902344 306.09375 367.964844 306.09375 C 361.035156 306.09375 359.878906 317.644531 359.878906 317.644531 L 359.878906 373.40625 C 359.878906 373.40625 359.878906 379.175781 351.789062 379.175781 C 345.878906 379.175781 341.898438 375.1875 342.257812 371.671875 L 342.257812 317.078125 C 342.257812 317.078125 341.105469 306.953125 335.03125 306.953125 C 328.964844 306.953125 327.238281 316.210938 327.238281 316.210938 C 327.238281 316.210938 322.898438 360.980469 325.210938 386.996094 C 327.519531 412.992188 353.921875 417.902344 353.921875 417.902344 L 353.921875 489.546875 C 353.921875 489.546875 353.921875 504.558594 366.632812 504.558594 C 379.34375 504.558594 379.050781 489.253906 379.050781 489.253906 L 379.050781 418.195312 C 401.300781 410.398438 409.160156 396.347656 409.160156 388.550781 C 409.160156 380.75 408.414062 317.363281 408.414062 317.363281 C 408.414062 317.363281 408.121094 304.078125 400.320312 304.078125 " fill-opacity="1" fill-rule="nonzero"/></svg>