<svg xmlns="http://www.w3.org/2000/svg" xmlns:xlink="http://www.w3.org/1999/xlink" width="1080" zoomAndPan="magnify" viewBox="0 0 810 809.999993" height="1080" preserveAspectRatio="xMidYMid meet" version="1.0"><defs><filter x="0%" y="0%" width="100%" height="100%" id="264c36f5d1"><feColorMatrix values="0 0 0 0 1 0 0 0 0 1 0 0 0 0 1 0 0 0 1 0" color-interpolation-filters="sRGB"/></filter><mask id="60e24481c4"><g filter="url(#264c36f5d1)"><rect x="-81" width="972" fill="#000000" y="-80.999999" height="971.999992" fill-opacity="0.8"/></g></mask><clipPath id="371a29a10a"><path d="M 0.746094 0.746094 L 445.359375 0.746094 L 445.359375 445.359375 L 0.746094 445.359375 Z M 0.746094 0.746094 " clip-rule="nonzero"/></clipPath><clipPath id="200103185a"><rect x="0" width="446" y="0" height="446"/></clipPath><clipPath id="34f7d06a7e"><path d="M 251 286 L 559 286 L 559 568.394531 L 251 568.394531 Z M 251 286 " clip-rule="nonzero"/></clipPath></defs><g mask="url(#60e24481c4)"><g transform="matrix(1, 0, 0, 1, 182, 182)"><g clip-path="url(#200103185a)"><g clip-path="url(#371a29a10a)"><path fill="#0b656a" d="M 222.996094 445.25 C 100.757812 445.25 0.746094 345.234375 0.746094 222.996094 C 0.746094 100.757812 100.757812 0.746094 222.996094 0.746094 C 345.234375 0.746094 445.25 100.757812 445.25 222.996094 C 445.25 345.234375 345.234375 445.25 222.996094 445.25 Z M 222.996094 445.25 " fill-opacity="1" fill-rule="nonzero"/></g></g></g></g><g clip-path="url(#34f7d06a7e)"><path fill="#f5c022" d="M 364.414062 418.269531 L 261.753906 418.269531 C 243.308594 382.847656 249.496094 341.117188 277.667969 313.097656 C 312.925781 278.023438 369.929688 278.175781 404.996094 313.433594 C 440.066406 278.175781 497.074219 278.023438 532.328125 313.097656 C 560.503906 341.117188 566.691406 382.847656 548.246094 418.269531 L 471.453125 418.269531 L 452.964844 383.492188 L 452.78125 382.964844 L 452.734375 383.0625 L 452.71875 383.027344 L 452.617188 383.320312 L 426.839844 438.601562 L 394.085938 331.46875 L 388.394531 368.160156 L 372.074219 444.925781 L 365.917969 417.949219 Z M 353.535156 433.644531 L 271.667969 433.644531 C 274.304688 437.019531 277.203125 440.296875 280.363281 443.460938 C 323.640625 486.734375 392.878906 556.003906 404.996094 568.128906 C 417.125 556.003906 486.355469 486.734375 529.636719 443.460938 C 532.796875 440.296875 535.695312 437.019531 538.332031 433.644531 L 462.347656 433.644531 L 462.246094 433.699219 L 462.214844 433.644531 L 461.988281 433.644531 L 461.988281 433.214844 L 453.636719 417.507812 L 424.074219 480.910156 L 416.992188 459.714844 L 417.125 459.433594 L 397.757812 398.050781 L 380.214844 480.578125 L 380.261719 480.773438 L 371.5 518.167969 Z M 353.535156 433.644531 " fill-opacity="1" fill-rule="evenodd"/></g></svg>