<svg xmlns="http://www.w3.org/2000/svg" xmlns:xlink="http://www.w3.org/1999/xlink" width="1080" zoomAndPan="magnify" viewBox="0 0 810 809.999993" height="1080" preserveAspectRatio="xMidYMid meet" version="1.0"><defs><filter x="0%" y="0%" width="100%" height="100%" id="d52618df28"><feColorMatrix values="0 0 0 0 1 0 0 0 0 1 0 0 0 0 1 0 0 0 1 0" color-interpolation-filters="sRGB"/></filter><mask id="f715dfa39f"><g filter="url(#d52618df28)"><rect x="-81" width="972" fill="#000000" y="-80.999999" height="971.999992" fill-opacity="0.8"/></g></mask><clipPath id="f06fdf477a"><path d="M 0.746094 0.746094 L 445.359375 0.746094 L 445.359375 445.359375 L 0.746094 445.359375 Z M 0.746094 0.746094 " clip-rule="nonzero"/></clipPath><clipPath id="9512bfb95f"><rect x="0" width="446" y="0" height="446"/></clipPath></defs><g mask="url(#f715dfa39f)"><g transform="matrix(1, 0, 0, 1, 182, 182)"><g clip-path="url(#9512bfb95f)"><g clip-path="url(#f06fdf477a)"><path fill="#0b656a" d="M 222.996094 445.25 C 100.757812 445.25 0.746094 345.234375 0.746094 222.996094 C 0.746094 100.757812 100.757812 0.746094 222.996094 0.746094 C 345.234375 0.746094 445.25 100.757812 445.25 222.996094 C 445.25 345.234375 345.234375 445.25 222.996094 445.25 Z M 222.996094 445.25 " fill-opacity="1" fill-rule="nonzero"/></g></g></g></g><path fill="#f5c022" d="M 405 243 C 494.101562 243 567 315.898438 567 405 C 567 494.101562 494.101562 567 405 567 C 315.898438 567 243 494.101562 243 405 C 243 315.898438 315.898438 243 405 243 Z M 405 260.945312 C 325.769531 260.945312 260.945312 325.769531 260.945312 405 C 260.945312 484.230469 325.769531 549.054688 405 549.054688 C 484.230469 549.054688 549.054688 484.230469 549.054688 405 C 549.054688 325.769531 484.230469 260.945312 405 260.945312 " fill-opacity="1" fill-rule="evenodd"/><path fill="#f5c022" d="M 340.132812 399.789062 L 402.988281 339.355469 C 404.117188 338.269531 405.898438 338.28125 407.011719 339.367188 L 407.03125 339.382812 L 469.222656 399.796875 L 469.242188 399.816406 L 471.273438 401.636719 C 471.910156 402.207031 472.234375 402.996094 472.234375 403.789062 L 472.25 403.789062 L 472.25 493.257812 C 472.25 494.859375 470.949219 496.15625 469.351562 496.15625 L 424.808594 496.15625 L 424.808594 441.757812 C 424.808594 440.15625 423.511719 438.855469 421.910156 438.855469 L 388.089844 438.855469 C 386.488281 438.855469 385.191406 440.15625 385.191406 441.757812 L 385.191406 496.15625 L 340.652344 496.15625 C 339.050781 496.15625 337.75 494.859375 337.75 493.257812 L 337.75 403.304688 C 337.75 402.40625 338.160156 401.605469 338.796875 401.074219 L 340.132812 399.789062 " fill-opacity="1" fill-rule="evenodd"/><path fill="#f5c022" d="M 405 324.546875 L 319.078125 406.136719 C 316.761719 408.339844 313.09375 408.25 310.890625 405.933594 C 308.6875 403.617188 308.777344 399.945312 311.097656 397.742188 L 401.007812 312.359375 C 403.246094 310.234375 406.757812 310.234375 408.992188 312.359375 L 498.902344 397.742188 C 501.222656 399.945312 501.3125 403.617188 499.109375 405.933594 C 496.90625 408.25 493.238281 408.339844 490.921875 406.136719 L 405 324.546875 " fill-opacity="1" fill-rule="evenodd"/><path fill="#f5c022" d="M 353.554688 366.996094 L 342.152344 383.320312 L 331.9375 383.320312 L 331.9375 333.125 L 360.742188 333.125 L 360.742188 365.9375 L 353.554688 366.996094 " fill-opacity="1" fill-rule="evenodd"/></svg>