<svg xmlns="http://www.w3.org/2000/svg" xmlns:xlink="http://www.w3.org/1999/xlink" width="1080" zoomAndPan="magnify" viewBox="0 0 810 809.999993" height="1080" preserveAspectRatio="xMidYMid meet" version="1.0"><defs><filter x="0%" y="0%" width="100%" height="100%" id="0660d9ba0c"><feColorMatrix values="0 0 0 0 1 0 0 0 0 1 0 0 0 0 1 0 0 0 1 0" color-interpolation-filters="sRGB"/></filter><mask id="e1ff2b6ce9"><g filter="url(#0660d9ba0c)"><rect x="-81" width="972" fill="#000000" y="-80.999999" height="971.999992" fill-opacity="0.8"/></g></mask><clipPath id="8f0b4f0e94"><path d="M 0.746094 0.746094 L 445.359375 0.746094 L 445.359375 445.359375 L 0.746094 445.359375 Z M 0.746094 0.746094 " clip-rule="nonzero"/></clipPath><clipPath id="d4b58fc95a"><rect x="0" width="446" y="0" height="446"/></clipPath><clipPath id="9f53b91ca0"><path d="M 202.34375 365 L 279 365 L 279 376 L 202.34375 376 Z M 202.34375 365 " clip-rule="nonzero"/></clipPath><clipPath id="6c645cfa5a"><path d="M 284 282.644531 L 587.84375 282.644531 L 587.84375 535.609375 L 284 535.609375 Z M 284 282.644531 " clip-rule="nonzero"/></clipPath></defs><g mask="url(#e1ff2b6ce9)"><g transform="matrix(1, 0, 0, 1, 182, 182)"><g clip-path="url(#d4b58fc95a)"><g clip-path="url(#8f0b4f0e94)"><path fill="#0b656a" d="M 222.996094 445.25 C 100.757812 445.25 0.746094 345.234375 0.746094 222.996094 C 0.746094 100.757812 100.757812 0.746094 222.996094 0.746094 C 345.234375 0.746094 445.25 100.757812 445.25 222.996094 C 445.25 345.234375 345.234375 445.25 222.996094 445.25 Z M 222.996094 445.25 " fill-opacity="1" fill-rule="nonzero"/></g></g></g></g><path fill="#f5c022" d="M 298.953125 410.394531 C 298.953125 407.617188 296.699219 405.363281 293.917969 405.363281 L 240.382812 405.363281 C 237.601562 405.363281 235.347656 407.617188 235.347656 410.394531 C 235.347656 413.175781 237.601562 415.429688 240.382812 415.429688 L 293.917969 415.429688 C 296.699219 415.429688 298.953125 413.175781 298.953125 410.394531 " fill-opacity="1" fill-rule="nonzero"/><path fill="#f5c022" d="M 293.917969 325.703125 L 240.382812 325.703125 C 237.601562 325.703125 235.347656 327.957031 235.347656 330.734375 C 235.347656 333.511719 237.601562 335.769531 240.382812 335.769531 L 293.917969 335.769531 C 296.699219 335.769531 298.953125 333.511719 298.953125 330.734375 C 298.953125 327.957031 296.699219 325.703125 293.917969 325.703125 " fill-opacity="1" fill-rule="nonzero"/><g clip-path="url(#9f53b91ca0)"><path fill="#f5c022" d="M 207.378906 375.597656 L 273.660156 375.597656 C 276.4375 375.597656 278.691406 373.34375 278.691406 370.5625 C 278.691406 367.785156 276.4375 365.53125 273.660156 365.53125 L 207.378906 365.53125 C 204.59375 365.53125 202.34375 367.785156 202.34375 370.5625 C 202.34375 373.34375 204.59375 375.597656 207.378906 375.597656 " fill-opacity="1" fill-rule="nonzero"/></g><path fill="#f5c022" d="M 531.804688 489.546875 C 526.140625 489.546875 521.546875 494.136719 521.546875 499.804688 C 521.546875 505.46875 526.140625 510.058594 531.804688 510.058594 C 537.46875 510.058594 542.0625 505.46875 542.0625 499.804688 C 542.0625 494.136719 537.46875 489.546875 531.804688 489.546875 " fill-opacity="1" fill-rule="nonzero"/><path fill="#f5c022" d="M 340.332031 489.546875 C 334.664062 489.546875 330.074219 494.136719 330.074219 499.804688 C 330.074219 505.46875 334.664062 510.058594 340.332031 510.058594 C 345.996094 510.058594 350.585938 505.46875 350.585938 499.804688 C 350.585938 494.136719 345.996094 489.546875 340.332031 489.546875 " fill-opacity="1" fill-rule="nonzero"/><path fill="#f5c022" d="M 552.851562 429.570312 L 495.90625 429.570312 L 495.90625 372.617188 L 515.597656 372.617188 L 552.851562 409.878906 Z M 485.839844 362.550781 L 485.839844 439.632812 L 562.917969 439.632812 L 562.917969 405.710938 L 519.761719 362.550781 L 485.839844 362.550781 " fill-opacity="1" fill-rule="nonzero"/><g clip-path="url(#6c645cfa5a)"><path fill="#f5c022" d="M 578.058594 489.902344 C 578.058594 492.507812 575.9375 494.632812 573.332031 494.632812 L 567.195312 494.632812 C 564.675781 477.335938 549.792969 463.996094 531.804688 463.996094 C 513.820312 463.996094 498.933594 477.335938 496.414062 494.632812 L 375.714844 494.632812 C 373.195312 477.335938 358.3125 463.996094 340.328125 463.996094 C 322.347656 463.996094 307.46875 477.332031 304.945312 494.621094 C 298.941406 494.570312 294.074219 489.679688 294.074219 483.667969 L 294.074219 456.828125 L 470.507812 456.828125 L 470.507812 347.414062 L 508.285156 347.414062 C 519.902344 347.414062 530.820312 351.9375 539.039062 360.152344 L 565.320312 386.433594 C 573.535156 394.648438 578.058594 405.570312 578.058594 417.1875 Z M 531.804688 525.546875 C 517.613281 525.546875 506.0625 514 506.0625 499.804688 C 506.0625 485.609375 517.613281 474.066406 531.804688 474.066406 C 546 474.066406 557.546875 485.609375 557.546875 499.804688 C 557.546875 514 546 525.546875 531.804688 525.546875 Z M 340.328125 525.546875 C 326.132812 525.546875 314.589844 514 314.589844 499.804688 C 314.589844 485.609375 326.132812 474.066406 340.328125 474.066406 C 354.519531 474.066406 366.070312 485.609375 366.070312 499.804688 C 366.070312 514 354.519531 525.546875 340.328125 525.546875 Z M 546.15625 353.039062 C 536.042969 342.921875 522.589844 337.351562 508.285156 337.351562 L 470.507812 337.351562 L 470.507812 298.5625 C 470.507812 289.78125 463.367188 282.640625 454.585938 282.640625 L 299.925781 282.640625 C 291.148438 282.640625 284.007812 289.78125 284.007812 298.5625 L 284.007812 312.617188 C 284.007812 315.398438 286.257812 317.648438 289.039062 317.648438 C 291.820312 317.648438 294.074219 315.398438 294.074219 312.617188 L 294.074219 298.5625 C 294.074219 295.332031 296.699219 292.707031 299.925781 292.707031 L 454.585938 292.707031 C 457.8125 292.707031 460.445312 295.332031 460.445312 298.5625 L 460.445312 446.765625 L 294.074219 446.765625 L 294.074219 430.964844 C 294.074219 428.1875 291.820312 425.933594 289.039062 425.933594 C 286.257812 425.933594 284.007812 428.1875 284.007812 430.964844 L 284.007812 483.667969 C 284.007812 495.214844 293.371094 504.609375 304.898438 504.683594 C 307.292969 522.117188 322.242188 535.609375 340.328125 535.609375 C 358.410156 535.609375 373.363281 522.128906 375.761719 504.699219 L 496.371094 504.699219 C 498.773438 522.128906 513.722656 535.609375 531.804688 535.609375 C 549.886719 535.609375 564.839844 522.128906 567.238281 504.699219 L 573.332031 504.699219 C 581.492188 504.699219 588.125 498.0625 588.125 489.902344 L 588.125 417.1875 C 588.125 402.882812 582.550781 389.433594 572.4375 379.316406 L 546.15625 353.039062 " fill-opacity="1" fill-rule="nonzero"/></g></svg>