<svg xmlns="http://www.w3.org/2000/svg" xmlns:xlink="http://www.w3.org/1999/xlink" width="1080" zoomAndPan="magnify" viewBox="0 0 810 809.999993" height="1080" preserveAspectRatio="xMidYMid meet" version="1.0"><defs><filter x="0%" y="0%" width="100%" height="100%" id="e5fbaa58ed"><feColorMatrix values="0 0 0 0 1 0 0 0 0 1 0 0 0 0 1 0 0 0 1 0" color-interpolation-filters="sRGB"/></filter><mask id="ef9ba1fca1"><g filter="url(#e5fbaa58ed)"><rect x="-81" width="972" fill="#000000" y="-80.999999" height="971.999992" fill-opacity="0.8"/></g></mask><clipPath id="7558677491"><path d="M 0.746094 0.746094 L 445.359375 0.746094 L 445.359375 445.359375 L 0.746094 445.359375 Z M 0.746094 0.746094 " clip-rule="nonzero"/></clipPath><clipPath id="df1a338edb"><rect x="0" width="446" y="0" height="446"/></clipPath><clipPath id="b5e5a18077"><path d="M 265.640625 270.695312 L 542 270.695312 L 542 537 L 265.640625 537 Z M 265.640625 270.695312 " clip-rule="nonzero"/></clipPath></defs><g mask="url(#ef9ba1fca1)"><g transform="matrix(1, 0, 0, 1, 182, 182)"><g clip-path="url(#df1a338edb)"><g clip-path="url(#7558677491)"><path fill="#0b656a" d="M 222.996094 445.25 C 100.757812 445.25 0.746094 345.234375 0.746094 222.996094 C 0.746094 100.757812 100.757812 0.746094 222.996094 0.746094 C 345.234375 0.746094 445.25 100.757812 445.25 222.996094 C 445.25 345.234375 345.234375 445.25 222.996094 445.25 Z M 222.996094 445.25 " fill-opacity="1" fill-rule="nonzero"/></g></g></g></g><g clip-path="url(#b5e5a18077)"><path fill="#f5c022" d="M 536.949219 465.949219 L 480.066406 465.949219 L 480.066406 462.324219 C 480.042969 461.992188 479.988281 461.660156 479.902344 461.335938 C 479.8125 461.011719 479.699219 460.699219 479.550781 460.398438 C 479.40625 460.09375 479.234375 459.808594 479.03125 459.539062 C 478.832031 459.269531 478.609375 459.023438 478.363281 458.796875 C 478.113281 458.566406 477.847656 458.367188 477.5625 458.1875 C 477.277344 458.011719 476.980469 457.863281 476.664062 457.742188 C 476.351562 457.625 476.03125 457.535156 475.699219 457.476562 C 475.371094 457.417969 475.035156 457.386719 474.699219 457.390625 C 473.933594 457.390625 473.175781 457.316406 472.421875 457.164062 C 471.671875 457.015625 470.941406 456.792969 470.234375 456.5 C 469.523438 456.207031 468.851562 455.84375 468.214844 455.417969 C 467.578125 454.992188 466.988281 454.507812 466.445312 453.964844 C 465.902344 453.425781 465.417969 452.835938 464.992188 452.199219 C 464.566406 451.558594 464.207031 450.886719 463.910156 450.179688 C 463.617188 449.46875 463.394531 448.742188 463.246094 447.988281 C 463.09375 447.238281 463.019531 446.476562 463.019531 445.710938 L 463.019531 437.671875 C 463.5625 436.980469 464.183594 436.375 464.894531 435.855469 C 465.601562 435.332031 466.363281 434.917969 467.183594 434.609375 C 468.007812 434.296875 468.855469 434.101562 469.730469 434.023438 C 470.601562 433.945312 471.472656 433.984375 472.335938 434.144531 C 508.007812 445.019531 544.523438 412.453125 537.515625 375.78125 C 537.355469 374.925781 537.078125 374.109375 536.691406 373.328125 C 536.300781 372.546875 535.8125 371.835938 535.226562 371.191406 C 534.636719 370.546875 533.972656 369.996094 533.230469 369.539062 C 532.492188 369.078125 531.703125 368.730469 530.863281 368.488281 C 530.027344 368.25 529.171875 368.128906 528.300781 368.128906 C 527.425781 368.125 526.570312 368.242188 525.734375 368.480469 C 524.894531 368.714844 524.101562 369.0625 523.359375 369.515625 C 522.617188 369.972656 521.949219 370.523438 521.359375 371.164062 L 494.460938 401.125 L 475.089844 395.882812 L 467.828125 377.460938 L 493.804688 348.46875 C 494.410156 347.808594 494.90625 347.070312 495.296875 346.265625 C 495.683594 345.457031 495.949219 344.613281 496.089844 343.726562 C 496.234375 342.84375 496.246094 341.957031 496.128906 341.066406 C 496.011719 340.179688 495.769531 339.324219 495.40625 338.507812 C 490.375 327.597656 470.953125 334.832031 462.921875 338.570312 L 462.921875 328.777344 C 462.921875 326.875 462.824219 324.980469 462.636719 323.085938 C 462.449219 321.195312 462.167969 319.316406 461.796875 317.453125 C 461.421875 315.589844 460.960938 313.75 460.40625 311.929688 C 459.855469 310.113281 459.210938 308.324219 458.484375 306.570312 C 457.753906 304.8125 456.941406 303.097656 456.046875 301.421875 C 455.148438 299.746094 454.171875 298.117188 453.117188 296.535156 C 452.058594 294.957031 450.925781 293.429688 449.722656 291.960938 C 448.515625 290.492188 447.238281 289.085938 445.894531 287.742188 C 444.550781 286.398438 443.144531 285.125 441.675781 283.917969 C 440.207031 282.710938 438.679688 281.578125 437.101562 280.523438 C 435.519531 279.464844 433.890625 278.488281 432.214844 277.59375 C 430.539062 276.695312 428.824219 275.882812 427.070312 275.15625 C 425.3125 274.425781 423.527344 273.785156 421.707031 273.234375 C 419.886719 272.679688 418.046875 272.21875 416.183594 271.84375 C 414.320312 271.472656 412.441406 271.191406 410.550781 271.003906 C 408.65625 270.816406 406.761719 270.722656 404.859375 270.71875 L 386.507812 270.71875 C 386.183594 270.71875 385.863281 270.75 385.542969 270.8125 C 385.226562 270.875 384.917969 270.96875 384.617188 271.09375 C 384.320312 271.21875 384.035156 271.371094 383.765625 271.550781 C 383.496094 271.730469 383.246094 271.933594 383.019531 272.164062 C 382.789062 272.390625 382.585938 272.640625 382.40625 272.910156 C 382.226562 273.179688 382.074219 273.464844 381.949219 273.765625 C 381.824219 274.0625 381.730469 274.371094 381.667969 274.6875 C 381.605469 275.007812 381.574219 275.328125 381.574219 275.652344 L 381.574219 279.433594 L 347.015625 279.433594 L 347.015625 275.667969 C 347.015625 275.34375 346.984375 275.019531 346.921875 274.703125 C 346.859375 274.386719 346.765625 274.078125 346.640625 273.777344 C 346.519531 273.480469 346.367188 273.195312 346.1875 272.925781 C 346.007812 272.65625 345.800781 272.40625 345.574219 272.175781 C 345.34375 271.949219 345.09375 271.746094 344.824219 271.5625 C 344.554688 271.382812 344.269531 271.230469 343.972656 271.109375 C 343.671875 270.984375 343.363281 270.890625 343.046875 270.828125 C 342.730469 270.765625 342.40625 270.734375 342.085938 270.734375 L 323.703125 270.734375 C 321.800781 270.734375 319.902344 270.832031 318.011719 271.019531 C 316.121094 271.207031 314.242188 271.488281 312.378906 271.859375 C 310.515625 272.230469 308.671875 272.695312 306.855469 273.246094 C 305.035156 273.800781 303.25 274.441406 301.492188 275.167969 C 299.738281 275.898438 298.019531 276.710938 296.34375 277.605469 C 294.667969 278.503906 293.039062 279.480469 291.460938 280.535156 C 289.878906 281.59375 288.355469 282.726562 286.886719 283.929688 C 285.417969 285.136719 284.011719 286.410156 282.664062 287.757812 C 281.320312 289.101562 280.046875 290.507812 278.839844 291.976562 C 277.632812 293.445312 276.503906 294.96875 275.445312 296.550781 C 274.390625 298.128906 273.414062 299.757812 272.515625 301.433594 C 271.621094 303.109375 270.808594 304.828125 270.078125 306.582031 C 269.351562 308.339844 268.710938 310.125 268.15625 311.945312 C 267.601562 313.761719 267.140625 315.605469 266.769531 317.46875 C 266.394531 319.332031 266.113281 321.210938 265.925781 323.101562 C 265.738281 324.992188 265.644531 326.890625 265.640625 328.789062 L 265.640625 367.691406 C 265.640625 368.015625 265.671875 368.335938 265.734375 368.652344 C 265.800781 368.96875 265.894531 369.277344 266.015625 369.578125 C 266.140625 369.878906 266.292969 370.160156 266.472656 370.429688 C 266.652344 370.699219 266.855469 370.949219 267.085938 371.179688 C 267.316406 371.40625 267.5625 371.613281 267.832031 371.792969 C 268.101562 371.972656 268.386719 372.125 268.6875 372.246094 C 268.984375 372.371094 269.292969 372.464844 269.613281 372.527344 C 269.929688 372.589844 270.25 372.625 270.574219 372.625 L 325.039062 372.625 C 325.363281 372.625 325.683594 372.589844 326.003906 372.527344 C 326.320312 372.464844 326.628906 372.371094 326.929688 372.246094 C 327.226562 372.125 327.511719 371.972656 327.78125 371.792969 C 328.050781 371.613281 328.300781 371.40625 328.527344 371.179688 C 328.757812 370.949219 328.960938 370.699219 329.144531 370.429688 C 329.324219 370.160156 329.472656 369.878906 329.597656 369.578125 C 329.722656 369.277344 329.816406 368.96875 329.878906 368.652344 C 329.941406 368.335938 329.972656 368.015625 329.972656 367.691406 L 329.972656 347.652344 C 329.96875 346.074219 330.273438 344.558594 330.882812 343.105469 C 331.496094 341.652344 332.371094 340.375 333.503906 339.277344 C 334.617188 338.15625 335.910156 337.304688 337.378906 336.726562 C 338.851562 336.152344 340.378906 335.898438 341.957031 335.964844 C 342.625 335.976562 343.265625 335.863281 343.882812 335.621094 C 344.503906 335.375 345.050781 335.023438 345.527344 334.5625 C 346.191406 333.761719 346.652344 332.855469 346.910156 331.847656 C 347.171875 330.84375 347.207031 329.828125 347.015625 328.804688 L 381.574219 328.804688 L 381.574219 331.050781 C 381.597656 331.386719 381.652344 331.714844 381.742188 332.039062 C 381.828125 332.363281 381.945312 332.675781 382.089844 332.976562 C 382.238281 333.28125 382.410156 333.566406 382.609375 333.835938 C 382.808594 334.105469 383.035156 334.351562 383.28125 334.582031 C 383.527344 334.808594 383.792969 335.007812 384.078125 335.1875 C 384.363281 335.363281 384.664062 335.511719 384.976562 335.632812 C 385.292969 335.75 385.613281 335.839844 385.945312 335.898438 C 386.273438 335.960938 386.605469 335.988281 386.941406 335.984375 C 387.710938 335.984375 388.46875 336.058594 389.21875 336.210938 C 389.972656 336.359375 390.703125 336.582031 391.410156 336.875 C 392.117188 337.167969 392.792969 337.527344 393.429688 337.953125 C 394.066406 338.378906 394.65625 338.863281 395.199219 339.40625 C 395.742188 339.949219 396.222656 340.539062 396.652344 341.175781 C 397.078125 341.8125 397.4375 342.484375 397.730469 343.191406 C 398.023438 343.902344 398.246094 344.628906 398.398438 345.382812 C 398.546875 346.132812 398.625 346.894531 398.625 347.660156 C 398.601562 360.875 398.640625 411.511719 398.667969 425.652344 C 398.683594 425.671875 398.667969 434.207031 398.671875 434.230469 L 356.191406 472.273438 C 354.722656 473.550781 353.015625 474.265625 351.070312 474.410156 C 350.460938 474.464844 349.851562 474.539062 349.246094 474.628906 C 348.640625 474.71875 348.035156 474.824219 347.433594 474.949219 C 346.835938 475.078125 346.238281 475.21875 345.648438 475.378906 C 345.054688 475.542969 344.46875 475.71875 343.890625 475.914062 C 343.308594 476.109375 342.734375 476.324219 342.164062 476.554688 C 341.597656 476.78125 341.035156 477.027344 340.480469 477.292969 C 339.925781 477.554688 339.382812 477.835938 338.84375 478.128906 C 338.308594 478.425781 337.78125 478.734375 337.261719 479.0625 C 336.742188 479.386719 336.234375 479.730469 335.734375 480.085938 C 335.234375 480.445312 334.746094 480.816406 334.269531 481.199219 C 333.792969 481.585938 333.328125 481.984375 332.875 482.398438 C 332.421875 482.8125 331.984375 483.238281 331.554688 483.675781 C 331.128906 484.117188 330.714844 484.566406 330.3125 485.03125 C 329.910156 485.496094 329.523438 485.96875 329.152344 486.457031 C 328.777344 486.941406 328.421875 487.441406 328.078125 487.949219 C 327.734375 488.457031 327.40625 488.972656 327.09375 489.5 C 326.78125 490.027344 326.484375 490.5625 326.203125 491.109375 C 325.921875 491.652344 325.65625 492.207031 325.40625 492.765625 C 325.160156 493.328125 324.925781 493.894531 324.710938 494.46875 C 324.5 495.042969 324.300781 495.625 324.121094 496.210938 C 323.941406 496.796875 323.777344 497.386719 323.632812 497.980469 C 323.488281 498.578125 323.359375 499.175781 323.25 499.78125 C 323.140625 500.382812 323.046875 500.988281 322.972656 501.597656 C 322.898438 502.207031 322.84375 502.816406 322.804688 503.429688 C 322.769531 504.039062 322.746094 504.652344 322.746094 505.265625 C 322.746094 505.878906 322.761719 506.492188 322.796875 507.101562 C 322.832031 507.714844 322.882812 508.324219 322.953125 508.933594 C 323.027344 509.542969 323.113281 510.148438 323.222656 510.753906 C 323.328125 511.359375 323.453125 511.957031 323.59375 512.554688 C 323.738281 513.148438 323.898438 513.742188 324.074219 514.328125 C 324.25 514.914062 324.445312 515.496094 324.660156 516.070312 C 324.871094 516.648438 325.097656 517.214844 325.34375 517.777344 C 325.589844 518.339844 325.851562 518.894531 326.128906 519.441406 C 326.40625 519.984375 326.703125 520.523438 327.011719 521.050781 C 327.324219 521.582031 327.648438 522.101562 327.988281 522.609375 C 328.328125 523.121094 328.6875 523.617188 329.054688 524.105469 C 329.425781 524.59375 329.8125 525.074219 330.210938 525.539062 C 330.609375 526.003906 331.019531 526.457031 331.445312 526.898438 C 331.871094 527.339844 332.308594 527.769531 332.761719 528.183594 C 333.210938 528.597656 333.675781 529 334.148438 529.390625 C 334.625 529.777344 335.109375 530.152344 335.605469 530.507812 C 336.105469 530.867188 336.609375 531.214844 337.128906 531.542969 C 337.644531 531.871094 338.171875 532.183594 338.707031 532.484375 C 339.242188 532.78125 339.789062 533.0625 340.339844 533.328125 C 340.890625 533.59375 341.453125 533.84375 342.019531 534.074219 C 342.585938 534.308594 343.160156 534.523438 343.742188 534.722656 C 344.320312 534.921875 344.90625 535.101562 345.496094 535.265625 C 346.085938 535.429688 346.683594 535.578125 347.28125 535.703125 C 347.882812 535.832031 348.484375 535.945312 349.089844 536.039062 C 349.695312 536.128906 350.304688 536.207031 350.914062 536.261719 C 351.523438 536.320312 352.136719 536.359375 352.75 536.378906 C 353.363281 536.398438 353.976562 536.402344 354.585938 536.386719 C 355.199219 536.371094 355.8125 536.335938 356.421875 536.285156 C 357.035156 536.234375 357.644531 536.164062 358.25 536.074219 C 358.855469 535.988281 359.460938 535.882812 360.0625 535.757812 C 360.660156 535.636719 361.257812 535.492188 361.847656 535.335938 C 362.441406 535.175781 363.027344 535 363.609375 534.804688 C 364.191406 534.613281 364.765625 534.402344 365.335938 534.171875 C 365.90625 533.945312 366.46875 533.699219 367.023438 533.441406 C 367.578125 533.179688 368.125 532.902344 368.660156 532.609375 C 369.199219 532.316406 369.730469 532.003906 370.25 531.679688 C 370.769531 531.355469 371.277344 531.015625 371.777344 530.660156 C 372.277344 530.304688 372.769531 529.9375 373.246094 529.554688 C 373.722656 529.167969 374.191406 528.769531 374.644531 528.359375 C 377.21875 526.078125 379.34375 523.4375 381.023438 520.4375 C 382.707031 517.4375 383.847656 514.246094 384.449219 510.859375 C 384.769531 508.8125 385.671875 507.070312 387.15625 505.628906 L 404.589844 490.007812 C 405.777344 492.4375 407.125 494.777344 408.636719 497.019531 C 410.148438 499.261719 411.8125 501.386719 413.621094 503.398438 C 415.429688 505.40625 417.371094 507.28125 419.441406 509.019531 C 421.515625 510.757812 423.695312 512.34375 425.988281 513.777344 C 428.285156 515.210938 430.664062 516.480469 433.136719 517.582031 C 435.605469 518.679688 438.140625 519.605469 440.742188 520.351562 C 443.339844 521.097656 445.980469 521.660156 448.65625 522.035156 C 451.335938 522.414062 454.027344 522.601562 456.730469 522.605469 L 475.132812 522.605469 C 475.480469 522.601562 475.820312 522.5625 476.15625 522.492188 C 476.496094 522.417969 476.820312 522.3125 477.136719 522.171875 C 477.449219 522.03125 477.746094 521.859375 478.027344 521.65625 C 478.304688 521.453125 478.5625 521.226562 478.792969 520.96875 C 479.023438 520.714844 479.226562 520.4375 479.402344 520.140625 C 479.578125 519.84375 479.71875 519.53125 479.828125 519.203125 C 479.9375 518.875 480.011719 518.542969 480.054688 518.199219 C 480.09375 517.855469 480.097656 517.511719 480.066406 517.167969 L 536.949219 517.167969 C 537.273438 517.167969 537.59375 517.136719 537.910156 517.074219 C 538.230469 517.011719 538.539062 516.917969 538.835938 516.796875 C 539.136719 516.671875 539.421875 516.519531 539.691406 516.339844 C 539.960938 516.160156 540.210938 515.953125 540.4375 515.726562 C 540.667969 515.496094 540.871094 515.246094 541.050781 514.976562 C 541.230469 514.707031 541.382812 514.425781 541.507812 514.125 C 541.632812 513.824219 541.726562 513.515625 541.789062 513.199219 C 541.851562 512.882812 541.882812 512.5625 541.882812 512.238281 L 541.882812 470.878906 C 541.882812 470.558594 541.851562 470.234375 541.789062 469.917969 C 541.726562 469.601562 541.632812 469.292969 541.507812 468.992188 C 541.382812 468.691406 541.230469 468.410156 541.050781 468.140625 C 540.871094 467.871094 540.667969 467.621094 540.4375 467.390625 C 540.210938 467.164062 539.960938 466.957031 539.691406 466.777344 C 539.421875 466.597656 539.136719 466.445312 538.835938 466.324219 C 538.539062 466.199219 538.230469 466.105469 537.910156 466.042969 C 537.59375 465.980469 537.273438 465.949219 536.949219 465.949219 Z M 337.152344 326.5625 C 335.957031 326.820312 334.789062 327.179688 333.65625 327.640625 C 332.523438 328.097656 331.433594 328.648438 330.394531 329.292969 C 329.351562 329.933594 328.371094 330.660156 327.453125 331.46875 C 326.535156 332.277344 325.691406 333.15625 324.921875 334.109375 C 324.152344 335.0625 323.46875 336.070312 322.871094 337.136719 C 322.273438 338.207031 321.769531 339.316406 321.359375 340.46875 C 320.949219 341.621094 320.640625 342.800781 320.429688 344.007812 C 320.21875 345.210938 320.113281 346.425781 320.109375 347.652344 L 320.109375 362.757812 L 275.507812 362.757812 L 275.507812 328.789062 C 275.507812 327.214844 275.589844 325.640625 275.746094 324.070312 C 275.902344 322.5 276.132812 320.941406 276.441406 319.394531 C 276.75 317.84375 277.136719 316.316406 277.59375 314.808594 C 278.054688 313.296875 278.585938 311.8125 279.191406 310.355469 C 279.796875 308.898438 280.46875 307.476562 281.214844 306.085938 C 281.960938 304.691406 282.769531 303.339844 283.648438 302.03125 C 284.523438 300.71875 285.464844 299.453125 286.464844 298.234375 C 287.464844 297.011719 288.523438 295.84375 289.640625 294.730469 C 290.753906 293.613281 291.921875 292.554688 293.144531 291.554688 C 294.363281 290.554688 295.628906 289.613281 296.941406 288.738281 C 298.25 287.859375 299.601562 287.050781 300.996094 286.304688 C 302.386719 285.5625 303.808594 284.886719 305.265625 284.28125 C 306.726562 283.675781 308.207031 283.144531 309.71875 282.6875 C 311.226562 282.226562 312.757812 281.84375 314.304688 281.535156 C 315.851562 281.226562 317.410156 280.992188 318.980469 280.835938 C 320.550781 280.679688 322.125 280.601562 323.703125 280.597656 L 337.152344 280.597656 C 337.136719 284.363281 337.160156 322.519531 337.152344 326.5625 Z M 381.558594 318.941406 L 347.015625 318.941406 L 347.015625 289.300781 L 381.558594 289.300781 Z M 391.441406 326.652344 L 391.441406 280.585938 L 404.859375 280.585938 C 406.4375 280.585938 408.011719 280.664062 409.582031 280.820312 C 411.152344 280.976562 412.710938 281.210938 414.257812 281.519531 C 415.804688 281.828125 417.335938 282.210938 418.84375 282.671875 C 420.355469 283.128906 421.835938 283.664062 423.296875 284.265625 C 424.753906 284.871094 426.175781 285.546875 427.570312 286.289062 C 428.960938 287.035156 430.3125 287.84375 431.625 288.722656 C 432.933594 289.597656 434.199219 290.539062 435.421875 291.539062 C 436.640625 292.539062 437.808594 293.597656 438.921875 294.714844 C 440.039062 295.832031 441.097656 297 442.097656 298.21875 C 443.101562 299.4375 444.039062 300.703125 444.917969 302.015625 C 445.792969 303.328125 446.605469 304.679688 447.347656 306.070312 C 448.09375 307.460938 448.769531 308.882812 449.371094 310.34375 C 449.976562 311.800781 450.507812 313.28125 450.96875 314.792969 C 451.429688 316.300781 451.8125 317.832031 452.121094 319.378906 C 452.429688 320.925781 452.664062 322.484375 452.820312 324.054688 C 452.976562 325.625 453.054688 327.199219 453.058594 328.777344 L 453.058594 345.148438 C 452.660156 345.484375 452.238281 345.785156 451.847656 346.132812 C 450.148438 347.652344 448.558594 349.277344 447.078125 351.007812 C 445.59375 352.738281 444.234375 354.558594 442.992188 356.46875 C 441.753906 358.382812 440.644531 360.367188 439.667969 362.425781 C 438.691406 364.484375 437.851562 366.597656 437.15625 368.765625 C 436.460938 370.9375 435.910156 373.140625 435.507812 375.382812 C 435.101562 377.625 434.847656 379.886719 434.746094 382.164062 C 434.640625 384.4375 434.6875 386.710938 434.886719 388.980469 C 435.082031 391.25 435.429688 393.5 435.925781 395.722656 C 436.058594 396.414062 436.097656 397.109375 436.042969 397.8125 C 435.988281 398.511719 435.84375 399.195312 435.609375 399.859375 C 435.375 400.523438 435.054688 401.144531 434.65625 401.722656 C 434.253906 402.300781 433.785156 402.816406 433.25 403.269531 L 408.53125 425.402344 C 408.554688 425.296875 408.425781 367.792969 408.488281 367.703125 L 408.488281 347.660156 C 408.488281 346.4375 408.378906 345.226562 408.171875 344.023438 C 407.960938 342.816406 407.652344 341.640625 407.242188 340.488281 C 406.832031 339.339844 406.328125 338.230469 405.726562 337.164062 C 405.128906 336.101562 404.445312 335.09375 403.675781 334.144531 C 402.90625 333.195312 402.058594 332.320312 401.140625 331.515625 C 400.222656 330.710938 399.242188 329.988281 398.199219 329.351562 C 397.15625 328.710938 396.070312 328.167969 394.933594 327.714844 C 393.800781 327.261719 392.632812 326.90625 391.441406 326.652344 Z M 380.554688 498.289062 C 379.015625 499.722656 377.746094 501.363281 376.75 503.214844 C 375.757812 505.066406 375.085938 507.027344 374.742188 509.101562 C 374.628906 509.75 374.484375 510.390625 374.3125 511.027344 C 374.140625 511.660156 373.9375 512.285156 373.707031 512.902344 C 373.476562 513.519531 373.214844 514.125 372.929688 514.714844 C 372.640625 515.308594 372.328125 515.886719 371.988281 516.449219 C 371.644531 517.011719 371.28125 517.558594 370.886719 518.085938 C 370.496094 518.617188 370.082031 519.125 369.640625 519.617188 C 369.203125 520.109375 368.742188 520.578125 368.261719 521.023438 C 367.777344 521.472656 367.277344 521.898438 366.753906 522.296875 C 366.230469 522.699219 365.691406 523.074219 365.136719 523.425781 C 364.578125 523.777344 364.007812 524.101562 363.421875 524.402344 C 362.832031 524.699219 362.234375 524.96875 361.621094 525.210938 C 361.011719 525.453125 360.386719 525.667969 359.757812 525.851562 C 359.125 526.035156 358.484375 526.191406 357.839844 526.316406 C 357.195312 526.441406 356.542969 526.539062 355.886719 526.601562 C 355.234375 526.667969 354.574219 526.703125 353.917969 526.707031 C 353.257812 526.710938 352.601562 526.683594 351.945312 526.625 C 351.289062 526.570312 350.640625 526.484375 349.992188 526.363281 C 349.34375 526.246094 348.703125 526.101562 348.070312 525.921875 C 347.433594 525.746094 346.808594 525.539062 346.195312 525.304688 C 345.582031 525.070312 344.976562 524.808594 344.386719 524.515625 C 343.796875 524.226562 343.222656 523.910156 342.660156 523.5625 C 342.097656 523.21875 341.554688 522.851562 341.027344 522.457031 C 340.5 522.0625 339.996094 521.640625 339.507812 521.199219 C 339.019531 520.757812 338.550781 520.296875 338.109375 519.808594 C 337.664062 519.324219 337.242188 518.820312 336.84375 518.296875 C 336.445312 517.769531 336.074219 517.230469 335.726562 516.671875 C 335.375 516.113281 335.054688 515.539062 334.761719 514.949219 C 334.46875 514.359375 334.199219 513.757812 333.960938 513.144531 C 333.722656 512.53125 333.511719 511.910156 333.332031 511.277344 C 333.152344 510.644531 333 510.003906 332.878906 509.355469 C 332.757812 508.710938 332.667969 508.058594 332.605469 507.402344 C 332.542969 506.746094 332.515625 506.089844 332.515625 505.433594 C 332.515625 504.773438 332.542969 504.117188 332.605469 503.460938 C 332.667969 502.808594 332.757812 502.15625 332.878906 501.507812 C 333 500.863281 333.152344 500.222656 333.332031 499.589844 C 333.511719 498.957031 333.722656 498.332031 333.960938 497.71875 C 334.199219 497.105469 334.46875 496.503906 334.761719 495.914062 C 335.054688 495.328125 335.378906 494.753906 335.726562 494.195312 C 336.074219 493.636719 336.445312 493.09375 336.84375 492.570312 C 337.242188 492.046875 337.664062 491.539062 338.109375 491.054688 C 338.554688 490.570312 339.019531 490.105469 339.507812 489.664062 C 339.996094 489.222656 340.503906 488.804688 341.027344 488.410156 C 341.554688 488.015625 342.101562 487.644531 342.660156 487.300781 C 343.222656 486.957031 343.796875 486.640625 344.386719 486.347656 C 344.980469 486.058594 345.582031 485.796875 346.195312 485.558594 C 346.8125 485.324219 347.4375 485.121094 348.070312 484.941406 C 348.703125 484.765625 349.34375 484.617188 349.992188 484.5 C 350.640625 484.382812 351.292969 484.296875 351.949219 484.238281 C 353.949219 484.074219 355.878906 483.597656 357.726562 482.808594 C 359.578125 482.023438 361.253906 480.964844 362.761719 479.632812 L 439.8125 410.636719 C 441.007812 409.597656 442.042969 408.421875 442.921875 407.109375 C 443.800781 405.792969 444.492188 404.386719 444.996094 402.890625 C 445.5 401.390625 445.800781 399.855469 445.894531 398.277344 C 445.988281 396.699219 445.878906 395.136719 445.554688 393.589844 C 445.394531 392.835938 445.257812 392.078125 445.136719 391.320312 C 445.019531 390.558594 444.921875 389.796875 444.84375 389.03125 C 444.765625 388.265625 444.710938 387.496094 444.675781 386.730469 C 444.640625 385.960938 444.625 385.191406 444.632812 384.421875 C 444.640625 383.652344 444.667969 382.882812 444.71875 382.117188 C 444.769531 381.347656 444.839844 380.582031 444.929688 379.820312 C 445.023438 379.054688 445.132812 378.292969 445.269531 377.535156 C 445.402344 376.777344 445.554688 376.023438 445.730469 375.277344 C 445.90625 374.527344 446.097656 373.78125 446.316406 373.042969 C 446.53125 372.304688 446.765625 371.574219 447.023438 370.847656 C 447.277344 370.121094 447.554688 369.402344 447.847656 368.691406 C 448.144531 367.984375 448.457031 367.28125 448.792969 366.585938 C 449.125 365.894531 449.476562 365.210938 449.847656 364.535156 C 450.21875 363.863281 450.609375 363.199219 451.015625 362.546875 C 451.425781 361.894531 451.851562 361.253906 452.292969 360.625 C 452.734375 359.996094 453.195312 359.378906 453.671875 358.773438 C 454.148438 358.171875 454.640625 357.578125 455.148438 357.003906 C 455.660156 356.425781 456.183594 355.863281 456.722656 355.316406 C 457.265625 354.765625 457.820312 354.234375 458.386719 353.71875 C 458.957031 353.199219 459.539062 352.699219 460.136719 352.210938 C 460.734375 351.726562 461.34375 351.257812 461.964844 350.804688 C 462.589844 350.351562 463.222656 349.917969 463.867188 349.5 C 464.515625 349.082031 465.171875 348.683594 465.839844 348.304688 C 466.507812 347.921875 467.1875 347.558594 467.875 347.214844 C 468.5625 346.871094 469.261719 346.546875 469.96875 346.242188 C 470.671875 345.933594 471.386719 345.648438 472.109375 345.382812 C 472.832031 345.117188 473.558594 344.867188 474.292969 344.640625 C 475.03125 344.414062 475.769531 344.210938 476.515625 344.023438 C 477.261719 343.835938 478.015625 343.671875 478.769531 343.527344 C 479.527344 343.382812 480.285156 343.257812 481.046875 343.15625 C 481.808594 343.054688 482.574219 342.972656 483.34375 342.910156 C 484.109375 342.847656 484.878906 342.808594 485.644531 342.789062 L 458.441406 373.148438 C 458.136719 373.488281 457.882812 373.867188 457.683594 374.277344 C 457.484375 374.6875 457.34375 375.117188 457.261719 375.570312 C 457.179688 376.019531 457.164062 376.472656 457.207031 376.929688 C 457.253906 377.382812 457.359375 377.824219 457.527344 378.25 L 466.820312 401.804688 C 467.105469 402.53125 467.539062 403.152344 468.121094 403.671875 C 468.703125 404.191406 469.367188 404.550781 470.121094 404.753906 L 494.8125 411.441406 C 495.253906 411.5625 495.703125 411.621094 496.160156 411.617188 C 496.617188 411.609375 497.0625 411.542969 497.503906 411.414062 C 497.941406 411.285156 498.351562 411.097656 498.738281 410.855469 C 499.125 410.609375 499.46875 410.316406 499.773438 409.976562 L 527.976562 378.566406 C 528.09375 379.425781 528.191406 380.289062 528.257812 381.152344 C 528.324219 382.019531 528.363281 382.882812 528.378906 383.75 C 528.390625 384.617188 528.378906 385.484375 528.335938 386.351562 C 528.296875 387.21875 528.230469 388.082031 528.136719 388.945312 C 528.042969 389.808594 527.921875 390.664062 527.773438 391.519531 C 527.625 392.375 527.453125 393.226562 527.25 394.070312 C 527.050781 394.914062 526.824219 395.75 526.574219 396.578125 C 526.320312 397.410156 526.042969 398.230469 525.738281 399.042969 C 525.4375 399.855469 525.109375 400.65625 524.753906 401.449219 C 524.402344 402.242188 524.023438 403.023438 523.621094 403.792969 C 523.21875 404.558594 522.796875 405.316406 522.347656 406.058594 C 521.898438 406.800781 521.425781 407.527344 520.933594 408.242188 C 520.4375 408.953125 519.921875 409.652344 519.386719 410.332031 C 518.847656 411.011719 518.289062 411.675781 517.710938 412.324219 C 517.132812 412.96875 516.535156 413.597656 515.917969 414.207031 C 515.300781 414.816406 514.664062 415.40625 514.011719 415.972656 C 513.355469 416.542969 512.683594 417.09375 511.996094 417.621094 C 511.308594 418.148438 510.605469 418.652344 509.882812 419.136719 C 509.164062 419.621094 508.429688 420.082031 507.683594 420.523438 C 506.933594 420.960938 506.171875 421.375 505.398438 421.765625 C 504.625 422.15625 503.839844 422.523438 503.042969 422.867188 C 502.246094 423.210938 501.4375 423.527344 500.621094 423.820312 C 499.804688 424.109375 498.980469 424.378906 498.144531 424.617188 C 497.3125 424.859375 496.472656 425.074219 495.625 425.261719 C 494.78125 425.449219 493.929688 425.613281 493.070312 425.75 C 492.214844 425.882812 491.355469 425.992188 490.492188 426.074219 C 489.628906 426.160156 488.761719 426.214844 487.894531 426.242188 C 487.027344 426.269531 486.160156 426.273438 485.292969 426.246094 C 484.425781 426.222656 483.5625 426.167969 482.699219 426.089844 C 481.835938 426.011719 480.972656 425.90625 480.117188 425.773438 C 479.257812 425.640625 478.40625 425.480469 477.558594 425.292969 C 476.710938 425.109375 475.871094 424.898438 475.039062 424.660156 C 473.570312 424.269531 472.078125 424.066406 470.5625 424.050781 C 469.046875 424.035156 467.550781 424.210938 466.074219 424.570312 C 464.601562 424.929688 463.195312 425.464844 461.855469 426.175781 C 460.515625 426.890625 459.285156 427.757812 458.164062 428.777344 Z M 456.730469 512.738281 C 454.367188 512.738281 452.019531 512.566406 449.679688 512.21875 C 447.34375 511.875 445.042969 511.359375 442.78125 510.671875 C 440.519531 509.988281 438.316406 509.144531 436.179688 508.136719 C 434.042969 507.125 431.992188 505.96875 430.023438 504.65625 C 428.058594 503.347656 426.195312 501.898438 424.441406 500.316406 C 422.6875 498.730469 421.058594 497.027344 419.554688 495.203125 C 418.054688 493.378906 416.691406 491.457031 415.472656 489.433594 C 414.25 487.410156 413.1875 485.304688 412.273438 483.125 L 453.21875 446.449219 C 453.261719 447.636719 453.398438 448.816406 453.636719 449.980469 C 453.875 451.144531 454.207031 452.285156 454.632812 453.394531 C 455.058594 454.503906 455.574219 455.574219 456.175781 456.597656 C 456.78125 457.625 457.464844 458.589844 458.226562 459.503906 C 458.992188 460.414062 459.824219 461.257812 460.730469 462.03125 C 461.632812 462.804688 462.59375 463.5 463.613281 464.113281 C 464.628906 464.726562 465.691406 465.253906 466.796875 465.691406 C 467.90625 466.128906 469.039062 466.472656 470.203125 466.722656 C 470.265625 467.171875 470.105469 510.078125 470.175781 512.238281 C 470.175781 512.28125 470.199219 512.3125 470.203125 512.355469 L 470.203125 512.738281 Z M 532.015625 507.304688 L 480.066406 507.304688 L 480.066406 475.8125 L 532.015625 475.8125 Z M 532.015625 507.304688 " fill-opacity="1" fill-rule="nonzero"/></g><path fill="#f5c022" d="M 342.390625 492.542969 C 325.890625 508.09375 348.152344 532.671875 365.347656 518.03125 C 381.839844 502.496094 359.605469 477.902344 342.390625 492.542969 Z M 358.765625 510.679688 C 358.410156 510.996094 358.027344 511.273438 357.621094 511.511719 C 357.210938 511.75 356.78125 511.949219 356.332031 512.105469 C 355.886719 512.261719 355.425781 512.371094 354.957031 512.4375 C 354.488281 512.503906 354.015625 512.523438 353.542969 512.5 C 353.066406 512.472656 352.601562 512.402344 352.140625 512.285156 C 351.679688 512.167969 351.238281 512.007812 350.808594 511.804688 C 350.378906 511.597656 349.976562 511.355469 349.59375 511.074219 C 349.214844 510.789062 348.863281 510.472656 348.546875 510.121094 C 348.226562 509.769531 347.945312 509.390625 347.699219 508.984375 C 347.453125 508.578125 347.25 508.152344 347.089844 507.707031 C 346.925781 507.261719 346.8125 506.804688 346.738281 506.335938 C 346.664062 505.867188 346.640625 505.394531 346.660156 504.921875 C 346.679688 504.445312 346.746094 503.980469 346.855469 503.519531 C 346.964844 503.058594 347.121094 502.609375 347.320312 502.179688 C 347.515625 501.75 347.753906 501.339844 348.035156 500.957031 C 348.3125 500.570312 348.625 500.21875 348.972656 499.894531 C 349.324219 499.582031 349.707031 499.304688 350.117188 499.0625 C 350.527344 498.824219 350.957031 498.625 351.402344 498.46875 C 351.851562 498.3125 352.3125 498.203125 352.78125 498.136719 C 353.25 498.070312 353.722656 498.050781 354.195312 498.078125 C 354.667969 498.101562 355.136719 498.175781 355.597656 498.289062 C 356.054688 498.40625 356.5 498.570312 356.929688 498.773438 C 357.355469 498.976562 357.761719 499.21875 358.140625 499.503906 C 358.523438 499.785156 358.871094 500.101562 359.191406 500.453125 C 359.511719 500.804688 359.792969 501.183594 360.039062 501.589844 C 360.28125 501.996094 360.484375 502.421875 360.648438 502.867188 C 360.808594 503.3125 360.925781 503.769531 361 504.238281 C 361.070312 504.707031 361.097656 505.179688 361.078125 505.65625 C 361.058594 506.128906 360.992188 506.597656 360.882812 507.058594 C 360.769531 507.519531 360.617188 507.964844 360.417969 508.394531 C 360.21875 508.828125 359.980469 509.234375 359.703125 509.617188 C 359.425781 510.003906 359.113281 510.355469 358.765625 510.679688 Z M 358.765625 510.679688 " fill-opacity="1" fill-rule="nonzero"/><path fill="#f5c022" d="M 300.976562 387.25 C 300.488281 387.25 300.011719 387.320312 299.542969 387.460938 C 299.078125 387.601562 298.640625 387.808594 298.234375 388.078125 C 297.832031 388.351562 297.472656 388.675781 297.164062 389.050781 C 296.855469 389.429688 296.605469 389.84375 296.417969 390.292969 C 293.589844 397.128906 279.484375 431.703125 279.484375 441.339844 C 279.484375 442.042969 279.519531 442.746094 279.589844 443.445312 C 279.660156 444.144531 279.765625 444.839844 279.902344 445.53125 C 280.039062 446.21875 280.210938 446.898438 280.417969 447.574219 C 280.621094 448.246094 280.859375 448.90625 281.128906 449.554688 C 281.398438 450.207031 281.699219 450.839844 282.03125 451.460938 C 282.363281 452.078125 282.726562 452.679688 283.117188 453.265625 C 283.507812 453.851562 283.929688 454.414062 284.375 454.957031 C 284.820312 455.5 285.292969 456.019531 285.789062 456.515625 C 286.289062 457.011719 286.808594 457.484375 287.351562 457.929688 C 287.898438 458.375 288.460938 458.792969 289.046875 459.183594 C 289.632812 459.574219 290.234375 459.9375 290.855469 460.265625 C 291.472656 460.597656 292.109375 460.898438 292.757812 461.167969 C 293.410156 461.4375 294.070312 461.671875 294.742188 461.875 C 295.417969 462.078125 296.097656 462.25 296.789062 462.386719 C 297.476562 462.523438 298.171875 462.628906 298.871094 462.695312 C 299.570312 462.765625 300.273438 462.800781 300.976562 462.800781 C 301.679688 462.800781 302.378906 462.765625 303.082031 462.695312 C 303.78125 462.628906 304.476562 462.523438 305.164062 462.386719 C 305.855469 462.25 306.535156 462.078125 307.207031 461.875 C 307.882812 461.671875 308.542969 461.4375 309.191406 461.167969 C 309.84375 460.898438 310.476562 460.597656 311.097656 460.265625 C 311.71875 459.9375 312.320312 459.574219 312.90625 459.183594 C 313.492188 458.792969 314.054688 458.375 314.597656 457.929688 C 315.144531 457.484375 315.664062 457.011719 316.160156 456.515625 C 316.660156 456.019531 317.132812 455.5 317.578125 454.957031 C 318.023438 454.414062 318.441406 453.851562 318.835938 453.265625 C 319.226562 452.679688 319.585938 452.078125 319.917969 451.460938 C 320.25 450.839844 320.550781 450.207031 320.824219 449.554688 C 321.09375 448.90625 321.328125 448.246094 321.535156 447.574219 C 321.738281 446.898438 321.910156 446.21875 322.050781 445.53125 C 322.1875 444.839844 322.292969 444.144531 322.363281 443.445312 C 322.433594 442.746094 322.46875 442.042969 322.46875 441.339844 C 322.46875 431.703125 308.359375 397.128906 305.535156 390.292969 C 305.347656 389.84375 305.097656 389.429688 304.789062 389.050781 C 304.480469 388.675781 304.121094 388.351562 303.714844 388.078125 C 303.3125 387.808594 302.875 387.601562 302.40625 387.460938 C 301.941406 387.320312 301.464844 387.25 300.976562 387.25 Z M 300.976562 452.964844 C 300.214844 452.964844 299.457031 452.890625 298.710938 452.742188 C 297.960938 452.589844 297.234375 452.371094 296.527344 452.078125 C 295.824219 451.785156 295.15625 451.425781 294.519531 451.003906 C 293.886719 450.578125 293.296875 450.097656 292.757812 449.558594 C 292.21875 449.019531 291.738281 448.429688 291.3125 447.796875 C 290.890625 447.164062 290.53125 446.492188 290.238281 445.789062 C 289.945312 445.082031 289.726562 444.355469 289.574219 443.609375 C 289.425781 442.859375 289.351562 442.105469 289.351562 441.339844 C 289.351562 436.910156 295.203125 420.246094 300.976562 405.433594 C 306.746094 420.246094 312.601562 436.910156 312.601562 441.339844 C 312.601562 442.105469 312.527344 442.859375 312.378906 443.609375 C 312.226562 444.355469 312.007812 445.082031 311.714844 445.789062 C 311.421875 446.492188 311.0625 447.164062 310.640625 447.796875 C 310.214844 448.429688 309.734375 449.019531 309.195312 449.558594 C 308.652344 450.097656 308.066406 450.578125 307.433594 451.003906 C 306.796875 451.425781 306.128906 451.785156 305.421875 452.078125 C 304.71875 452.371094 303.992188 452.589844 303.242188 452.742188 C 302.496094 452.890625 301.738281 452.964844 300.976562 452.964844 Z M 300.976562 452.964844 " fill-opacity="1" fill-rule="nonzero"/></svg>