<svg xmlns="http://www.w3.org/2000/svg" xmlns:xlink="http://www.w3.org/1999/xlink" width="1080" zoomAndPan="magnify" viewBox="0 0 810 809.999993" height="1080" preserveAspectRatio="xMidYMid meet" version="1.0"><defs><filter x="0%" y="0%" width="100%" height="100%" id="b9e46fc2df"><feColorMatrix values="0 0 0 0 1 0 0 0 0 1 0 0 0 0 1 0 0 0 1 0" color-interpolation-filters="sRGB"/></filter><mask id="6c2643d8dd"><g filter="url(#b9e46fc2df)"><rect x="-81" width="972" fill="#000000" y="-80.999999" height="971.999992" fill-opacity="0.8"/></g></mask><clipPath id="2e70b5c451"><path d="M 0.746094 0.746094 L 445.359375 0.746094 L 445.359375 445.359375 L 0.746094 445.359375 Z M 0.746094 0.746094 " clip-rule="nonzero"/></clipPath><clipPath id="366f565c0e"><rect x="0" width="446" y="0" height="446"/></clipPath><clipPath id="e11463989f"><path d="M 250.457031 265.914062 L 559.457031 265.914062 L 559.457031 544.164062 L 250.457031 544.164062 Z M 250.457031 265.914062 " clip-rule="nonzero"/></clipPath></defs><g mask="url(#6c2643d8dd)"><g transform="matrix(1, 0, 0, 1, 182, 182)"><g clip-path="url(#366f565c0e)"><g clip-path="url(#2e70b5c451)"><path fill="#0b656a" d="M 222.996094 445.25 C 100.757812 445.25 0.746094 345.234375 0.746094 222.996094 C 0.746094 100.757812 100.757812 0.746094 222.996094 0.746094 C 345.234375 0.746094 445.25 100.757812 445.25 222.996094 C 445.25 345.234375 345.234375 445.25 222.996094 445.25 Z M 222.996094 445.25 " fill-opacity="1" fill-rule="nonzero"/></g></g></g></g><g clip-path="url(#e11463989f)"><path fill="#f5c022" d="M 357.285156 299.472656 C 376.1875 299.472656 393.296875 307.132812 405.683594 319.519531 C 418.070312 331.90625 425.730469 349.015625 425.730469 367.917969 C 425.730469 386.816406 418.070312 403.929688 405.683594 416.316406 C 393.296875 428.699219 376.1875 436.363281 357.285156 436.363281 C 338.386719 436.363281 321.273438 428.699219 308.890625 416.316406 C 296.503906 403.929688 288.839844 386.816406 288.839844 367.917969 C 288.839844 349.015625 296.503906 331.90625 308.890625 319.519531 C 321.273438 307.132812 338.386719 299.472656 357.285156 299.472656 Z M 325.285156 404.632812 C 321.453125 405.859375 317.917969 407.296875 314.746094 408.910156 C 315 409.171875 315.253906 409.433594 315.511719 409.691406 C 320.800781 414.984375 327.09375 419.273438 334.074219 422.257812 C 332.527344 420.09375 331.078125 417.714844 329.746094 415.144531 C 328.082031 411.9375 326.585938 408.417969 325.285156 404.632812 Z M 380.222656 402.257812 C 373.167969 400.777344 365.425781 399.964844 357.285156 399.964844 C 349.144531 399.964844 341.40625 400.777344 334.351562 402.257812 C 335.445312 405.351562 336.683594 408.230469 338.050781 410.863281 C 343.222656 420.828125 350.042969 426.996094 357.289062 426.996094 C 364.53125 426.996094 371.351562 420.828125 376.523438 410.863281 C 377.886719 408.230469 379.128906 405.347656 380.222656 402.257812 Z M 399.828125 408.910156 C 396.65625 407.296875 393.121094 405.859375 389.289062 404.636719 C 387.988281 408.417969 386.492188 411.9375 384.828125 415.144531 C 383.492188 417.71875 382.046875 420.097656 380.5 422.261719 C 387.480469 419.273438 393.773438 414.984375 399.0625 409.691406 C 399.320312 409.433594 399.574219 409.171875 399.828125 408.910156 Z M 391.886719 395.660156 C 397.019531 397.289062 401.71875 399.269531 405.867188 401.546875 C 411.632812 393.230469 415.320312 383.363281 416.171875 372.699219 L 394.957031 372.65625 C 394.65625 380.800781 393.585938 388.554688 391.886719 395.660156 Z M 331.722656 393.261719 C 339.621094 391.546875 348.257812 390.597656 357.285156 390.597656 C 366.316406 390.597656 374.953125 391.546875 382.851562 393.261719 C 384.347656 386.917969 385.300781 379.964844 385.585938 372.636719 L 328.980469 372.527344 C 329.261719 379.894531 330.21875 386.882812 331.722656 393.261719 Z M 308.707031 401.542969 C 312.855469 399.269531 317.554688 397.289062 322.6875 395.660156 C 320.976562 388.511719 319.902344 380.703125 319.609375 372.507812 L 298.378906 372.464844 C 299.199219 383.222656 302.898438 393.171875 308.707031 401.546875 Z M 389.289062 331.199219 C 393.121094 329.972656 396.65625 328.535156 399.828125 326.921875 C 399.574219 326.660156 399.320312 326.398438 399.0625 326.140625 C 393.769531 320.851562 387.480469 316.558594 380.5 313.574219 C 382.046875 315.738281 383.496094 318.117188 384.828125 320.691406 C 386.492188 323.894531 387.988281 327.417969 389.289062 331.199219 Z M 334.351562 333.578125 C 341.40625 335.054688 349.144531 335.867188 357.285156 335.867188 C 365.425781 335.867188 373.167969 335.054688 380.222656 333.578125 C 379.128906 330.484375 377.886719 327.601562 376.523438 324.96875 C 371.351562 315.003906 364.53125 308.839844 357.285156 308.839844 C 350.039062 308.839844 343.21875 315.003906 338.050781 324.96875 C 336.683594 327.601562 335.445312 330.484375 334.351562 333.578125 Z M 314.746094 326.921875 C 317.917969 328.539062 321.453125 329.972656 325.285156 331.199219 C 326.585938 327.417969 328.082031 323.894531 329.746094 320.691406 C 331.078125 318.117188 332.527344 315.738281 334.074219 313.574219 C 327.09375 316.558594 320.800781 320.851562 315.511719 326.140625 C 315.253906 326.398438 315 326.660156 314.746094 326.921875 Z M 322.6875 340.175781 C 317.554688 338.546875 312.855469 336.5625 308.707031 334.289062 C 302.941406 342.601562 299.253906 352.46875 298.398438 363.132812 L 319.613281 363.175781 C 319.914062 355.035156 320.984375 347.277344 322.6875 340.175781 Z M 382.851562 342.574219 C 374.953125 344.289062 366.316406 345.234375 357.289062 345.234375 C 348.257812 345.234375 339.621094 344.289062 331.722656 342.574219 C 330.226562 348.917969 329.273438 355.867188 328.984375 363.195312 L 385.59375 363.308594 C 385.308594 355.9375 384.355469 348.949219 382.851562 342.574219 Z M 405.867188 334.289062 C 401.71875 336.5625 397.019531 338.546875 391.886719 340.175781 C 393.597656 347.320312 394.671875 355.128906 394.964844 363.324219 L 416.191406 363.367188 C 415.375 352.613281 411.675781 342.664062 405.867188 334.289062 Z M 489.355469 363.621094 C 488.257812 362.519531 486.738281 361.839844 485.058594 361.839844 C 483.382812 361.839844 481.863281 362.519531 480.761719 363.621094 C 479.664062 364.71875 478.984375 366.238281 478.984375 367.917969 C 478.984375 369.59375 479.664062 371.113281 480.761719 372.214844 C 481.863281 373.3125 483.382812 373.992188 485.058594 373.992188 C 486.738281 373.992188 488.257812 373.3125 489.355469 372.214844 C 490.457031 371.113281 491.136719 369.59375 491.136719 367.917969 C 491.136719 366.238281 490.457031 364.71875 489.355469 363.621094 Z M 510.011719 309.300781 C 508.910156 308.199219 507.390625 307.519531 505.714844 307.519531 C 504.035156 307.519531 502.515625 308.199219 501.417969 309.300781 C 500.316406 310.398438 499.636719 311.917969 499.636719 313.597656 C 499.636719 315.273438 500.316406 316.796875 501.417969 317.894531 C 502.515625 318.992188 504.035156 319.675781 505.714844 319.675781 C 507.390625 319.675781 508.910156 318.992188 510.011719 317.894531 C 511.109375 316.796875 511.789062 315.273438 511.789062 313.597656 C 511.789062 311.917969 511.109375 310.398438 510.011719 309.300781 Z M 505.714844 298.152344 C 509.976562 298.152344 513.839844 299.882812 516.632812 302.675781 C 519.429688 305.46875 521.15625 309.332031 521.15625 313.597656 C 521.15625 317.859375 519.429688 321.722656 516.632812 324.515625 C 513.839844 327.3125 509.976562 329.039062 505.714844 329.039062 C 501.449219 329.039062 497.589844 327.3125 494.792969 324.515625 C 493.070312 322.792969 491.75 320.660156 490.992188 318.277344 L 445.578125 318.277344 L 435.496094 335.738281 C 434.203125 337.972656 431.34375 338.734375 429.109375 337.441406 C 426.878906 336.148438 426.117188 333.289062 427.410156 331.054688 L 438.84375 311.253906 C 439.707031 309.757812 441.273438 308.921875 442.886719 308.921875 L 442.886719 308.914062 L 490.992188 308.914062 C 491.75 306.53125 493.070312 304.398438 494.792969 302.675781 C 497.589844 299.878906 501.449219 298.152344 505.714844 298.152344 Z M 510.011719 418.121094 C 508.910156 417.023438 507.390625 416.339844 505.714844 416.339844 C 504.035156 416.339844 502.515625 417.023438 501.417969 418.121094 C 500.316406 419.222656 499.636719 420.742188 499.636719 422.417969 C 499.636719 424.097656 500.316406 425.617188 501.417969 426.714844 C 502.515625 427.816406 504.035156 428.496094 505.714844 428.496094 C 507.390625 428.496094 508.910156 427.816406 510.011719 426.714844 C 511.109375 425.617188 511.789062 424.097656 511.789062 422.417969 C 511.789062 420.742188 511.109375 419.21875 510.011719 418.121094 Z M 505.714844 406.976562 C 509.976562 406.976562 513.839844 408.703125 516.632812 411.5 C 519.429688 414.292969 521.15625 418.15625 521.15625 422.417969 C 521.15625 426.683594 519.429688 430.542969 516.632812 433.339844 C 513.839844 436.132812 509.976562 437.863281 505.714844 437.863281 C 501.449219 437.863281 497.589844 436.132812 494.792969 433.339844 C 493.070312 431.613281 491.75 429.484375 490.992188 427.101562 L 442.886719 427.101562 C 441.03125 427.101562 439.433594 426.027344 438.671875 424.464844 L 427.363281 404.875 C 426.070312 402.644531 426.832031 399.785156 429.0625 398.492188 C 431.296875 397.199219 434.15625 397.960938 435.449219 400.191406 L 445.578125 417.734375 L 490.992188 417.734375 C 491.75 415.351562 493.070312 413.222656 494.792969 411.496094 C 497.589844 408.703125 501.449219 406.972656 505.714844 406.972656 Z M 439.078125 372.601562 C 436.492188 372.601562 434.394531 370.503906 434.394531 367.917969 C 434.394531 365.332031 436.492188 363.234375 439.078125 363.234375 L 470.339844 363.234375 C 471.097656 360.851562 472.414062 358.722656 474.140625 356.996094 C 476.933594 354.203125 480.796875 352.472656 485.058594 352.472656 C 489.324219 352.472656 493.1875 354.203125 495.980469 356.996094 C 498.773438 359.792969 500.503906 363.652344 500.503906 367.917969 C 500.503906 372.179688 498.777344 376.042969 495.980469 378.835938 C 493.1875 381.632812 489.324219 383.359375 485.058594 383.359375 C 480.796875 383.359375 476.933594 381.632812 474.140625 378.835938 C 472.417969 377.113281 471.097656 374.980469 470.339844 372.601562 Z M 474.316406 520.988281 L 335.683594 520.988281 C 333.800781 520.988281 332.085938 521.761719 330.835938 523.007812 C 329.589844 524.257812 328.816406 525.972656 328.816406 527.855469 C 328.816406 529.742188 329.589844 531.457031 330.835938 532.707031 C 332.085938 533.953125 333.800781 534.726562 335.683594 534.726562 L 474.316406 534.726562 C 476.199219 534.726562 477.917969 533.953125 479.164062 532.707031 C 480.410156 531.457031 481.183594 529.742188 481.183594 527.859375 C 481.183594 525.972656 480.410156 524.257812 479.164062 523.007812 C 477.917969 521.761719 476.199219 520.988281 474.316406 520.988281 Z M 425.917969 495.632812 L 384.078125 495.632812 L 384.078125 511.621094 L 425.917969 511.621094 Z M 554.246094 265.898438 L 255.753906 265.898438 C 254.300781 265.898438 252.980469 266.496094 252.019531 267.457031 L 252 267.472656 C 251.042969 268.433594 250.445312 269.753906 250.445312 271.207031 L 250.445312 490.324219 C 250.445312 491.789062 251.042969 493.121094 252 494.078125 C 252.960938 495.039062 254.289062 495.632812 255.753906 495.632812 L 374.710938 495.632812 L 374.710938 511.621094 L 335.683594 511.621094 C 331.214844 511.621094 327.15625 513.445312 324.214844 516.386719 C 321.273438 519.328125 319.449219 523.386719 319.449219 527.859375 C 319.449219 532.328125 321.273438 536.386719 324.214844 539.328125 C 327.15625 542.269531 331.214844 544.09375 335.683594 544.09375 L 474.316406 544.09375 C 478.785156 544.09375 482.84375 542.269531 485.785156 539.328125 C 488.726562 536.386719 490.550781 532.328125 490.550781 527.855469 C 490.550781 523.386719 488.726562 519.328125 485.785156 516.386719 C 482.84375 513.445312 478.785156 511.621094 474.316406 511.621094 L 435.285156 511.621094 L 435.285156 495.632812 L 554.246094 495.632812 C 555.644531 495.632812 556.929688 495.074219 557.886719 494.167969 L 557.996094 494.058594 C 558.957031 493.089844 559.554688 491.769531 559.554688 490.324219 L 559.554688 271.207031 C 559.554688 269.742188 558.957031 268.414062 557.996094 267.453125 C 557.039062 266.496094 555.710938 265.898438 554.246094 265.898438 Z M 550.1875 462.878906 L 550.1875 486.265625 L 259.8125 486.265625 L 259.8125 462.878906 Z M 259.8125 453.515625 L 550.1875 453.515625 L 550.1875 275.265625 L 259.8125 275.265625 Z M 277.921875 480.054688 C 275.335938 480.054688 273.238281 477.957031 273.238281 475.371094 C 273.238281 472.785156 275.335938 470.6875 277.921875 470.6875 L 278.917969 470.6875 C 281.503906 470.6875 283.601562 472.785156 283.601562 475.371094 C 283.601562 477.957031 281.503906 480.054688 278.917969 480.054688 Z M 277.921875 480.054688 " fill-opacity="1" fill-rule="evenodd"/></g></svg>